<?xml version="1.0" encoding="UTF-8"?>
<svg width="300px" height="201px" viewBox="0 0 300 201" version="1.1" xmlns="http://www.w3.org/2000/svg" xmlns:xlink="http://www.w3.org/1999/xlink">
    <!-- Generator: Sketch 59.1 (86144) - https://sketch.com -->
    <title>Consultingimg</title>
    <desc>Created with Sketch.</desc>
    <defs>
        <path d="M5.10063686,0.247898748 C10.1342738,-2.17364461 15.1426491,13.9430963 15.1426491,13.9430963 C23.6986237,25.3139658 35.6550216,10.1870528 34.4853024,27.1842545 C32.4391174,56.9288052 68.5235833,36.5368029 51.8762268,67.5904452 C35.2288704,98.6429828 66.5751496,85.148844 56.2299988,110.188398 C45.8859463,135.226847 59.2932354,165.089602 43.7277319,152.818387 C43.7277319,152.818387 30.0216976,122.588865 15.8873155,113.235212 C1.75293332,103.881559 24.3554238,92.7824502 19.9335556,80.0803947 C13.5094355,61.6282785 -1.96710338,62.3529739 9.19190841,42.5243782 C20.3509202,22.6957825 -12.010214,8.47805297 5.10063686,0.247898748" id="path-1"></path>
        <path d="M41.8266411,3.61215694 C40.5779107,4.29209542 39.5319467,5.3815423 38.3219968,6.64428518 C35.2971219,9.8000386 31.5320946,13.7284494 21.9943209,13.7726012 C17.2453782,13.7946771 14.5861476,14.4116992 13.3706576,15.7715762 C12.0410423,17.2594935 12.3313417,19.8379615 12.7324423,23.4054309 C12.88424,24.7531661 13.055982,26.2797163 13.1612432,27.9398258 C13.8061066,38.1477333 7.93474706,45.2793608 7.68433618,45.5773857 C4.26833287,49.6294217 0.399152342,57.6937569 2.01574295,62.2987948 C2.64509419,64.0913599 4.08218673,65.2249586 6.28934813,65.6686847 C13.9878207,67.2184146 16.1129892,62.4202124 19.6353617,54.4717758 C20.2813331,53.0114533 20.9483568,51.5047715 21.7073456,49.9097859 C25.7859405,41.3299779 29.5919643,39.8431643 35.3525226,37.59142 C36.7353225,37.0494561 38.3020525,36.437953 40.0128242,35.6719184 C47.293576,32.4124081 45.9794729,27.9376182 44.5889169,23.1979172 C44.3894746,22.5190825 44.1922483,21.844663 44.0193983,21.1757625 C43.1429602,17.7650322 44.8714601,16.0088924 47.0597853,13.784743 C48.6331634,12.1853422 50.4159559,10.371805 51.8264562,7.43460328 C52.5655007,5.89591134 53.1760157,3.80421749 51.8829648,2.58452266 C50.1821652,0.977395347 45.8586995,1.42001763 41.8266411,3.61215694 Z M8.94414668,67.0793363 C8.06660058,67.0793363 7.11149359,66.9788908 6.06663756,66.7680657 C3.44286337,66.2404511 1.72322758,64.8618096 0.954266731,62.6696703 C-0.880602385,57.4420914 3.36973453,48.950587 6.82008623,44.8577106 C6.8777029,44.7892752 12.6537734,37.7569895 12.0377183,28.0104688 C11.9335651,26.3768504 11.7640391,24.8646495 11.6133494,23.5301599 C11.1801164,19.6734959 10.8665488,16.8875142 12.5296759,15.0254099 C13.9944688,13.3851687 16.8243334,12.6754278 21.9887808,12.6511443 C31.047893,12.6092 34.6300983,8.87284977 37.5076074,5.86942023 C38.7297454,4.59343179 39.8842947,3.3902939 41.2870389,2.62757071 C45.8021908,0.1716241 50.5832659,-0.18821347 52.6574657,1.76992104 C53.6424891,2.70042126 54.4734986,4.52168504 52.8413958,7.91916983 C51.3522267,11.0241486 49.4176364,12.9911135 47.8630946,14.5684383 C45.7733825,16.6943498 44.3905826,18.0994824 45.1096829,20.8976059 C45.2792088,21.5532608 45.4742191,22.2177462 45.6692293,22.8833353 C47.0664334,27.6418008 48.6486756,33.0349492 40.4737575,36.6940337 C38.7386095,37.4711062 37.1585834,38.0892321 35.7635953,38.6345075 C30.0573296,40.8652796 26.613626,42.2130148 22.7245013,50.3877297 C21.9721606,51.9716773 21.307353,53.4706326 20.6647056,54.9221246 C17.5999423,61.8440308 15.2797636,67.0793363 8.94414668,67.0793363 L8.94414668,67.0793363 Z" id="path-3"></path>
        <linearGradient x1="5.33242361e-06%" y1="50.0013107%" x2="100.000078%" y2="50.0013107%" id="linearGradient-5">
            <stop stop-color="#40D4E6" offset="0%"></stop>
            <stop stop-color="#5477FF" offset="100%"></stop>
        </linearGradient>
        <path d="M1.12264819,65.0311123 L0,64.9722151 C0.0553574056,63.9131776 1.47250699,38.9441172 11.4600901,31.6364248 C22.417535,23.619744 25.8729442,15.0052015 27.5181663,9.22216749 C29.4567827,2.4067664 39.3247938,0.586510897 39.7444029,0.512056002 L39.9403682,1.6233231 C39.8440463,1.64110337 30.3447155,3.39801665 28.59985,9.53221101 C26.9081277,15.4752674 23.3608252,24.3265098 12.1232718,32.5487751 C2.56304788,39.5430902 1.13704111,64.7766321 1.12264819,65.0311123" id="path-6"></path>
        <linearGradient x1="-0.000554400554%" y1="49.9991388%" x2="99.998614%" y2="49.9991388%" id="linearGradient-8">
            <stop stop-color="#40D4E6" offset="0%"></stop>
            <stop stop-color="#5477FF" offset="100%"></stop>
        </linearGradient>
        <path d="M38.4515149,0.285316256 C31.339762,-2.15237296 32.8171255,11.5470192 29.8113784,21.6846581 C26.8067405,31.8211884 -3.61896214,26.1055333 9.15269015,51.4889839 C21.9243424,76.8713259 -6.99959577,59.9771086 1.64054069,82.1269351 C10.279568,104.27787 2.3914229,127.967465 11.7824416,121.941417 C21.1723511,115.916478 17.0574722,88.0243915 26.8244866,84.7087351 C36.5903918,81.3941872 38.1842141,77.5286927 28.5136943,68.5184435 C18.8442835,59.5081943 53.8518095,50.5633493 45.2127821,32.3699179 C36.5737548,14.1764866 46.667963,3.10101913 38.4515149,0.285316256" id="path-9"></path>
        <polygon id="path-11" points="0.0548827268 0.276546175 9.89707486 37.8183542 31.8934766 37.8183542 41.7359994 0.276546175"></polygon>
    </defs>
    <g id="Consultingimg" stroke="none" stroke-width="1" fill="none" fill-rule="evenodd" transform="translate(0.000000, 1.000000)">
        <g id="Group" transform="translate(0.000000, 15.000000)">
            <path d="M167.784123,72.2338605 L102.46937,72.2338605 C100.427348,72.2338605 98.7713249,70.5817812 98.7713249,68.5421498 L98.7713249,24.719971 C98.7713249,22.6803396 100.427348,21.0282603 102.46937,21.0282603 L167.784123,21.0282603 C169.827254,21.0282603 171.483277,22.6803396 171.483277,24.719971 L171.483277,68.5421498 C171.483277,70.5817812 169.827254,72.2338605 167.784123,72.2338605" id="Fill-121" fill="#B8ABA5"></path>
            <polygon id="Fill-122" fill="#F5F7FF" points="101.843661 64.0409645 168.922997 64.0409645 168.922997 24.1005963 101.843661 24.1005963"></polygon>
            <path d="M162.014847,60.9686285 L132.817338,60.9686285 C131.263997,60.9686285 130.006741,59.7130608 130.006741,58.1656287 L130.006741,29.9759321 C130.006741,28.4285 131.263997,27.1729323 132.817338,27.1729323 L162.014847,27.1729323 C163.568188,27.1729323 164.826549,28.4285 164.826549,29.9759321 L164.826549,58.1656287 C164.826549,59.7130608 163.568188,60.9686285 162.014847,60.9686285" id="Fill-132" fill="#DFE1E8"></path>
            <g id="Group-71" transform="translate(0.456572, 0.033964)">
                <mask id="mask-2" fill="white">
                    <use xlink:href="#path-1"></use>
                </mask>
                <g id="Clip-70"></g>
                <path d="M5.10063686,0.247898748 C10.1342738,-2.17364461 15.1426491,13.9430963 15.1426491,13.9430963 C23.6986237,25.3139658 35.6550216,10.1870528 34.4853024,27.1842545 C32.4391174,56.9288052 68.5235833,36.5368029 51.8762268,67.5904452 C35.2288704,98.6429828 66.5751496,85.148844 56.2299988,110.188398 C45.8859463,135.226847 59.2932354,165.089602 43.7277319,152.818387 C43.7277319,152.818387 30.0216976,122.588865 15.8873155,113.235212 C1.75293332,103.881559 24.3554238,92.7824502 19.9335556,80.0803947 C13.5094355,61.6282785 -1.96710338,62.3529739 9.19190841,42.5243782 C20.3509202,22.6957825 -12.010214,8.47805297 5.10063686,0.247898748" id="Fill-69" fill="#2E939C" mask="url(#mask-2)"></path>
            </g>
            <path d="M49.4812766,141.361421 C42.6983843,136.579958 34.7618261,103.263533 34.2882159,83.4206295 C34.0464429,73.2557337 31.0480159,69.0220202 28.4039685,65.285154 C25.8758397,61.7142724 23.6921546,58.6291723 24.9639469,51.54827 C27.3949249,38.0127806 21.0039477,32.1712299 20.9388125,32.1136886 L21.6784834,31.2693803 C21.9633119,31.5172507 28.6181419,37.5435975 26.0679333,51.7474515 C24.880044,58.363597 26.8385158,61.1311132 29.3180692,64.6344945 C31.9201651,68.3104997 35.1592612,72.8861413 35.4098661,83.3940719 C35.9176999,104.689894 44.0319998,136.145079 50.1260047,140.44076 L49.4812766,141.361421" id="Fill-72" fill="#FFFFFF"></path>
            <g id="Group-75" transform="translate(42.957221, 76.842365)">
                <mask id="mask-4" fill="white">
                    <use xlink:href="#path-3"></use>
                </mask>
                <g id="Clip-74"></g>
                <path d="M41.8266411,3.61215694 C40.5779107,4.29209542 39.5319467,5.3815423 38.3219968,6.64428518 C35.2971219,9.8000386 31.5320946,13.7284494 21.9943209,13.7726012 C17.2453782,13.7946771 14.5861476,14.4116992 13.3706576,15.7715762 C12.0410423,17.2594935 12.3313417,19.8379615 12.7324423,23.4054309 C12.88424,24.7531661 13.055982,26.2797163 13.1612432,27.9398258 C13.8061066,38.1477333 7.93474706,45.2793608 7.68433618,45.5773857 C4.26833287,49.6294217 0.399152342,57.6937569 2.01574295,62.2987948 C2.64509419,64.0913599 4.08218673,65.2249586 6.28934813,65.6686847 C13.9878207,67.2184146 16.1129892,62.4202124 19.6353617,54.4717758 C20.2813331,53.0114533 20.9483568,51.5047715 21.7073456,49.9097859 C25.7859405,41.3299779 29.5919643,39.8431643 35.3525226,37.59142 C36.7353225,37.0494561 38.3020525,36.437953 40.0128242,35.6719184 C47.293576,32.4124081 45.9794729,27.9376182 44.5889169,23.1979172 C44.3894746,22.5190825 44.1922483,21.844663 44.0193983,21.1757625 C43.1429602,17.7650322 44.8714601,16.0088924 47.0597853,13.784743 C48.6331634,12.1853422 50.4159559,10.371805 51.8264562,7.43460328 C52.5655007,5.89591134 53.1760157,3.80421749 51.8829648,2.58452266 C50.1821652,0.977395347 45.8586995,1.42001763 41.8266411,3.61215694 Z M8.94414668,67.0793363 C8.06660058,67.0793363 7.11149359,66.9788908 6.06663756,66.7680657 C3.44286337,66.2404511 1.72322758,64.8618096 0.954266731,62.6696703 C-0.880602385,57.4420914 3.36973453,48.950587 6.82008623,44.8577106 C6.8777029,44.7892752 12.6537734,37.7569895 12.0377183,28.0104688 C11.9335651,26.3768504 11.7640391,24.8646495 11.6133494,23.5301599 C11.1801164,19.6734959 10.8665488,16.8875142 12.5296759,15.0254099 C13.9944688,13.3851687 16.8243334,12.6754278 21.9887808,12.6511443 C31.047893,12.6092 34.6300983,8.87284977 37.5076074,5.86942023 C38.7297454,4.59343179 39.8842947,3.3902939 41.2870389,2.62757071 C45.8021908,0.1716241 50.5832659,-0.18821347 52.6574657,1.76992104 C53.6424891,2.70042126 54.4734986,4.52168504 52.8413958,7.91916983 C51.3522267,11.0241486 49.4176364,12.9911135 47.8630946,14.5684383 C45.7733825,16.6943498 44.3905826,18.0994824 45.1096829,20.8976059 C45.2792088,21.5532608 45.4742191,22.2177462 45.6692293,22.8833353 C47.0664334,27.6418008 48.6486756,33.0349492 40.4737575,36.6940337 C38.7386095,37.4711062 37.1585834,38.0892321 35.7635953,38.6345075 C30.0573296,40.8652796 26.613626,42.2130148 22.7245013,50.3877297 C21.9721606,51.9716773 21.307353,53.4706326 20.6647056,54.9221246 C17.5999423,61.8440308 15.2797636,67.0793363 8.94414668,67.0793363 L8.94414668,67.0793363 Z" id="Fill-73" fill="url(#linearGradient-5)" mask="url(#mask-4)"></path>
            </g>
            <g id="Group-78" transform="translate(48.077781, 86.059373)">
                <mask id="mask-7" fill="white">
                    <use xlink:href="#path-6"></use>
                </mask>
                <g id="Clip-77"></g>
                <path d="M1.12264819,65.0311123 L0,64.9722151 C0.0553574056,63.9131776 1.47250699,38.9441172 11.4600901,31.6364248 C22.417535,23.619744 25.8729442,15.0052015 27.5181663,9.22216749 C29.4567827,2.4067664 39.3247938,0.586510897 39.7444029,0.512056002 L39.9403682,1.6233231 C39.8440463,1.64110337 30.3447155,3.39801665 28.59985,9.53221101 C26.9081277,15.4752674 23.3608252,24.3265098 12.1232718,32.5487751 C2.56304788,39.5430902 1.13704111,64.7766321 1.12264819,65.0311123" id="Fill-76" fill="url(#linearGradient-8)" mask="url(#mask-7)"></path>
            </g>
            <g id="Group-81" transform="translate(33.228157, 24.612652)">
                <mask id="mask-10" fill="white">
                    <use xlink:href="#path-9"></use>
                </mask>
                <g id="Clip-80"></g>
                <path d="M38.4515149,0.285316256 C31.339762,-2.15237296 32.8171255,11.5470192 29.8113784,21.6846581 C26.8067405,31.8211884 -3.61896214,26.1055333 9.15269015,51.4889839 C21.9243424,76.8713259 -6.99959577,59.9771086 1.64054069,82.1269351 C10.279568,104.27787 2.3914229,127.967465 11.7824416,121.941417 C21.1723511,115.916478 17.0574722,88.0243915 26.8244866,84.7087351 C36.5903918,81.3941872 38.1842141,77.5286927 28.5136943,68.5184435 C18.8442835,59.5081943 53.8518095,50.5633493 45.2127821,32.3699179 C36.5737548,14.1764866 46.667963,3.10101913 38.4515149,0.285316256" id="Fill-79" fill="#035AA6" mask="url(#mask-10)"></path>
            </g>
            <path d="M49.4994441,145.457869 C48.5900245,141.653818 40.819339,108.180171 48.0698727,104.134823 C54.4595042,100.567622 54.3026688,86.6991262 53.3052409,73.6001143 C52.4229008,62.0067104 67.5332567,56.5869664 68.1763946,56.3601244 L68.5600207,57.4253921 C68.4099552,57.4787667 53.6313231,62.7850897 54.4482211,73.5156046 C55.4716002,86.9659991 55.5821747,101.241476 48.635157,105.117805 C43.1289939,108.191291 48.1973719,135.090968 50.6153448,145.19878 L49.4994441,145.457869" id="Fill-82" fill="#FFFFFF"></path>
            <polygon id="Fill-92" fill="#E2D2CA" points="97.2351569 85.5473166 128.982629 85.5473166 128.982629 83.4990926 97.2351569 83.4990926"></polygon>
            <polygon id="Fill-93" fill="#706865" points="101.331605 176.181229 104.403941 176.181229 104.403941 90.1558206 101.331605 90.1558206"></polygon>
            <polygon id="Fill-94" fill="#CCBDB7" points="124.374125 86.0593726 145.880477 86.0593726 145.880477 83.4990926 124.374125 83.4990926"></polygon>
            <polygon id="Fill-95" fill="#998E89" points="131.030853 85.5473166 139.223749 85.5473166 139.223749 72.7459165 131.030853 72.7459165"></polygon>
            <polygon id="Fill-96" fill="#B59074" points="85.9699248 90.1558206 208.351309 90.1558206 208.351309 85.5473166 85.9699248 85.5473166"></polygon>
            <path d="M62.153694,55.8222444 C62.153694,55.8222444 60.809721,74.5347446 64.4920963,76.7742696 C66.7984203,78.1768559 75.9960625,82.9096236 75.7228433,83.7970862 C75.4496241,84.6834505 70.5294663,91.6919886 70.5294663,91.6919886 C70.5294663,91.6919886 52.8642414,80.1395981 52.2945738,76.4996834 C51.7370739,72.943243 53.1640082,49.1014726 55.5920087,48.0031278 C57.4105203,47.1815659 58.370659,47.8614413 60.662603,49.551794 C63.8792889,51.922022 62.153694,55.8222444 62.153694,55.8222444" id="Fill-97" fill="#D44C2D"></path>
            <path d="M84.4337568,164.851559 C84.4337568,164.851559 83.8498952,168.319521 83.7769126,168.840671 C83.7039299,169.360815 77.2732128,168.533816 77.2732128,168.533816 L76.7529168,164.404859 C76.7529168,164.404859 83.6309472,164.362603 84.4337568,164.851559" id="Fill-98" fill="#424773"></path>
            <path d="M83.4806083,168.253554 C83.4806083,168.253554 85.4312494,170.617777 87.317658,171.649066 C89.2040666,172.679216 92.167779,173.087861 93.283397,174.154437 C94.0879942,174.925057 96.2166835,178.239751 88.3814392,178.172592 C80.5473218,178.106571 76.7699971,178.641566 75.9304664,177.370099 C75.0909357,176.098632 77.1441235,167.988333 77.1441235,167.988333 C77.1441235,167.988333 79.0001062,168.662199 83.4806083,168.253554" id="Fill-99" fill="#292C47"></path>
            <path d="M122.325901,164.851434 C122.325901,164.851434 121.779865,168.317429 121.711748,168.840446 C121.64363,169.361451 115.641628,168.53267 115.641628,168.53267 L115.157117,164.404858 C115.157117,164.404858 121.575513,164.362615 122.325901,164.851434" id="Fill-100" fill="#424773"></path>
            <path d="M122.204345,168.254539 C122.204345,168.254539 124.106659,170.62754 125.946332,171.661515 C127.787104,172.69549 134.55565,173.545521 135.643629,174.617199 C136.428292,175.390681 137.734965,178.500603 126.984857,178.210405 C119.347027,178.00361 115.659988,178.681121 114.841257,177.40379 C114.023624,176.128745 116.025944,167.988333 116.025944,167.988333 C116.025944,167.988333 117.730444,168.710402 122.204345,168.254539" id="Fill-101" fill="#292C47"></path>
            <path d="M64.3560558,98.8607726 C64.3560558,98.8607726 86.5156053,102.611781 91.5196625,103.397707 C96.5237197,104.184749 123.660549,110.941029 127.054605,112.999618 C129.754676,114.638452 125.637626,153.996131 124.675865,169.012445 L113.987154,169.012445 L113.21172,123.967969 C100.386383,124.288368 91.2340352,120.967162 81.8931284,122.38607 C72.5533374,123.806095 64.7666451,125.822262 58.8320676,117.858067 C58.8320676,117.858067 58.6122685,100.60008 64.3560558,98.8607726" id="Fill-102" fill="#292C47"></path>
            <path d="M85.8004213,167.988333 L75.6009948,167.351711 L74.6067282,123.510738 C69.1994479,123.647315 67.3463973,123.301468 62.9705319,122.767279 L54.7345087,103.469277 C61.9522282,104.923153 85.0771197,110.804742 88.1615312,112.689274 C90.8056246,114.306161 86.7433356,153.172014 85.8004213,167.988333" id="Fill-103" fill="#292C47"></path>
            <path d="M74.4824584,16.7972911 C74.4824584,16.7972911 82.3582916,14.6143965 85.3625758,20.7464641 C88.3679419,26.8796166 87.0058987,38.5025537 83.0366086,39.5950859 C79.0662366,40.689788 73.3584212,39.4301753 71.7107709,35.6133647 C70.0620388,31.797639 68.7486787,26.3751206 69.1424704,22.8642624 C69.5373439,19.3512343 72.3912516,17.6359479 74.4824584,16.7972911" id="Fill-104" fill="#EEA886"></path>
            <path d="M81.4191797,38.6791624 C81.4191797,38.6791624 81.3304109,43.3318293 81.8563662,44.3234168 C82.3823216,45.3160867 70.6082447,45.0671074 70.6082447,45.0671074 C70.6082447,45.0671074 72.4635135,39.481309 71.4104931,34.7193076 C70.3685689,30.0092672 81.4191797,38.6791624 81.4191797,38.6791624" id="Fill-105" fill="#EEA886"></path>
            <path d="M70.6343105,32.7369289 C70.6343105,32.7369289 71.2763476,34.0130471 74.3802807,33.8071859 C77.485344,33.6024315 81.5805915,29.9334534 82.8985762,29.6058463 C84.2165608,29.2782392 84.2945548,28.5433368 84.2945548,28.5433368 L84.9931093,29.758582 L86.3427437,29.9589093 C86.3427437,29.9589093 85.4249019,26.2821837 87.4244858,24.9894638 C89.4240698,23.6945304 86.5247296,13.2708695 76.4002109,15.7854753 C76.4002109,15.7854753 68.6742887,17.1711648 68.5702967,21.39464 C68.4674351,25.6203289 69.1354703,30.4990183 70.6343105,32.7369289" id="Fill-106" fill="#3A3F47"></path>
            <path d="M82.3855328,43.8310578 C82.3855328,43.8310578 82.3531807,42.0764733 81.4674019,41.9080332 C80.5816231,41.739593 72.1622622,40.6988737 71.0745615,41.0828771 L70.6082447,43.3999314 C70.6082447,43.3999314 72.702208,44.5579572 82.3855328,43.8310578" id="Fill-107" fill="#E2D2CA"></path>
            <path d="M84.8382475,27.6521286 C84.606144,26.1637048 82.7504535,24.4553886 81.6866456,26.7725583 C80.6239755,29.0918025 82.4045737,32.4679831 83.5980865,32.286468 C84.7904615,32.104953 85.1522699,29.6716136 84.8382475,27.6521286" id="Fill-108" fill="#EEA886"></path>
            <polyline id="Fill-109" fill="#323657" points="117.21251 67.1133005 117.198172 67.1133005 117.21251 67.1133005"></polyline>
            <path d="M72.1444128,17.4453631 C72.1444128,17.4453631 62.9464453,16.9835686 70.5394053,32.2934924 L72.1444128,17.4453631" id="Fill-110" fill="#3A3F47"></path>
            <polyline id="Fill-111" fill="#918783" points="50.1260047 173.599692 50.8607506 175.669173 81.8734768 166.036114 80.3873114 161.843661 50.1260047 173.599692"></polyline>
            <polygon id="Fill-112" fill="#918783" points="79.3131968 164.915997 82.8975888 164.915997 82.8975888 131.120301 79.3131968 131.120301"></polygon>
            <polygon id="Fill-113" fill="#5E5854" points="71.1203008 131.120301 92.1145968 131.120301 92.1145968 129.072077 71.1203008 129.072077"></polygon>
            <polyline id="Fill-114" fill="#918783" points="112.596837 173.638325 111.863203 175.669173 80.8493648 166.215944 82.2121462 161.843661 112.596837 173.638325"></polyline>
            <polyline id="Fill-115" fill="#918783" points="91.0904848 175.292906 91.0904848 177.717397 80.8493648 165.817082 82.2594741 161.331605 91.0904848 175.292906"></polyline>
            <path d="M115.157117,176.437797 C115.157117,177.993112 113.780899,179.253565 112.084192,179.253565 C110.387485,179.253565 109.012445,177.993112 109.012445,176.437797 C109.012445,174.882482 110.387485,173.620949 112.084192,173.620949 C113.780899,173.620949 115.157117,174.882482 115.157117,176.437797" id="Fill-116" fill="#BFB2AC"></path>
            <path d="M91.0904848,176.437797 C91.0904848,177.993112 89.7142668,179.253565 88.0175597,179.253565 C86.3208525,179.253565 84.9458128,177.993112 84.9458128,176.437797 C84.9458128,174.882482 86.3208525,173.620949 88.0175597,173.620949 C89.7142668,173.620949 91.0904848,174.882482 91.0904848,176.437797" id="Fill-117" fill="#BFB2AC"></path>
            <path d="M53.1983407,176.437797 C53.1983407,177.993112 51.9376458,179.253565 50.3820327,179.253565 C48.8264195,179.253565 47.5657247,177.993112 47.5657247,176.437797 C47.5657247,174.882482 48.8264195,173.620949 50.3820327,173.620949 C51.9376458,173.620949 53.1983407,174.882482 53.1983407,176.437797" id="Fill-118" fill="#BFB2AC"></path>
            <path d="M102.231479,129.072077 L60.4902534,129.072077 C58.442353,129.072077 56.7827327,127.373669 56.7827327,125.279307 L56.7827327,125.181737 C56.7827327,123.088509 58.442353,121.391237 60.4902534,121.391237 L102.231479,121.391237 C104.279379,121.391237 105.940109,123.088509 105.940109,125.181737 L105.940109,125.279307 C105.940109,127.373669 104.279379,129.072077 102.231479,129.072077" id="Fill-119" fill="#E2D2CA"></path>
            <polygon id="Fill-120" fill="#706865" points="189.917293 176.181229 192.477573 176.181229 192.477573 90.1558206 189.917293 90.1558206"></polygon>
            <path d="M164.826549,68.5887892 C164.826549,69.417642 164.155229,70.0891885 163.326241,70.0891885 C162.498485,70.0891885 161.826549,69.417642 161.826549,68.5887892 C161.826549,67.7599364 162.498485,67.0891885 163.326241,67.0891885 C164.155229,67.0891885 164.826549,67.7599364 164.826549,68.5887892" id="Fill-123" fill="#918681"></path>
            <path d="M149.976925,86.0593726 L149.976925,85.1372236 C149.976925,85.1372236 148.714163,79.4026445 139.783147,79.4026445 C130.851041,79.4026445 131.031124,86.0593726 131.031124,86.0593726 L149.976925,86.0593726" id="Fill-124" fill="#998E89"></path>
            <path d="M130.945718,79.8724373 C130.945718,79.8724373 132.876848,79.7193657 133.585001,79.2802627 C134.292069,78.8400424 138.523611,75.912689 139.518502,76.3808421 C140.512306,76.8501125 147.128979,78.9350138 146.898721,79.9294201 C146.668462,80.9238264 146.056974,80.828855 145.58994,80.6534373 C145.123993,80.4769022 140.320062,79.4400381 139.895387,79.6143386 C139.895387,79.6143386 144.6146,81.3852756 144.633064,82.6768865 C144.652614,83.9696147 143.645777,84.2846962 143.198293,84.7729609 C142.751896,85.2623429 142.213178,86.4746247 140.997804,86.5684788 C139.781344,86.6612156 133.847843,84.5372084 132.625953,84.4411197 C131.404062,84.3439137 129.143836,84.5182141 128.990693,84.312629 C128.836463,84.1092785 130.945718,79.8724373 130.945718,79.8724373" id="Fill-125" fill="#EEA886"></path>
            <path d="M94.9613186,47.2061402 C88.7294915,46.1130991 82.1689211,44.5426756 82.1689211,44.5426756 L70.5617582,44.0707804 C70.5617582,44.0707804 59.90894,46.4105029 55.7144409,48.3024736 C55.3164308,48.4824522 55.3142319,57.7886654 54.2224527,60.228254 L57.7000937,67.5525072 C57.7000937,67.5525072 59.7099349,82.0605423 60.1266362,88.5134354 C60.3179449,91.4764985 59.5856942,117.142113 59.5856942,117.142113 C59.5856942,117.142113 60.627997,117.654613 68.549718,118.52707 C76.471439,119.39843 96.2641971,118.212108 96.3884379,117.278194 C96.5137781,116.345378 92.5556662,82.5050018 92.3797502,80.7513073 C92.1114781,78.0615045 93.1581788,65.6341981 93.1581788,65.6341981 C94.6512666,67.6348145 98.4565513,76.6721571 102.422359,80.9707935 C104.755446,83.5014689 116.307636,85.0521386 118.484597,85.1234716 C123.224436,85.2825991 131.870711,86.2230973 132.123591,85.7632738 C132.325894,85.4878187 132.876732,78.1032068 132.33579,77.9221308 C131.860816,77.7651981 115.805175,76.8422588 111.690938,74.6638587 C110.186855,73.867124 105.686702,64.0758464 105.686702,64.0758464 C105.686702,64.0758464 98.3993786,48.7480305 94.9613186,47.2061402" id="Fill-126" fill="#DE5632"></path>
            <path d="M71.7031377,116.782733 L52.1034477,116.782733 C48.1828461,116.782733 45.0054446,113.619595 45.0054446,109.716595 L45.0054446,77.2517746 C45.0054446,73.3498747 48.1828461,70.1856365 52.1034477,70.1856365 L71.7031377,70.1856365 C75.6237393,70.1856365 78.8011408,73.3498747 78.8011408,77.2517746 L78.8011408,109.716595 C78.8011408,113.619595 75.6237393,116.782733 71.7031377,116.782733" id="Fill-127" fill="#E2D2CA"></path>
            <path d="M72.8283828,127.535909 C67.8561615,127.535909 63.8243026,125.870068 60.8409698,122.587901 C54.0983948,115.166439 55.3102703,102.12249 55.3643522,101.570144 C55.4669974,100.542472 56.3874929,99.7909738 57.417256,99.8944012 C58.4481227,99.9945276 59.2008541,100.90997 59.0993127,101.938742 C59.0849644,102.087281 58.0110529,113.911007 63.6289456,120.083639 C65.901488,122.581299 68.9113099,123.792719 72.8283828,123.792719 C73.8647681,123.792719 74.7046928,124.631141 74.7046928,125.664314 C74.7046928,126.697487 73.8647681,127.535909 72.8283828,127.535909" id="Fill-128" fill="#E2D2CA"></path>
            <path d="M125.384784,29.7332123 L106.977674,29.7332123 C106.687435,29.7332123 106.452165,29.4491792 106.452165,29.1001104 L106.452165,27.8086887 C106.452165,27.4569655 106.687435,27.1729323 106.977674,27.1729323 L125.384784,27.1729323 C125.675023,27.1729323 125.910293,27.4569655 125.910293,27.8086887 L125.910293,29.1001104 C125.910293,29.4491792 125.675023,29.7332123 125.384784,29.7332123" id="Fill-129" fill="#DFE1E8"></path>
            <path d="M125.384784,33.8296604 L106.977674,33.8296604 C106.687435,33.8296604 106.452165,33.6012536 106.452165,33.3207914 L106.452165,32.2892429 C106.452165,32.0087807 106.687435,31.7814363 106.977674,31.7814363 L125.384784,31.7814363 C125.675023,31.7814363 125.910293,32.0087807 125.910293,32.2892429 L125.910293,33.3207914 C125.910293,33.6012536 125.675023,33.8296604 125.384784,33.8296604" id="Fill-130" fill="#DFE1E8"></path>
            <path d="M124.142472,60.9686285 L108.218887,60.9686285 C107.243727,60.9686285 106.452165,60.1908576 106.452165,59.2337672 L106.452165,39.1499938 C106.452165,38.1918233 107.243727,37.4140524 108.218887,37.4140524 L124.142472,37.4140524 C125.118731,37.4140524 125.910293,38.1918233 125.910293,39.1499938 L125.910293,59.2337672 C125.910293,60.1908576 125.118731,60.9686285 124.142472,60.9686285" id="Fill-131" fill="#DFE1E8"></path>
            <g id="Group-2" transform="translate(25.547317, 145.457869)">
                <g id="Group-82">
                    <mask id="mask-12" fill="white">
                        <use xlink:href="#path-11"></use>
                    </mask>
                    <g id="Clip-81"></g>
                    <polygon id="Fill-80" fill="#ED9208" mask="url(#mask-12)" points="0.0548827268 0.276546175 9.89707486 37.8183542 31.8934766 37.8183542 41.7359994 0.276546175"></polygon>
                </g>
            </g>
        </g>
    </g>
</svg>