<?xml version="1.0" encoding="UTF-8"?>
<svg width="500px" height="500px" viewBox="0 0 500 500" version="1.1" xmlns="http://www.w3.org/2000/svg" xmlns:xlink="http://www.w3.org/1999/xlink">
    <!-- Generator: Sketch 59.1 (86144) - https://sketch.com -->
    <title>How_RPA_Works</title>
    <desc>Created with Sketch.</desc>
    <defs>
        <filter x="-9.8%" y="-35.6%" width="102.8%" height="171.2%" filterUnits="objectBoundingBox" id="filter-1">
            <feGaussianBlur stdDeviation="7" in="SourceGraphic"></feGaussianBlur>
        </filter>
    </defs>
    <g id="How_RPA_Works" stroke="none" stroke-width="1" fill="none" fill-rule="evenodd">
        <polygon id="Rectangle" stroke="#2E80AF" opacity="0.2" points="206.24981 160 400.598206 160 293.75019 380 99.4017942 380"></polygon>
        <polygon id="Rectangle-Copy-6" stroke="#2E80AF" opacity="0.1" points="135.882233 77 201.253966 77 165.314179 151 99.9424456 151"></polygon>
        <polygon id="Rectangle-Copy-4" fill="#2E939C" opacity="0.2" points="349.135222 232 414.506955 232 378.567168 306 313.195435 306"></polygon>
        <polygon id="Rectangle-Copy-5" fill="#2E939C" opacity="0.2" points="394.334932 343 467.215581 343 427.147575 425.5 354.266926 425.5"></polygon>
        <g id="Group-8" transform="translate(203.820420, 404.000000)">
            <polygon id="Rectangle" fill="#2E939C" opacity="0.2" points="41.7678608 0 117.740415 0 75.9725546 86 -3.72660937e-13 86"></polygon>
            <path d="M111.051876,68.7971755 L111.771527,66.4972957 L111.771527,57.4711538 L111.051876,51.9347707 C108.196507,50.4343653 106.592341,49.6165377 106.239376,49.4812878 C105.709929,49.278413 101.514316,48.5162367 101.514316,47.7456484 C101.514316,47.2319229 101.326999,46.2275195 100.952367,44.7324384 L103.471046,40.9501202 C104.409248,40.0911912 104.878348,39.6348865 104.878348,39.581206 C104.878348,39.5006852 104.878348,35.2910325 104.878348,34.7596175 C104.878348,34.4053408 103.757004,32.5146149 101.514316,29.0874399 L97.056188,27.412414 L93.4993662,29.0874399 L92.4773565,29.6006033 C91.9528531,28.6407927 91.6906014,28.1608874 91.6906014,28.1608874 C91.6906014,28.1608874 91.3824259,25.8782919 90.766075,21.313101 L89.4058864,18.5907452 L84.5588058,17.0375601 C81.8640698,17.7994502 80.5167018,18.1803952 80.5167018,18.1803952 C80.5167018,18.1803952 77.3336201,21.9515711 77.3336201,21.9515711 C77.3336201,21.9515711 77.3336201,23.3949977 77.3336201,26.281851 L76.6539121,29.0874399 L74.3917143,28.1608874 L71.0702051,27.3648411 L67.6733897,27.412414 L65.0518758,30.6820913 L64.0169517,34.4221918 L63.2220091,37.2091268 L62.6798806,38.4951965 L64.0169517,40.9501202 L65.0518758,40.9501202 L67.0191234,43.7590144 L67.6733897,46.010009 L67.0191234,47.7456484 L58.8702077,50.0313015 L57.7145867,52.9643771 L56.8502532,59.608774 L56.8502532,67.8012821 L57.7145867,68.7971755 L111.051876,68.7971755 Z" id="Path-6" fill="#FFFFFF"></path>
            <g id="employee" transform="translate(56.058806, 16.500000)" fill="#035AA6" fill-rule="nonzero">
                <path d="M55.6858287,44.8024441 C55.2285325,44.8024441 54.8579935,45.1730936 54.8579935,45.6302794 L54.8579935,51.1616538 C54.8579935,51.2384769 54.7955195,51.3010613 54.718586,51.3010613 L51.5730328,51.3010613 L51.5730328,39.2061674 C51.5730328,38.7489816 51.2024937,38.3783322 50.7451975,38.3783322 C50.2879013,38.3783322 49.9173623,38.7489816 49.9173623,39.2061674 L49.9173623,51.3011717 L43.8388439,51.3011717 L45.4840285,49.491303 C45.7381187,49.2117155 45.8578789,48.8146857 45.8045663,48.4291352 C45.8033522,48.4208569 45.802138,48.4126889 45.8007031,48.4044105 L43.9513191,37.4774267 L44.2916146,36.9651622 L44.3802482,37.0280777 C44.6836774,37.243646 45.0706628,37.3222351 45.4450651,37.2287449 C45.8127343,37.1368 46.1207994,36.8894429 46.2901193,36.5503615 L46.2901193,36.5502512 L48.1719544,32.7785234 L52.4706269,34.4433552 C52.640278,34.5170878 54.8575519,35.5337798 54.8575519,38.1790998 L54.8575519,41.7668274 C54.8576623,42.2241236 55.2282014,42.5947731 55.6854976,42.5947731 C56.1427938,42.5947731 56.5137743,42.2241236 56.5137743,41.7669378 L56.5137743,38.1792102 C56.5137743,34.3590264 53.2367609,32.9681528 53.0973534,32.9107562 C53.0920553,32.9085487 53.0868675,32.9064515 53.0815694,32.9044647 L45.7616293,30.0695153 L45.7616293,28.5617513 C46.9042627,27.642523 47.706711,26.3176555 47.9476662,24.8073528 C48.517548,24.7358279 49.0462588,24.5076765 49.4850115,24.130294 C50.1141663,23.5892209 50.4752128,22.8018943 50.4752128,21.9704166 C50.4752128,21.3067135 50.2448539,20.6715983 49.8323712,20.1671707 L49.8323712,17.93334 C49.8323712,13.5617076 46.2757701,10.0052169 41.9043585,10.0052169 C39.9417266,10.0052169 38.1447722,10.7235572 36.7587553,11.909238 C36.740874,11.2748955 36.5138264,10.6704653 36.1181212,10.186568 L36.1181212,7.95284775 C36.1181212,3.58121532 32.5615201,0.0247246797 28.1901085,0.0247246797 C23.818476,0.0247246797 20.2619854,3.5813257 20.2619854,7.95284775 L20.2619854,10.2448476 C19.8640726,10.7203562 19.6414401,11.2936597 19.6217928,11.9021738 C18.737444,11.1464154 17.679029,10.5774167 16.499419,10.2668129 C16.0565823,10.1502537 15.6043635,10.4143883 15.4879146,10.8565627 C15.3714658,11.2987371 15.6354901,11.7516182 16.0776645,11.868067 C18.8275125,12.5921469 20.7480903,15.0863594 20.7480903,17.9332296 L20.7480903,19.17134 C20.7123278,19.1639447 20.5975346,19.144187 20.5931195,19.1435248 C20.5818609,18.9098545 20.5226983,18.7671357 20.3953221,18.5839081 C20.1833962,18.2793751 19.8028128,17.9000058 18.5787204,16.5842997 C18.1425064,16.1157449 17.43697,16.0297604 16.9014158,16.3798795 C14.804785,17.7494502 12.2575911,18.4474809 9.89373511,18.3087357 C9.12373794,18.2635911 8.64282085,18.6018998 8.43784884,19.1563286 C8.41952608,19.1593088 8.21477483,19.2005902 8.20340589,19.2033497 L8.20340589,17.9332296 C8.20340589,15.1882383 10.0376681,12.7187505 12.6638926,11.9276711 C13.1016519,11.7958798 13.3496714,11.3340581 13.21788,10.8961884 C13.0859782,10.4583188 12.6234943,10.2102993 12.1862869,10.3423114 C10.5891167,10.8233389 9.15342963,11.8249092 8.14402251,13.1622495 C7.09951517,14.5457277 6.54751462,16.1955482 6.54751462,17.93334 L6.54751462,20.2254503 C6.13050641,20.7236967 5.90500408,21.3292306 5.90500408,21.9704166 C5.90500408,23.3876706 6.94918029,24.6236838 8.43685543,24.8080151 C8.68057013,26.2829968 9.48081088,27.6974913 10.7437564,28.6592151 L10.7437564,30.0699568 L3.43198422,32.9046854 C3.42679645,32.9066722 3.42160869,32.9087694 3.41642092,32.9108666 C3.27668233,32.9681528 0,34.358916 0,38.1790998 L0,51.1616538 C0,52.1516344 0.805318139,52.9568422 1.79529873,52.9568422 L27.2894237,52.9568422 C27.645724,52.9568422 27.9771892,52.8512104 28.2568872,52.671515 C28.5363644,52.8512104 28.86794,52.9568422 29.2243506,52.9568422 L54.718586,52.9568422 C55.7084562,52.9568422 56.5137743,52.1516344 56.5137743,51.1616538 L56.5137743,45.6302794 C56.5137743,45.1730936 56.1431249,44.8024441 55.6858287,44.8024441 Z M8.35583796,23.0974867 C7.87050574,22.9213234 7.56045384,22.4724159 7.56045384,21.9701958 C7.56045384,21.4830976 7.91366355,21.0828668 8.35583796,20.8929062 L8.35583796,23.0974867 Z M46.6213638,32.1779565 L44.9963784,35.4347707 C44.9961576,35.43455 43.1913664,34.1527299 43.1657587,34.1345175 C43.9443653,33.1733456 43.5785725,33.6249021 45.1975975,31.6266182 L46.6213638,32.1779565 Z M41.96904,32.9812878 L39.8280373,30.3385065 L39.8280373,29.5443366 C40.5239708,29.7849607 41.2736584,29.896001 41.9793052,29.8962217 C41.9794155,29.8962217 41.9796363,29.8962217 41.9797467,29.8962217 L41.9798571,29.8962217 C42.7094559,29.8961114 43.4481057,29.7575869 44.1059587,29.510009 L44.1059587,30.3435839 L41.96904,32.9812878 Z M42.941029,36.0059771 L42.636496,36.4643771 L41.3019152,36.4643771 L40.9973822,36.0059771 L41.9692608,35.3157832 L42.941029,36.0059771 Z M28.2546796,23.0006852 L26.1136769,20.3579039 L26.1136769,19.5637339 C26.8068509,19.8033647 27.5557659,19.9153984 28.2649448,19.9156191 C28.2650551,19.9156191 28.2652759,19.9156191 28.2653863,19.9156191 L28.2654967,19.9156191 C28.9937709,19.9156191 29.7323104,19.7775362 30.3915984,19.5295168 L30.3915984,20.3629813 L28.2546796,23.0006852 Z M29.2265582,26.0255952 L28.9220252,26.4839952 L27.5874444,26.4839952 L27.2829114,26.0255952 L28.25479,25.3354014 L29.2265582,26.0255952 Z M21.7354218,14.7480507 C21.8707452,14.7849169 22.0098216,14.8099728 22.1509951,14.8274125 C22.3947098,16.3023942 23.1949505,17.7168887 24.457896,18.6786125 L24.457896,20.0893541 L22.7690017,20.7440063 C22.6710964,20.538372 22.5486871,20.3446585 22.4034296,20.1670603 L22.4034296,17.93334 C22.4034296,16.8099124 22.1667791,15.7299737 21.7354218,14.7480507 Z M32.6537962,13.8714283 C32.6537962,16.2945573 30.6771463,18.2596175 28.2654967,18.2596175 C25.5445677,18.2596175 23.7262,16.1508451 23.7262,13.8714283 L23.7262,9.99362723 C26.340283,10.0982656 29.0559138,9.32352218 31.2761679,7.94158919 C32.0226546,8.7420507 32.4668158,9.20707336 32.6539065,9.42297279 C32.6537962,11.4840618 32.6537962,12.2798875 32.6537962,13.8714283 Z M34.2334162,14.8268606 C34.3738171,14.8092001 34.5122311,14.7840339 34.646782,14.747278 C34.2167491,15.7230199 33.976125,16.8003095 33.976125,17.93334 L33.976125,20.2253399 C33.8488591,20.3773304 33.7393641,20.539255 33.6487438,20.7091268 L32.0473793,20.089023 L32.0473793,18.5812591 C33.1899023,17.6619204 33.992461,16.3370529 34.2334162,14.8268606 Z M25.0232523,21.6473401 L27.0555326,24.1557913 L25.669626,25.1401426 C25.6688534,25.1406945 25.6683015,25.1412464 25.6675289,25.1417983 L25.2276724,25.4542785 L23.6025766,22.1975746 L25.0232523,21.6473401 Z M30.1600252,23.279169 L31.4831267,21.6460156 L32.906893,22.1973538 L31.282018,25.4542785 L30.8411681,25.1412464 C30.8407266,25.1409153 30.8402851,25.1404738 30.8398436,25.1401426 L29.4513983,24.1539149 L30.1600252,23.279169 Z M30.5772542,26.9846699 L30.6658878,27.0475854 C30.9753878,27.2674585 31.3638081,27.3400872 31.7307047,27.2482527 C32.0983739,27.1563078 32.406439,26.9089506 32.5757589,26.5698693 L32.5757589,26.5697589 L33.9729241,23.7695786 C34.4529581,24.3612048 35.147236,24.7210372 35.8622649,24.8103331 C36.1148098,26.3931541 36.97035,27.7439604 38.1723668,28.6592151 L38.1723668,30.0698464 L31.1342218,32.7985018 L30.2368484,27.4970448 L30.5772542,26.9846699 Z M38.7376127,31.6278323 L40.769893,34.1362836 C39.8813499,34.7675355 38.9880604,35.4020988 38.9420328,35.4347707 L37.316937,32.1780668 L38.7376127,31.6278323 Z M46.3680462,23.852031 C46.3682669,26.2159973 44.4484618,28.2402201 41.9798571,28.2402201 C39.1661002,28.2402201 37.4405604,26.0364123 37.4405604,23.852031 L37.4405604,19.9742299 C40.0359895,20.0778748 42.7551524,19.3133966 44.9904179,17.9221918 C45.7369046,18.7226533 46.1810658,19.187676 46.3681566,19.4035754 C46.3680462,21.4645541 46.3680462,22.2604901 46.3680462,23.852031 Z M48.8195423,21.9703062 C48.8195423,22.4734093 48.508497,22.9214337 48.0241582,23.0974867 L48.0241582,20.8454437 C48.524833,21.0277882 48.8195423,21.4853051 48.8195423,21.9703062 Z M35.6317955,17.9332296 C35.6317955,14.4746443 38.4457731,11.6608874 41.9042481,11.6608874 C45.3628334,11.6608874 48.1764799,14.4747547 48.1764799,17.9332296 L48.1764799,19.17134 C48.138841,19.1635032 48.0353064,19.1456219 48.0215091,19.1435248 C48.0102506,18.9096337 47.9507568,18.7665838 47.8237117,18.5839081 C47.6061566,18.2714279 47.2297675,17.8985709 46.00711,16.5842997 C45.5801678,16.1260101 44.8761767,16.0228066 44.3298054,16.3798795 C42.2900193,17.7123632 39.712913,18.465031 37.2606442,18.3057555 C36.5717749,18.2606109 36.0727558,18.5979261 35.8662385,19.156439 C35.8478054,19.1594192 35.6433852,19.2007006 35.6317955,19.20346 L35.6317955,17.9332296 L35.6317955,17.9332296 Z M35.7847795,20.8930166 L35.7847795,23.0963829 C35.2980124,22.9208819 34.9893954,22.4707602 34.9893954,21.9701958 C34.989285,21.4830976 35.342274,21.0830876 35.7847795,20.8930166 Z M35.1049612,11.989814 C35.1049612,12.3383878 34.9540744,12.668087 34.6910436,12.8942516 C34.5781268,12.9913843 34.449426,13.0659998 34.3095771,13.1168841 L34.3095771,10.8648411 C34.8046225,11.0445365 35.1049612,11.4996251 35.1049612,11.989814 Z M28.1897773,1.6803952 C31.6483627,1.6803952 34.4621195,4.49415205 34.4621195,7.95273738 L34.4621195,9.19084779 C34.4247014,9.18312132 34.320946,9.1651297 34.3071487,9.16303252 C34.2948968,8.90949418 34.2218265,8.75364039 34.0727058,8.55197972 C33.8510667,8.25197223 33.4424472,7.83948951 32.2927496,6.60369704 C31.8586328,6.1375706 31.1535379,6.0476125 30.615445,6.39927692 C28.4613073,7.80659686 25.8481073,8.49149256 23.4795051,8.32184152 C22.9000204,8.27802144 22.3544218,8.62814057 22.1519885,9.175726 C22.1335553,9.1787062 21.9290248,9.21998759 21.9174351,9.22274704 L21.9174351,7.95284775 L21.9174351,7.95284775 C21.9174351,4.49415205 24.7313024,1.6803952 28.1897773,1.6803952 Z M22.0701983,10.912414 L22.0701983,13.1169945 C21.5848661,12.9408311 21.2748142,12.4919237 21.2748142,11.9897036 C21.2748142,11.5053648 21.6252645,11.1036991 22.0701983,10.912414 Z M20.5951063,20.8454437 C21.0582525,21.0139909 21.3557213,21.4180849 21.3851923,21.8983397 C21.4222793,22.4323487 21.0941254,22.9152526 20.5951063,23.0964933 L20.5951063,20.8454437 Z M20.5183936,24.8101123 C21.2992078,24.7124277 22.0158924,24.3009384 22.485882,23.6679204 L23.9338211,26.5697589 C23.9338211,26.5697589 23.9338211,26.5697589 23.9339315,26.5698693 C24.103141,26.909061 24.4112061,27.1563078 24.7788753,27.2482527 C25.1423502,27.3390938 25.531212,27.2695557 25.8436922,27.0475854 L25.9323258,26.9846699 L26.2726212,27.4969344 L25.375579,32.7969565 L18.3330189,30.0694049 L18.3330189,28.5623032 L18.3329085,28.5623032 C19.5054543,27.6169153 20.2830676,26.2811204 20.5183936,24.8101123 Z M14.5400985,32.9812878 L12.3990957,30.3385065 L12.3990957,29.5443366 C13.0922698,29.7839673 13.8412951,29.896001 14.550474,29.8961114 C14.5505844,29.8961114 14.5508051,29.8961114 14.5509155,29.8961114 C15.2911106,29.8961114 16.0284359,29.7539445 16.6770172,29.510009 L16.6770172,30.3435839 L14.5400985,32.9812878 Z M15.5120874,36.0059771 L15.2075544,36.4643771 L13.8729736,36.4643771 L13.5684406,36.0059771 L14.5403192,35.3157832 L15.5120874,36.0059771 Z M17.7685456,31.6266182 L19.1924222,32.1780668 L17.5674368,35.4347707 L17.1265869,35.1217386 C17.1261454,35.1214075 17.1257039,35.120966 17.1252624,35.1206349 L15.7368171,34.1345175 L17.7685456,31.6266182 Z M10.0116189,23.852031 L10.0116189,19.9742299 C12.6396095,20.0791994 15.3570063,19.2941908 17.5614764,17.9221918 C18.3008989,18.7151476 18.7519035,19.1874552 18.939215,19.4035754 C18.939215,21.4646645 18.939215,22.2606005 18.939215,23.852031 C18.939215,26.259707 16.9761417,28.2402201 14.5509155,28.2402201 C11.8507377,28.2402201 10.0116189,26.1555102 10.0116189,23.852031 Z M11.3087815,31.6278323 L13.3410619,34.1362836 L11.9551553,35.1206349 C11.9543826,35.1211868 11.9538307,35.1217386 11.9530581,35.1222905 L11.5132016,35.4347707 L9.88810583,32.1780668 L11.3087815,31.6278323 Z M6.59652247,51.3012821 L6.59652247,39.2061674 C6.59652247,38.7489816 6.22598341,38.3783322 5.76868721,38.3783322 C5.31139101,38.3783322 4.94085195,38.7489816 4.94085195,39.2061674 L4.94085195,51.3012821 L1.79529873,51.3012821 C1.71825486,51.3012821 1.65578089,51.2385873 1.65578089,51.1617642 L1.65578089,38.1790998 C1.65578089,35.5202033 3.89612386,34.5067122 4.04116059,34.4440175 L8.33718407,32.7785234 L10.2192399,36.5502512 C10.2192399,36.5502512 10.2192399,36.5502512 10.2193503,36.5503615 C10.3885598,36.8895532 10.6966249,37.1368 11.0644045,37.2287449 C11.4278794,37.3195861 11.8167412,37.2500479 12.1292214,37.0280777 L12.217855,36.9651622 L12.5581505,37.4774267 L10.7087665,48.4044105 C10.7073316,48.4125785 10.7061174,48.4208569 10.7049033,48.4291352 C10.6517011,48.8144649 10.7714612,49.2114947 11.0256619,49.4915238 L12.6706257,51.3012821 L6.59652247,51.3012821 L6.59652247,51.3012821 Z M12.3703974,48.5090489 L14.1286092,38.1201579 L14.9519189,38.1201579 L16.710241,48.5090489 L14.5403192,50.8961947 L12.3703974,48.5090489 Z M27.4288312,51.1616538 C27.4288312,51.2385873 27.3663572,51.3011717 27.2894237,51.3011717 L24.1440912,51.3011717 L24.1440912,39.2061674 C24.1440912,38.7489816 23.7735522,38.3783322 23.316256,38.3783322 C22.8589598,38.3783322 22.4884207,38.7489816 22.4884207,39.2061674 L22.4884207,51.3011717 L16.4099024,51.3011717 L18.055087,49.491303 C18.3091772,49.2117155 18.4289374,48.8146857 18.3756248,48.4291352 C18.3744106,48.4208569 18.3731965,48.4126889 18.3717616,48.4044105 L16.5223776,37.4774267 L16.8626731,36.9651622 L16.9513066,37.0280777 C17.1728353,37.1854767 17.4350936,37.267598 17.701215,37.267598 C18.186768,37.267598 18.6389868,36.9955162 18.8612881,36.5503615 L18.8612881,36.5502512 L20.7431232,32.7786337 L25.0417958,34.4434656 C26.2948072,34.9885124 27.4287208,36.3941766 27.4287208,38.1790998 L27.4287208,51.1616538 L27.4288312,51.1616538 Z M28.2567768,35.1708569 C27.9138322,34.6183044 27.4573087,34.1070334 26.9069638,33.670709 L27.8430799,28.1397761 L28.6663897,28.1397761 L29.6029473,33.6735788 C29.0379221,34.1222655 28.587359,34.6381725 28.2567768,35.1708569 Z M34.0253536,51.3012821 L34.0253536,51.3012821 L34.0253536,39.2061674 C34.0253536,38.7489816 33.6548146,38.3783322 33.1975184,38.3783322 C32.7402222,38.3783322 32.3696831,38.7489816 32.3696831,39.2061674 L32.3696831,51.3012821 L29.2242403,51.3012821 C29.1473068,51.3012821 29.0847224,51.2385873 29.0847224,51.1617642 L29.0847224,38.1790998 C29.0847224,37.1949693 29.3933394,36.2885448 30.050751,35.5270468 C30.4890622,35.0242748 31.0704233,34.6172006 31.4702125,34.4440175 L35.766236,32.778413 L37.6482918,36.5502512 C37.6482918,36.5502512 37.6482918,36.5502512 37.6484022,36.5503615 C37.8176118,36.8895532 38.1256768,37.1368 38.4933461,37.2287449 C38.8568209,37.3195861 39.2456828,37.2500479 39.558163,37.0280777 L39.6467965,36.9651622 L39.987092,37.4774267 L38.1377081,48.4044105 C38.1362731,48.4125785 38.135059,48.4208569 38.1338448,48.4291352 C38.0806426,48.8144649 38.2004028,49.2114947 38.4546034,49.4915238 L40.0995672,51.3012821 L34.0253536,51.3012821 L34.0253536,51.3012821 Z M39.7992286,48.5091593 L41.5575507,38.1202683 L42.3808604,38.1202683 L44.1391825,48.5091593 L41.9691504,50.896305 L39.7992286,48.5091593 Z" id="Shape"></path>
            </g>
        </g>
        <polygon id="Rectangle-Copy-3" fill="#2E939C" opacity="0.2" points="419.857163 132.5 479.928485 132.5 446.902735 200.5 386.831413 200.5"></polygon>
        <g id="2" transform="translate(426.000000, 123.500000)" fill="#FFFFFF" stroke="#035AA6" stroke-width="1.5">
            <g id="Group-3">
                <path d="M8.36914062,0.901579683 L43.5,0.901579683 C44.0522847,0.901579683 44.5,1.34929493 44.5,1.90157968 L44.5,59.9015797 C44.5,60.4538644 44.0522847,60.9015797 43.5,60.9015797 L1.5,60.9015797 C0.94771525,60.9015797 0.5,60.4538644 0.5,59.9015797 L0.5,8.58224375 L0.5,8.58224375 L8.36914062,0.901579683 Z" id="Rectangle"></path>
                <rect id="Rectangle" x="7" y="35.5" width="10.2038415" height="4.98886945"></rect>
                <rect id="Rectangle-Copy" x="17.2038415" y="35.5" width="10.2038415" height="4.98886945"></rect>
                <rect id="Rectangle-Copy-2" x="27.4076831" y="35.5" width="10.2038415" height="4.98886945"></rect>
                <polygon id="Triangle" transform="translate(14.781312, 57.810179) scale(1, -1) translate(-14.781312, -57.810179) " points="14.7813125 46.9318957 23.5 58.6884614 19.1377578 58.6884614 19.1377578 68.6884614 9.94342184 68.6884614 9.94342184 58.6884614 6.06262493 58.6884614"></polygon>
            </g>
            <g id="Group-2" transform="translate(7.000000, 13.401580)">
                <rect id="Rectangle" x="0" y="0" width="10.2038415" height="4.98886945"></rect>
                <rect id="Rectangle-Copy" x="10.2038415" y="0" width="10.2038415" height="4.98886945"></rect>
                <rect id="Rectangle-Copy-2" x="20.4076831" y="0" width="10.2038415" height="4.98886945"></rect>
                <rect id="Rectangle" x="0" y="5.52460508" width="10.2038415" height="4.98886945"></rect>
                <rect id="Rectangle-Copy" x="10.2038415" y="5.52460508" width="10.2038415" height="4.98886945"></rect>
                <rect id="Rectangle-Copy-2" x="20.4076831" y="5.52460508" width="10.2038415" height="4.98886945"></rect>
                <rect id="Rectangle" x="0" y="11.0492102" width="10.2038415" height="4.98886945"></rect>
                <rect id="Rectangle-Copy" x="10.2038415" y="11.0492102" width="10.2038415" height="4.98886945"></rect>
                <rect id="Rectangle-Copy-2" x="20.4076831" y="11.0492102" width="10.2038415" height="4.98886945"></rect>
                <rect id="Rectangle" x="0" y="16.5738152" width="10.2038415" height="4.98886945"></rect>
                <rect id="Rectangle-Copy" x="10.2038415" y="16.5738152" width="10.2038415" height="4.98886945"></rect>
                <rect id="Rectangle-Copy-2" x="20.4076831" y="16.5738152" width="10.2038415" height="4.98886945"></rect>
            </g>
            <polygon id="Rectangle" points="7.34321915 2.19029354 7.34321915 7.87126368 1.66224902 7.87126368"></polygon>
        </g>
        <g id="3" transform="translate(347.607224, 236.105002)">
            <g>
                <rect id="Rectangle" stroke="#035AA6" stroke-width="1.5" fill="#FFFFFF" x="27" y="36.9018282" width="4" height="6.19726563" rx="1"></rect>
                <rect id="Rectangle" stroke="#035AA6" stroke-width="1.5" fill="#FFFFFF" x="19" y="43.0990939" width="20" height="4" rx="1"></rect>
                <rect id="Rectangle" stroke="#035AA6" stroke-width="1.5" fill="#FFFFFF" x="0" y="0" width="58" height="38" rx="1"></rect>
                <g id="Group-4" transform="translate(19.500000, 14.000000)">
                    <line x1="-9.09494702e-13" y1="9.05042714" x2="30.2354016" y2="9.05042714" id="Path-3" stroke="#035AA6" stroke-width="1.5" stroke-linecap="round"></line>
                    <path d="M5.31054256,3.04141148 L5.32277716,3.0680091 C5.40116067,3.2403636 5.44035186,3.4298621 5.44035186,3.63650968 L5.44035186,5.2545522 L4.72122186,5.2545522 L4.72122186,3.64468162 C4.72122186,3.53572198 4.72803173,3.43493583 4.74165169,3.34232014 C4.75525836,3.24979478 4.78381734,3.15998944 4.82732949,3.07290144 C4.76008949,3.15662317 4.698134,3.22041874 4.63133061,3.27694468 C4.56050684,3.33687248 4.47878834,3.39407543 4.38617265,3.44855525 L2.98060037,4.25757651 L2.62103537,3.64468162 L4.02660765,2.82748843 C4.23337015,2.70234271 4.44012955,2.63697486 4.64689204,2.63138294 L4.62355698,2.62878704 C4.52321896,2.61739088 4.42638583,2.59781955 4.33305509,2.57007257 C4.23226743,2.54010867 4.1301193,2.49243955 4.02660765,2.42706377 L2.61286343,1.60169865 L2.97242844,0.988803757 L4.38617265,1.80599694 C4.48423632,1.86592474 4.57140273,1.9285756 4.64767447,1.99395138 C4.7237096,2.05912434 4.79162236,2.13783171 4.85141479,2.23007583 L4.84097375,2.2062731 C4.76113877,2.02266969 4.72122186,1.82659461 4.72122186,1.61804251 L4.72122186,-1.42108547e-14 L5.44035186,-1.42108547e-14 L5.44035186,1.60987058 C5.44035186,1.71883022 5.43354199,1.82097834 5.41992203,1.91631802 C5.40631531,2.01156512 5.37775614,2.1027328 5.33424368,2.18982378 C5.40146774,2.10611793 5.46343083,2.04231291 5.53024311,1.98577945 C5.60106688,1.92585165 5.68278538,1.86592474 5.77540107,1.80599694 L7.18097335,0.996975689 L7.54053835,1.60987058 L6.13496607,2.42706377 C6.04235038,2.48699157 5.94973608,2.53329872 5.85712039,2.56598661 C5.76456569,2.59865297 5.66657164,2.62043739 5.56313533,2.63134052 C5.67565467,2.64420083 5.76886065,2.66409693 5.85712039,2.69265155 L5.99604323,2.74883353 L5.99604323,2.74883353 L7.54871029,3.65285355 L7.18914528,4.26574844 L5.77540107,3.44855525 C5.6773374,3.38862745 5.590171,3.32870055 5.51389925,3.26877275 C5.43802669,3.20915859 5.37024179,3.13337225 5.31054256,3.04141148 L5.32277716,3.0680091 L5.31054256,3.04141148 Z M12.2566846,3.04141148 L12.2689193,3.0680091 C12.3473028,3.2403636 12.386494,3.4298621 12.386494,3.63650968 L12.386494,5.2545522 L11.667364,5.2545522 L11.667364,3.64468162 C11.667364,3.53572198 11.6741738,3.43493583 11.6877938,3.34232014 C11.7014005,3.24979478 11.7299594,3.15998944 11.7734716,3.07290144 C11.7062316,3.15662317 11.6442761,3.22041874 11.5774727,3.27694468 C11.5066489,3.33687248 11.4249304,3.39407543 11.3323147,3.44855525 L9.92674246,4.25757651 L9.56717746,3.64468162 L10.9727497,2.82748843 C11.1795122,2.70234271 11.3862716,2.63697486 11.5930341,2.63138294 L11.5696991,2.62878704 C11.4693611,2.61739088 11.3725279,2.59781955 11.2791972,2.57007257 C11.1784095,2.54010867 11.0762614,2.49243955 10.9727497,2.42706377 L9.55900553,1.60169865 L9.91857053,0.988803757 L11.3323147,1.80599694 C11.4303784,1.86592474 11.5175448,1.9285756 11.5938166,1.99395138 C11.6698517,2.05912434 11.7377645,2.13783171 11.7975569,2.23007583 L11.7871158,2.2062731 C11.7072809,2.02266969 11.667364,1.82659461 11.667364,1.61804251 L11.667364,-1.42108547e-14 L12.386494,-1.42108547e-14 L12.386494,1.60987058 C12.386494,1.71883022 12.3796841,1.82097834 12.3660641,1.91631802 C12.3524574,2.01156512 12.3238982,2.1027328 12.2803858,2.18982378 C12.3476098,2.10611793 12.4095729,2.04231291 12.4763852,1.98577945 C12.547209,1.92585165 12.6289275,1.86592474 12.7215432,1.80599694 L14.1271154,0.996975689 L14.4866804,1.60987058 L13.0811082,2.42706377 C12.9884925,2.48699157 12.8958782,2.53329872 12.8032625,2.56598661 C12.7107078,2.59865297 12.6127137,2.62043739 12.5092774,2.63134052 C12.6217968,2.64420083 12.7150027,2.66409693 12.8032625,2.69265155 L12.9421853,2.74883353 L12.9421853,2.74883353 L14.4948524,3.65285355 L14.1352874,4.26574844 L12.7215432,3.44855525 C12.6234795,3.38862745 12.5363131,3.32870055 12.4600413,3.26877275 C12.3841688,3.20915859 12.3163839,3.13337225 12.2566846,3.04141148 L12.2689193,3.0680091 L12.2566846,3.04141148 Z M19.2028267,3.04141148 L19.2150613,3.0680091 C19.2934449,3.2403636 19.332636,3.4298621 19.332636,3.63650968 L19.332636,5.2545522 L18.613506,5.2545522 L18.613506,3.64468162 C18.613506,3.53572198 18.6203159,3.43493583 18.6339359,3.34232014 C18.6475425,3.24979478 18.6761015,3.15998944 18.7196137,3.07290144 C18.6523737,3.15662317 18.5904182,3.22041874 18.5236148,3.27694468 C18.452791,3.33687248 18.3710725,3.39407543 18.2784568,3.44855525 L16.8728846,4.25757651 L16.5133196,3.64468162 L17.9188918,2.82748843 C18.1256543,2.70234271 18.3324137,2.63697486 18.5391762,2.63138294 L18.5158412,2.62878704 C18.4155031,2.61739088 18.31867,2.59781955 18.2253393,2.57007257 C18.1245516,2.54010867 18.0224035,2.49243955 17.9188918,2.42706377 L16.5051476,1.60169865 L16.8647126,0.988803757 L18.2784568,1.80599694 C18.3765205,1.86592474 18.4636869,1.9285756 18.5399587,1.99395138 C18.6159938,2.05912434 18.6839065,2.13783171 18.743699,2.23007583 L18.7332579,2.2062731 C18.653423,2.02266969 18.613506,1.82659461 18.613506,1.61804251 L18.613506,-1.42108547e-14 L19.332636,-1.42108547e-14 L19.332636,1.60987058 C19.332636,1.71883022 19.3258262,1.82097834 19.3122062,1.91631802 C19.2985995,2.01156512 19.2700403,2.1027328 19.2265279,2.18982378 C19.2937519,2.10611793 19.355715,2.04231291 19.4225273,1.98577945 C19.4933511,1.92585165 19.5750696,1.86592474 19.6676853,1.80599694 L21.0732575,0.996975689 L21.4328225,1.60987058 L20.0272503,2.42706377 C19.9346346,2.48699157 19.8420203,2.53329872 19.7494046,2.56598661 C19.6568499,2.59865297 19.5588558,2.62043739 19.4554195,2.63134052 C19.5679389,2.64420083 19.6611448,2.66409693 19.7494046,2.69265155 L19.8883274,2.74883353 L19.8883274,2.74883353 L21.4409945,3.65285355 L21.0814295,4.26574844 L19.6676853,3.44855525 C19.5696216,3.38862745 19.4824552,3.32870055 19.4061834,3.26877275 C19.3303109,3.20915859 19.262526,3.13337225 19.2028267,3.04141148 L19.2150613,3.0680091 L19.2028267,3.04141148 Z M26.1489688,3.04141148 L26.1612034,3.0680091 C26.2395869,3.2403636 26.2787781,3.4298621 26.2787781,3.63650968 L26.2787781,5.2545522 L25.5596481,5.2545522 L25.5596481,3.64468162 C25.5596481,3.53572198 25.566458,3.43493583 25.580078,3.34232014 C25.5936846,3.24979478 25.6222436,3.15998944 25.6657558,3.07290144 C25.5985158,3.15662317 25.5365603,3.22041874 25.4697569,3.27694468 C25.3989331,3.33687248 25.3172146,3.39407543 25.2245989,3.44855525 L23.8190266,4.25757651 L23.4594616,3.64468162 L24.8650339,2.82748843 C25.0717964,2.70234271 25.2785558,2.63697486 25.4853183,2.63138294 L25.4619833,2.62878704 C25.3616452,2.61739088 25.2648121,2.59781955 25.1714814,2.57007257 C25.0706937,2.54010867 24.9685456,2.49243955 24.8650339,2.42706377 L23.4512897,1.60169865 L23.8108547,0.988803757 L25.2245989,1.80599694 C25.3226626,1.86592474 25.409829,1.9285756 25.4861008,1.99395138 C25.5621359,2.05912434 25.6300486,2.13783171 25.6898411,2.23007583 L25.6794,2.2062731 C25.5995651,2.02266969 25.5596481,1.82659461 25.5596481,1.61804251 L25.5596481,-1.42108547e-14 L26.2787781,-1.42108547e-14 L26.2787781,1.60987058 C26.2787781,1.71883022 26.2719683,1.82097834 26.2583483,1.91631802 C26.2447416,2.01156512 26.2161824,2.1027328 26.17267,2.18982378 C26.239894,2.10611793 26.3018571,2.04231291 26.3686694,1.98577945 C26.4394932,1.92585165 26.5212117,1.86592474 26.6138273,1.80599694 L28.0193996,0.996975689 L28.3789646,1.60987058 L26.9733924,2.42706377 C26.8807767,2.48699157 26.7881624,2.53329872 26.6955467,2.56598661 C26.602992,2.59865297 26.5049979,2.62043739 26.4015616,2.63134052 C26.514081,2.64420083 26.6072869,2.66409693 26.6955467,2.69265155 L26.8344695,2.74883353 L26.8344695,2.74883353 L28.3871366,3.65285355 L28.0275716,4.26574844 L26.6138273,3.44855525 C26.5157637,3.38862745 26.4285973,3.32870055 26.3523255,3.26877275 C26.276453,3.20915859 26.2086681,3.13337225 26.1489688,3.04141148 L26.1612034,3.0680091 L26.1489688,3.04141148 Z" id="****" fill="#035AA6" fill-rule="nonzero"></path>
                </g>
            </g>
            <g id="Group-5" transform="translate(7.368253, 12.000000)" fill="#035AA6">
                <rect id="Rectangle" x="0" y="4.90149564" width="6.58609085" height="6.58609085"></rect>
            </g>
            <path d="M7.36984107,16.903325 L8.36984107,16.903325 L8.36984107,16.8882714 C8.36978036,16.5643297 8.3757491,16.3184826 8.39946551,15.9915736 C8.43430818,15.5112993 8.50004117,15.0472071 8.60393972,14.6164064 C8.9333503,13.2505516 9.55689232,12.5 10.5648193,12.5 C11.8335829,12.5 12.5944097,13.5169596 12.8468267,15.7700835 L13.8406098,15.6587502 C13.538193,12.9593183 12.4464206,11.5 10.5648193,11.5 C8.98718593,11.5 8.05676759,12.6199357 7.63181232,14.3819531 C7.51383016,14.8711496 7.44062564,15.3879927 7.40208673,15.9192164 C7.38271878,16.1861858 7.37422817,16.4032118 7.37121987,16.6410529 L7.36984107,16.903325 Z" id="Path-4" fill="#035AA6" fill-rule="nonzero"></path>
        </g>
        <g id="Group-7" transform="translate(384.506955, 360.750000)">
            <g id="4">
                <rect id="Rectangle-Copy" stroke="#035AA6" stroke-width="1.5" fill="#FFFFFF" x="0.678837275" y="14" width="19.6788373" height="9.62139108"></rect>
                <rect id="Rectangle-Copy-2" fill="#035AA6" fill-rule="nonzero" x="22.3576745" y="0.0397504191" width="36.8710852" height="22.5816407"></rect>
                <rect id="Rectangle-Copy" stroke="#035AA6" stroke-width="1.5" fill="#FFFFFF" x="0.678837275" y="24.6545955" width="19.6788373" height="9.62139108"></rect>
                <rect id="Rectangle-Copy-2" stroke="#035AA6" stroke-width="1.5" fill="#FFFFFF" x="20.3576745" y="24.6545955" width="19.6788373" height="9.62139108"></rect>
                <rect id="Rectangle-Copy" stroke="#035AA6" stroke-width="1.5" fill="#FFFFFF" x="0.678837275" y="35.309191" width="19.6788373" height="9.62139108"></rect>
                <rect id="Rectangle-Copy-2" stroke="#035AA6" stroke-width="1.5" fill="#FFFFFF" x="20.3576745" y="35.309191" width="19.6788373" height="9.62139108"></rect>
            </g>
            <g id="Group-6" transform="translate(24.186587, 2.934162)" fill="#FFFFFF" fill-rule="nonzero">
                <path d="M3.75725011,5.11484214 C3.86796154,5.11484214 3.95583741,5.14597926 4.02088037,5.20825444 C4.08592333,5.27052961 4.11844432,5.35287 4.11844432,5.45527807 L4.11844432,6.06972339 L5.1159077e-13,6.06972339 L5.1159077e-13,5.72928747 C5.1159077e-13,5.66009283 0.0145306562,5.58743955 0.0435924046,5.51132544 C0.072654153,5.43521134 0.119013866,5.36670968 0.182672934,5.30581839 L2.00525061,3.47908906 C2.15747882,3.32409306 2.29379021,3.17601876 2.41418889,3.03486169 C2.53458756,2.89370463 2.63491828,2.75393356 2.71518406,2.61554428 C2.79544984,2.477155 2.85703215,2.33669199 2.89993282,2.19415103 C2.9428335,2.05161008 2.96428352,1.90145996 2.96428352,1.74369619 C2.96428352,1.59977134 2.94352543,1.47314705 2.90200865,1.36381952 C2.86049187,1.25449199 2.80167731,1.1624645 2.7255632,1.08773429 C2.6494491,1.01300408 2.55811355,0.95695726 2.4515538,0.919592155 C2.34499406,0.88222705 2.22528913,0.863544778 2.09243542,0.863544778 C1.97065286,0.863544778 1.85786729,0.880843178 1.75407533,0.915440497 C1.65028337,0.950037817 1.55825588,0.998473338 1.4779901,1.06074851 C1.39772432,1.12302369 1.32991459,1.19567697 1.27455888,1.27871054 C1.21920317,1.3617441 1.17768701,1.45307966 1.15000915,1.55271994 C1.1029568,1.68003807 1.04206643,1.76445427 0.967336217,1.80597105 C0.892606007,1.84748783 0.784663989,1.85717494 0.643506926,1.83503265 L0.10379144,1.73954453 C0.145308223,1.45169483 0.2255728,1.19913819 0.344587579,0.981867019 C0.463602359,0.764595852 0.612368601,0.583308617 0.79089077,0.437999875 C0.969412939,0.292691133 1.174226,0.183365243 1.40533609,0.110018926 C1.63644619,0.0366726086 1.88485121,0 2.15055863,0 C2.42733718,0 2.68058576,0.0408242247 2.91031197,0.122473899 C3.14003817,0.204123573 3.336548,0.319676887 3.49984734,0.469137307 C3.66314669,0.618597727 3.79046292,0.79850109 3.88179984,1.00885279 C3.97313676,1.2192045 4.01880454,1.45307887 4.01880454,1.71048292 C4.01880454,1.93190577 3.98628355,2.13671883 3.92124059,2.32492825 C3.85619763,2.51313767 3.76901369,2.69304103 3.65968616,2.86464373 C3.55035863,3.03624644 3.42235047,3.20231108 3.27565783,3.36284264 C3.1289652,3.52337421 2.9753554,3.6866711 2.81482384,3.85273824 L1.46138347,5.23524021 C1.59146939,5.19649122 1.72086143,5.16673797 1.84956345,5.14597958 C1.97826548,5.12522118 2.10073816,5.11484214 2.21698515,5.11484214 L3.75725011,5.11484214 Z M9.0340069,0.0664265213 L9.0340069,0.510653883 C9.0340069,0.64350759 9.02016818,0.750757672 8.99249033,0.832407346 L8.93713492,0.978176624 L8.93713492,0.978176624 L6.63434882,5.72098415 C6.58729647,5.81785665 6.52087061,5.90019703 6.43506926,5.96800778 C6.3492679,6.03581852 6.23440653,6.06972339 6.09048168,6.06972339 L5.34733497,6.06972339 L7.66811156,1.48214176 C7.72069948,1.38803705 7.77259468,1.30154505 7.82379872,1.22266316 C7.87500275,1.14378127 7.93243344,1.06836024 7.99609251,0.99639782 L5.12314546,0.99639782 C5.05948639,0.99639782 5.00413151,0.972871996 4.95707916,0.925819641 C4.9100268,0.878767287 4.88650098,0.823412406 4.88650098,0.759753338 L4.88650098,0.0664265213 L9.0340069,0.0664265213 Z M9.67336217,5.50509796 C9.67336217,5.4192966 9.6892767,5.33764815 9.72110623,5.26015016 C9.75293577,5.18265216 9.79652774,5.11622631 9.85188345,5.0608706 C9.90723916,5.00551488 9.97366502,4.96123098 10.051163,4.92801755 C10.128661,4.89480413 10.2116933,4.87819766 10.3002625,4.87819766 C10.3888316,4.87819766 10.471172,4.89480413 10.5472861,4.92801755 C10.6234002,4.96123098 10.6898261,5.00551488 10.7465657,5.0608706 C10.8033053,5.11622631 10.8482811,5.18265216 10.8814945,5.26015016 C10.914708,5.33764815 10.9313144,5.4192966 10.9313144,5.50509796 C10.9313144,5.59366709 10.914708,5.67600748 10.8814945,5.75212158 C10.8482811,5.82823569 10.8033053,5.89396961 10.7465657,5.94932532 C10.6898261,6.00468103 10.6234002,6.048273 10.5472861,6.08010253 C10.471172,6.11193207 10.3888316,6.12784659 10.3002625,6.12784659 C10.2116933,6.12784659 10.128661,6.11193207 10.051163,6.08010253 C9.97366502,6.048273 9.90723916,6.00468103 9.85188345,5.94932532 C9.79652774,5.89396961 9.75293577,5.82823569 9.72110623,5.75212158 C9.6892767,5.67600748 9.67336217,5.59366709 9.67336217,5.50509796 Z M15.8966969,3.06807495 C15.8966969,3.59118643 15.8406501,4.04578839 15.7285548,4.43189447 C15.6164594,4.81800056 15.4614658,5.13698306 15.2635691,5.38885154 C15.0656724,5.64072003 14.8317981,5.82823469 14.561939,5.95140115 C14.2920799,6.0745676 14.0007748,6.13614991 13.6880151,6.13614991 C13.3752553,6.13614991 13.0853341,6.0745676 12.8182428,5.95140115 C12.5511515,5.82823469 12.3193529,5.64072003 12.1228401,5.38885154 C11.9263274,5.13698306 11.7727176,4.81800056 11.6620062,4.43189447 C11.5512947,4.04578839 11.4959399,3.59118643 11.4959399,3.06807495 C11.4959399,2.5421957 11.5512947,2.0869018 11.6620062,1.70217961 C11.7727176,1.31745742 11.9263274,0.999166851 12.1228401,0.747298365 C12.3193529,0.495429879 12.5511515,0.30791522 12.8182428,0.184748762 C13.0853341,0.061582305 13.3752553,0 13.6880151,0 C14.0007748,0 14.2920799,0.061582305 14.561939,0.184748762 C14.8317981,0.30791522 15.0656724,0.495429879 15.2635691,0.747298365 C15.4614658,0.999166851 15.6164594,1.31745742 15.7285548,1.70217961 C15.8406501,2.0869018 15.8966969,2.5421957 15.8966969,3.06807495 Z M14.8380242,3.06807495 C14.8380242,2.63353262 14.8061951,2.2737259 14.7425361,1.98864398 C14.678877,1.70356207 14.5937689,1.47660706 14.4872091,1.30777214 C14.3806494,1.13893722 14.2581767,1.02061616 14.1197874,0.952805416 C13.9813982,0.884994669 13.8374755,0.851089805 13.6880151,0.851089805 C13.5413224,0.851089805 13.3994755,0.884994669 13.2624702,0.952805416 C13.1254648,1.02061616 13.004376,1.13893722 12.8992001,1.30777214 C12.7940243,1.47660706 12.7103,1.70356207 12.6480248,1.98864398 C12.5857497,2.2737259 12.5546125,2.63353262 12.5546125,3.06807495 C12.5546125,3.50261729 12.5857497,3.86242401 12.6480248,4.14750593 C12.7103,4.43258784 12.7940243,4.65954285 12.8992001,4.82837777 C13.004376,4.99721269 13.1254648,5.11553375 13.2624702,5.18334449 C13.3994755,5.25115524 13.5413224,5.2850601 13.6880151,5.2850601 C13.8374755,5.2850601 13.9813982,5.25115524 14.1197874,5.18334449 C14.2581767,5.11553375 14.3806494,4.99721269 14.4872091,4.82837777 C14.5937689,4.65954285 14.678877,4.43258784 14.7425361,4.14750593 C14.8061951,3.86242401 14.8380242,3.50261729 14.8380242,3.06807495 Z M16.5526588,1.73954453 C16.5941756,1.45169483 16.6744401,1.19913819 16.7934549,0.981867019 C16.9124697,0.764595852 17.0612359,0.583308617 17.2397581,0.437999875 C17.4182803,0.292691133 17.6230933,0.183365243 17.8542034,0.110018926 C18.0853135,0.0366726086 18.3337186,0 18.599426,0 C18.8762045,0 19.1259934,0.0394403526 19.3488002,0.118322241 C19.5716069,0.19720413 19.7618893,0.306530019 19.9196531,0.44630319 C20.0774169,0.586076361 20.1985057,0.750065196 20.2829231,0.938274614 C20.3673406,1.12648403 20.4095487,1.32991322 20.4095487,1.54856828 C20.4095487,1.73954548 20.3880987,1.90768593 20.345198,2.05299468 C20.3022973,2.19830342 20.240715,2.32492771 20.1604492,2.43287134 C20.0801834,2.54081498 19.9805447,2.63215053 19.8615299,2.70688074 C19.7425151,2.78161096 19.6082795,2.8438852 19.4588191,2.89370534 C19.8186312,3.00718454 20.0871024,3.18016855 20.2642407,3.41266253 C20.4413789,3.64515652 20.5299468,3.93715352 20.5299468,4.28866228 C20.5299468,4.58758313 20.4745919,4.85190268 20.3638805,5.08162888 C20.253169,5.31135508 20.1037108,5.50440523 19.9155014,5.66078512 C19.727292,5.817165 19.5093322,5.93548606 19.2616154,6.01575184 C19.0138986,6.09601762 18.7516548,6.13614991 18.4748762,6.13614991 C18.1731876,6.13614991 17.9102519,6.10155311 17.6860613,6.03235847 C17.4618707,5.96316383 17.2667447,5.8607573 17.1006776,5.72513581 C16.9346105,5.58951432 16.7934555,5.42344967 16.6772085,5.2269369 C16.5609615,5.03042412 16.4613227,4.80346911 16.3782892,4.54606505 L16.8308198,4.35924046 C16.9498346,4.30942032 17.0612363,4.29627354 17.1650283,4.31979972 C17.2688202,4.34332589 17.3442413,4.39937271 17.3912936,4.48794185 C17.4411138,4.58481434 17.4957767,4.68030151 17.5552841,4.77440622 C17.6147915,4.86851093 17.6860609,4.95223519 17.7690945,5.02558151 C17.852128,5.09892782 17.949691,5.15843432 18.0617863,5.20410278 C18.1738816,5.24977124 18.3074253,5.27260513 18.4624213,5.27260513 C18.6367918,5.27260513 18.7890177,5.24423576 18.9191036,5.18749615 C19.0491895,5.13075655 19.1578235,5.05671939 19.2450087,4.96538247 C19.332194,4.87404555 19.397236,4.77233095 19.4401366,4.66023564 C19.4830373,4.54814032 19.5044873,4.43535475 19.5044873,4.32187555 C19.5044873,4.1779507 19.4892647,4.04717479 19.4588191,3.9295439 C19.4283735,3.81191302 19.3647153,3.7115823 19.2678428,3.62854873 C19.1709704,3.54551516 19.0318912,3.48047318 18.8506013,3.43342082 C18.6693113,3.38636847 18.4264418,3.36284264 18.1219854,3.36284264 L18.1219854,2.63215091 C18.3738538,2.62938312 18.5828185,2.6058573 18.7488857,2.56157273 C18.9149528,2.51728816 19.0471126,2.45570586 19.1453689,2.37682397 C19.2436253,2.29794208 19.312127,2.20314684 19.350876,2.09243542 C19.389625,1.981724 19.4089992,1.85994326 19.4089992,1.72708956 C19.4089992,1.44477543 19.3301185,1.23027526 19.1723547,1.08358263 C19.0145909,0.936889995 18.8042424,0.863544778 18.5413028,0.863544778 C18.4195202,0.863544778 18.3074266,0.880843178 18.2050185,0.915440497 C18.1026104,0.950037817 18.010583,0.998473338 17.9289333,1.06074851 C17.8472836,1.12302369 17.7787819,1.19567697 17.7234262,1.27871054 C17.6680705,1.3617441 17.6265544,1.45307966 17.5988765,1.55271994 C17.5518241,1.68003807 17.4902418,1.76445427 17.4141277,1.80597105 C17.3380136,1.84748783 17.2307636,1.85717494 17.0923743,1.83503265 L16.5526588,1.73954453 Z M21.2772451,5.50509796 C21.2772451,5.4192966 21.2931596,5.33764815 21.3249892,5.26015016 C21.3568187,5.18265216 21.4004107,5.11622631 21.4557664,5.0608706 C21.5111221,5.00551488 21.577548,4.96123098 21.655046,4.92801755 C21.732544,4.89480413 21.8155763,4.87819766 21.9041454,4.87819766 C21.9927146,4.87819766 22.0750549,4.89480413 22.151169,4.92801755 C22.2272831,4.96123098 22.293709,5.00551488 22.3504486,5.0608706 C22.4071882,5.11622631 22.452164,5.18265216 22.4853775,5.26015016 C22.5185909,5.33764815 22.5351974,5.4192966 22.5351974,5.50509796 C22.5351974,5.59366709 22.5185909,5.67600748 22.4853775,5.75212158 C22.452164,5.82823569 22.4071882,5.89396961 22.3504486,5.94932532 C22.293709,6.00468103 22.2272831,6.048273 22.151169,6.08010253 C22.0750549,6.11193207 21.9927146,6.12784659 21.9041454,6.12784659 C21.8155763,6.12784659 21.732544,6.11193207 21.655046,6.08010253 C21.577548,6.048273 21.5111221,6.00468103 21.4557664,5.94932532 C21.4004107,5.89396961 21.3568187,5.82823569 21.3249892,5.75212158 C21.2931596,5.67600748 21.2772451,5.59366709 21.2772451,5.50509796 Z M27.1892055,5.30166674 L27.1892055,6.06972339 L23.8678795,6.06972339 L23.8678795,5.30166674 L25.0843151,5.30166674 L25.0843151,1.80181939 C25.0843151,1.66343011 25.0884667,1.5208913 25.0967701,1.37419866 L24.2332253,2.09658708 C24.1834052,2.13533608 24.1342777,2.15955384 24.0858415,2.16924109 C24.0374052,2.17892834 23.9917375,2.17962027 23.9488368,2.17131692 C23.9059361,2.16301356 23.8678796,2.1484829 23.8346662,2.12772451 C23.8014528,2.10696612 23.7765431,2.08413223 23.7599364,2.05922216 L23.4361071,1.6149948 L25.2669881,0.0581232062 L26.1097745,0.0581232062 L26.1097745,5.30166674 L27.1892055,5.30166674 Z M29.0782097,1.86824591 C29.0782097,2.20314797 29.1647017,2.45847235 29.3376883,2.63422674 C29.5106749,2.80998112 29.7563122,2.89785699 30.0746075,2.89785699 C30.2406747,2.89785699 30.388749,2.87156343 30.5188349,2.8189755 C30.6489208,2.76638757 30.7582467,2.69442623 30.8468159,2.60308931 C30.935385,2.51175238 31.0025028,2.40381036 31.0481712,2.27926001 C31.0938397,2.15470966 31.1166736,2.02047408 31.1166736,1.87654923 C31.1166736,1.71324988 31.0917639,1.56725138 31.0419438,1.43854935 C30.9921236,1.30984732 30.9215461,1.20121337 30.8302092,1.11264423 C30.7388723,1.02407509 30.6302383,0.956265365 30.5043041,0.909213011 C30.3783699,0.862160656 30.2406746,0.838634832 30.0912142,0.838634832 C29.9362182,0.838634832 29.7964471,0.864236464 29.6718968,0.915440497 C29.5473464,0.96664453 29.4407883,1.03791394 29.3522191,1.12925086 C29.26365,1.22058779 29.1958403,1.32922174 29.1487879,1.45515598 C29.1017355,1.58109023 29.0782097,1.71878549 29.0782097,1.86824591 Z M28.5758592,6.06972339 L30.4399534,3.74064348 L30.5728065,3.57042552 C30.6143232,3.51506981 30.6544555,3.45971493 30.6932045,3.40435922 C30.5548152,3.49292836 30.4025893,3.56004615 30.2365222,3.60571461 C30.0704551,3.65138307 29.8960872,3.67421696 29.7134133,3.67421696 C29.5058294,3.67421696 29.3024002,3.63823629 29.1031197,3.56627386 C28.9038391,3.49431144 28.7267035,3.38567749 28.5717075,3.24036874 C28.4167115,3.09506 28.2914711,2.91515664 28.1959825,2.70065326 C28.1004939,2.48614988 28.0527503,2.23497711 28.0527503,1.94712741 C28.0527503,1.67865221 28.1025697,1.4267875 28.20221,1.19152573 C28.3018503,0.956263954 28.4416213,0.750067023 28.6215274,0.572928747 C28.8014334,0.395790471 29.0173175,0.256019396 29.269186,0.153611331 C29.5210545,0.0512032648 29.7992127,0 30.1036691,0 C30.4108933,0 30.6869758,0.0484355208 30.9319248,0.145308015 C31.1768739,0.24218051 31.3858385,0.377799968 31.5588251,0.552170459 C31.7318117,0.726540949 31.8646634,0.935505624 31.9573843,1.17907075 C32.0501051,1.42263588 32.0964648,1.68972318 32.0964648,1.98034067 C32.0964648,2.1657823 32.0805503,2.34153405 32.0487207,2.50760118 C32.0168912,2.67366831 31.9719153,2.83350553 31.9137919,2.98711763 C31.8556684,3.14072973 31.7850909,3.29087984 31.7020573,3.43757248 C31.6190237,3.58426511 31.5263043,3.72957168 31.4238963,3.87349653 L30.0496976,5.83307891 C30.0026452,5.89950576 29.9320678,5.95555258 29.8379631,6.00122104 C29.7438583,6.0468895 29.6373002,6.06972339 29.5182854,6.06972339 L28.5758592,6.06972339 Z" id="27.03.19"></path>
                <path d="M2.09243542,16.0105709 C2.26127034,16.0105709 2.40934465,15.9863532 2.53666278,15.9379169 C2.66398092,15.8894807 2.771231,15.8223629 2.85841625,15.7365615 C2.94560149,15.6507602 3.01133541,15.5483536 3.05561998,15.4293389 C3.09990455,15.3103241 3.1220465,15.181624 3.1220465,15.0432347 C3.1220465,14.7138682 3.03071095,14.4647713 2.8480371,14.2959363 C2.66536326,14.1271014 2.41349855,14.0426852 2.09243542,14.0426852 C1.7713723,14.0426852 1.51950759,14.1271014 1.33683374,14.2959363 C1.1541599,14.4647713 1.06282434,14.7138682 1.06282434,15.0432347 C1.06282434,15.181624 1.08496629,15.3103241 1.12925086,15.4293389 C1.17353543,15.5483536 1.23926935,15.6507602 1.3264546,15.7365615 C1.41363984,15.8223629 1.52088993,15.8894807 1.64820806,15.9379169 C1.7755262,15.9863532 1.9236005,16.0105709 2.09243542,16.0105709 Z M2.09243542,11.4478992 C1.94020722,11.4478992 1.80873937,11.4714251 1.69802795,11.5184774 C1.58731653,11.5655298 1.49528904,11.628496 1.42194272,11.7073778 C1.34859641,11.7862597 1.2946254,11.8769033 1.26002808,11.9793114 C1.22543076,12.0817195 1.20813236,12.1896615 1.20813236,12.3031407 C1.20813236,12.4221555 1.22266301,12.5377088 1.25172476,12.6498041 C1.28078651,12.7618994 1.32991397,12.8615382 1.39910861,12.9487235 C1.46830324,13.0359087 1.5596388,13.1057942 1.67311801,13.1583822 C1.78659721,13.2109701 1.92636829,13.2372637 2.09243542,13.2372637 C2.25850256,13.2372637 2.39827363,13.2109701 2.51175284,13.1583822 C2.62523205,13.1057942 2.7165676,13.0359087 2.78576224,12.9487235 C2.85495688,12.8615382 2.90408433,12.7618994 2.93314608,12.6498041 C2.96220783,12.5377088 2.97673849,12.4221555 2.97673849,12.3031407 C2.97673849,12.1896615 2.95874815,12.0817195 2.92276694,11.9793114 C2.88678573,11.8769033 2.83281472,11.7862597 2.76085229,11.7073778 C2.68888987,11.628496 2.59755432,11.5655298 2.48684289,11.5184774 C2.37613147,11.4714251 2.24466363,11.4478992 2.09243542,11.4478992 Z M3.10543987,13.6150645 C3.47078757,13.7340793 3.74064261,13.9160585 3.9150131,14.1610075 C4.08938359,14.4059565 4.17656753,14.7055648 4.17656753,15.0598413 C4.17656753,15.3255488 4.1260562,15.5663425 4.02503203,15.7822298 C3.92400785,15.998117 3.78216097,16.182172 3.59948713,16.3344002 C3.41681328,16.4866284 3.19746956,16.6042575 2.9414494,16.6872911 C2.68542923,16.7703247 2.40242741,16.8118408 2.09243542,16.8118408 C1.78244344,16.8118408 1.49944161,16.7703247 1.24342145,16.6872911 C0.987401282,16.6042575 0.768057566,16.4866284 0.585383719,16.3344002 C0.402709872,16.182172 0.26086299,15.998117 0.159838817,15.7822298 C0.058814644,15.5663425 0.00830331517,15.3255488 0.00830331517,15.0598413 C0.00830331517,14.7055648 0.0954872526,14.4059565 0.269857743,14.1610075 C0.444228233,13.9160585 0.714083278,13.7340793 1.07943097,13.6150645 C0.788813488,13.4932819 0.570853644,13.3202979 0.425544902,13.0961073 C0.28023616,12.8719167 0.207582879,12.6020616 0.207582879,12.2865341 C0.207582879,12.0595757 0.253942592,11.8478432 0.346663408,11.6513305 C0.439384225,11.4548177 0.568776259,11.2839095 0.734843392,11.1386008 C0.900910526,10.993292 1.09949616,10.8798145 1.33060626,10.7981648 C1.56171635,10.7165152 1.81565687,10.6756909 2.09243542,10.6756909 C2.36921398,10.6756909 2.62315449,10.7165152 2.85426459,10.7981648 C3.08537468,10.8798145 3.28396032,10.993292 3.45002745,11.1386008 C3.61609459,11.2839095 3.74548662,11.4548177 3.83820744,11.6513305 C3.93092825,11.8478432 3.97728797,12.0595757 3.97728797,12.2865341 C3.97728797,12.6020616 3.90463468,12.8719167 3.75932594,13.0961073 C3.6140172,13.3202979 3.39605736,13.4932819 3.10543987,13.6150645 Z M4.94047253,16.1807889 C4.94047253,16.0949875 4.95638705,16.0133391 4.98821659,15.9358411 C5.02004612,15.8583431 5.06363809,15.7919172 5.1189938,15.7365615 C5.17434951,15.6812058 5.24077537,15.6369219 5.31827337,15.6037085 C5.39577136,15.5704951 5.47880368,15.5538886 5.56737282,15.5538886 C5.65594196,15.5538886 5.73828234,15.5704951 5.81439645,15.6037085 C5.89051055,15.6369219 5.95693641,15.6812058 6.01367601,15.7365615 C6.07041561,15.7919172 6.11539146,15.8583431 6.14860488,15.9358411 C6.18181831,16.0133391 6.19842477,16.0949875 6.19842477,16.1807889 C6.19842477,16.269358 6.18181831,16.3516984 6.14860488,16.4278125 C6.11539146,16.5039266 6.07041561,16.5696605 6.01367601,16.6250162 C5.95693641,16.680372 5.89051055,16.7239639 5.81439645,16.7557935 C5.73828234,16.787623 5.65594196,16.8035375 5.56737282,16.8035375 C5.47880368,16.8035375 5.39577136,16.787623 5.31827337,16.7557935 C5.24077537,16.7239639 5.17434951,16.680372 5.1189938,16.6250162 C5.06363809,16.5696605 5.02004612,16.5039266 4.98821659,16.4278125 C4.95638705,16.3516984 4.94047253,16.269358 4.94047253,16.1807889 Z M4.94047253,13.220657 C4.94047253,13.1348557 4.95638705,13.0532072 4.98821659,12.9757092 C5.02004612,12.8982112 5.06363809,12.8317854 5.1189938,12.7764297 C5.17434951,12.721074 5.24077537,12.6767901 5.31827337,12.6435766 C5.39577136,12.6103632 5.47880368,12.5937567 5.56737282,12.5937567 C5.65594196,12.5937567 5.73828234,12.6103632 5.81439645,12.6435766 C5.89051055,12.6767901 5.95693641,12.721074 6.01367601,12.7764297 C6.07041561,12.8317854 6.11539146,12.8982112 6.14860488,12.9757092 C6.18181831,13.0532072 6.19842477,13.1348557 6.19842477,13.220657 C6.19842477,13.3092262 6.18181831,13.3915666 6.14860488,13.4676807 C6.11539146,13.5437948 6.07041561,13.6095287 6.01367601,13.6648844 C5.95693641,13.7202401 5.89051055,13.7638321 5.81439645,13.7956616 C5.73828234,13.8274911 5.65594196,13.8434057 5.56737282,13.8434057 C5.47880368,13.8434057 5.39577136,13.8274911 5.31827337,13.7956616 C5.24077537,13.7638321 5.17434951,13.7202401 5.1189938,13.6648844 C5.06363809,13.6095287 5.02004612,13.5437948 4.98821659,13.4676807 C4.95638705,13.3915666 4.94047253,13.3092262 4.94047253,13.220657 Z M7.0868795,12.4152355 C7.12839628,12.1273858 7.20866086,11.8748291 7.32767564,11.6575579 C7.44669042,11.4402868 7.59545666,11.2589995 7.77397883,11.1136908 C7.952501,10.9683821 8.15731405,10.8590562 8.38842415,10.7857099 C8.61953424,10.7123635 8.86793927,10.6756909 9.13364669,10.6756909 C9.41042524,10.6756909 9.66021414,10.7151313 9.88302088,10.7940132 C10.1058276,10.8728951 10.29611,10.982221 10.4538738,11.1219941 C10.6116376,11.2617673 10.7327264,11.4257561 10.8171438,11.6139655 C10.9015613,11.802175 10.9437694,12.0056042 10.9437694,12.2242592 C10.9437694,12.4152364 10.9223194,12.5833769 10.8794187,12.7286856 C10.836518,12.8739943 10.7749357,13.0006186 10.6946699,13.1085623 C10.6144042,13.2165059 10.5147654,13.3078415 10.3957506,13.3825717 C10.2767358,13.4573019 10.1425002,13.5195761 9.99303981,13.5693963 C10.3528519,13.6828755 10.6213231,13.8558595 10.7984614,14.0883535 C10.9755997,14.3208475 11.0641675,14.6128444 11.0641675,14.9643532 C11.0641675,15.2632741 11.0088126,15.5275936 10.8981012,15.7573198 C10.7873897,15.987046 10.6379316,16.1800962 10.4497221,16.336476 C10.2615127,16.4928559 10.0435529,16.611177 9.79583607,16.6914428 C9.54811926,16.7717086 9.28587551,16.8118408 9.00909696,16.8118408 C8.70740833,16.8118408 8.44447265,16.777244 8.22028202,16.7080494 C7.99609139,16.6388548 7.80096543,16.5364482 7.6348983,16.4008267 C7.46883116,16.2652052 7.32767622,16.0991406 7.21142922,15.9026278 C7.09518223,15.7061151 6.99554344,15.47916 6.91250988,15.221756 L7.36504055,15.0349314 C7.48405533,14.9851113 7.59545703,14.9719645 7.69924899,14.9954906 C7.80304095,15.0190168 7.87846197,15.0750636 7.92551433,15.1636328 C7.97533447,15.2605053 8.02999741,15.3559924 8.0895048,15.4500972 C8.14901219,15.5442019 8.2202816,15.6279261 8.30331517,15.7012724 C8.38634874,15.7746188 8.48391171,15.8341253 8.59600703,15.8797937 C8.70810234,15.9254622 8.84164599,15.9482961 8.99664199,15.9482961 C9.17101248,15.9482961 9.3232384,15.9199267 9.45332432,15.8631871 C9.58341024,15.8064475 9.69204419,15.7324103 9.77922944,15.6410734 C9.86641468,15.5497365 9.93145667,15.4480219 9.97435735,15.3359266 C10.017258,15.2238313 10.038708,15.1110457 10.038708,14.9975665 C10.038708,14.8536416 10.0234854,14.7228657 9.99303981,14.6052348 C9.96259416,14.4876039 9.89893605,14.3872732 9.80206356,14.3042397 C9.70519106,14.2212061 9.56611192,14.1561641 9.38482197,14.1091118 C9.20353201,14.0620594 8.96066247,14.0385336 8.65620606,14.0385336 L8.65620606,13.3078418 C8.90807455,13.3050741 9.11703922,13.2815482 9.28310636,13.2372637 C9.44917349,13.1929791 9.58133327,13.1313968 9.67958966,13.0525149 C9.77784605,12.973633 9.84634771,12.8788378 9.88509671,12.7681264 C9.92384571,12.6574149 9.94321991,12.5356342 9.94321991,12.4027805 C9.94321991,12.1204664 9.86433921,11.9059662 9.70657543,11.7592736 C9.54881165,11.6125809 9.33846311,11.5392357 9.07552348,11.5392357 C8.95374091,11.5392357 8.84164728,11.5565341 8.73923921,11.5911314 C8.63683115,11.6257287 8.54480366,11.6741643 8.46315399,11.7364394 C8.38150431,11.7987146 8.31300265,11.8713679 8.25764694,11.9544015 C8.20229122,12.037435 8.16077506,12.1287706 8.13309721,12.2284109 C8.08604485,12.355729 8.02446255,12.4401452 7.94834845,12.481662 C7.87223434,12.5231788 7.76498426,12.5328659 7.62659498,12.5107236 L7.0868795,12.4152355 Z M16.0627632,13.7437659 C16.0627632,14.2668774 16.0067164,14.7214793 15.8946211,15.1075854 C15.7825257,15.4936915 15.6275321,15.812674 15.4296354,16.0645425 C15.2317387,16.316411 14.9978644,16.5039256 14.7280053,16.6270921 C14.4581462,16.7502585 14.1668411,16.8118408 13.8540814,16.8118408 C13.5413216,16.8118408 13.2514004,16.7502585 12.9843091,16.6270921 C12.7172178,16.5039256 12.4854192,16.316411 12.2889064,16.0645425 C12.0923937,15.812674 11.9387839,15.4936915 11.8280725,15.1075854 C11.717361,14.7214793 11.6620062,14.2668774 11.6620062,13.7437659 C11.6620062,13.2178866 11.717361,12.7625927 11.8280725,12.3778705 C11.9387839,11.9931483 12.0923937,11.6748578 12.2889064,11.4229893 C12.4854192,11.1711208 12.7172178,10.9836062 12.9843091,10.8604397 C13.2514004,10.7372732 13.5413216,10.6756909 13.8540814,10.6756909 C14.1668411,10.6756909 14.4581462,10.7372732 14.7280053,10.8604397 C14.9978644,10.9836062 15.2317387,11.1711208 15.4296354,11.4229893 C15.6275321,11.6748578 15.7825257,11.9931483 15.8946211,12.3778705 C16.0067164,12.7625927 16.0627632,13.2178866 16.0627632,13.7437659 Z M15.0040905,13.7437659 C15.0040905,13.3092236 14.9722615,12.9494168 14.9086024,12.6643349 C14.8449433,12.379253 14.7598352,12.152298 14.6532754,11.9834631 C14.5467157,11.8146282 14.424243,11.6963071 14.2858537,11.6284963 C14.1474645,11.5606856 14.0035418,11.5267807 13.8540814,11.5267807 C13.7073887,11.5267807 13.5655418,11.5606856 13.4285365,11.6284963 C13.2915311,11.6963071 13.1704423,11.8146282 13.0652664,11.9834631 C12.9600906,12.152298 12.8763663,12.379253 12.8140911,12.6643349 C12.751816,12.9494168 12.7206788,13.3092236 12.7206788,13.7437659 C12.7206788,14.1783082 12.751816,14.5381149 12.8140911,14.8231969 C12.8763663,15.1082788 12.9600906,15.3352338 13.0652664,15.5040687 C13.1704423,15.6729036 13.2915311,15.7912247 13.4285365,15.8590354 C13.5655418,15.9268462 13.7073887,15.960751 13.8540814,15.960751 C14.0035418,15.960751 14.1474645,15.9268462 14.2858537,15.8590354 C14.424243,15.7912247 14.5467157,15.6729036 14.6532754,15.5040687 C14.7598352,15.3352338 14.8449433,15.1082788 14.9086024,14.8231969 C14.9722615,14.5381149 15.0040905,14.1783082 15.0040905,13.7437659 Z M20.9077476,13.7603725 C21.1125637,13.7603725 21.2910832,13.7347709 21.4433114,13.6835669 C21.5955396,13.6323628 21.7221639,13.5590176 21.8231881,13.463529 C21.9242123,13.3680404 21.9996333,13.2517951 22.0494534,13.1147898 C22.0992736,12.9777844 22.1241833,12.8248665 22.1241833,12.6560316 C22.1241833,12.4955 22.0992736,12.3501935 22.0494534,12.2201076 C21.9996333,12.0900216 21.9249042,11.9793119 21.8252639,11.8879749 C21.7256236,11.796638 21.5996913,11.7267525 21.4474631,11.6783162 C21.2952349,11.62988 21.1153315,11.6056622 20.9077476,11.6056622 L20.0732644,11.6056622 L20.0732644,13.7603725 L20.9077476,13.7603725 Z M20.9077476,10.7421175 C21.3090765,10.7421175 21.6564284,10.7891691 21.9498136,10.8832738 C22.2431989,10.9773785 22.4853765,11.1088464 22.6763537,11.2776813 C22.8673309,11.4465162 23.0091778,11.6485615 23.1018986,11.8838233 C23.1946194,12.1190851 23.2409792,12.3764853 23.2409792,12.6560316 C23.2409792,12.9466491 23.1925436,13.2130444 23.0956711,13.4552257 C22.9987986,13.6974069 22.8534921,13.9056797 22.6597471,14.0800502 C22.4660021,14.2544206 22.2231326,14.3900401 21.9311312,14.4869126 C21.6391298,14.5837851 21.2980054,14.6322206 20.9077476,14.6322206 L20.0732644,14.6322206 L20.0732644,16.7454143 L18.9564685,16.7454143 L18.9564685,10.7421175 L20.9077476,10.7421175 Z M30.6060197,10.7421175 L30.6060197,16.7454143 L29.6220769,16.7454143 L29.6220769,12.8677661 C29.6220769,12.7127701 29.6303801,12.5453216 29.6469868,12.3654156 L27.8327124,15.7739264 C27.7469111,15.9372258 27.6154433,16.0188742 27.438305,16.0188742 L27.280542,16.0188742 C27.1034037,16.0188742 26.9719359,15.9372258 26.8861345,15.7739264 L25.0511019,12.3529606 L25.0718602,12.6228183 L25.0718602,12.6228183 L25.0801635,12.8677661 L25.0801635,12.8677661 L25.0801635,16.7454143 L24.0962206,16.7454143 L24.0962206,10.7421175 L24.9390071,10.7421175 C24.9888272,10.7421175 25.0317273,10.7435013 25.0677085,10.7462691 C25.1036897,10.7490369 25.1362107,10.7559563 25.1652724,10.7670274 C25.1943342,10.7780985 25.2206278,10.7960889 25.2441539,10.8209989 C25.2676801,10.845909 25.290514,10.8791219 25.3126563,10.9206387 L27.110324,14.2544198 C27.1573764,14.3429889 27.2009683,14.4343245 27.2411012,14.5284292 L27.3594235,14.8190452 L27.3594235,14.8190452 C27.3981725,14.7166371 27.4383048,14.6176903 27.4798216,14.5222017 C27.5213383,14.4267131 27.5656222,14.3346856 27.6126746,14.2461165 L29.3854324,10.9206387 C29.4075747,10.8791219 29.4311005,10.845909 29.4560106,10.8209989 C29.4809206,10.7960889 29.5079061,10.7780985 29.5369679,10.7670274 C29.5660296,10.7559563 29.5985506,10.7490369 29.6345318,10.7462691 L29.7632332,10.7421175 L29.7632332,10.7421175 L30.6060197,10.7421175 Z" id="8:30PM"></path>
            </g>
        </g>
        <polygon id="Rectangle" fill="#2E939C" opacity="0.2" points="358.465859 56 409.703163 56 381.534141 114 330.296837 114"></polygon>
        <polygon id="Path-5" fill="#FFFFFF" points="375.271842 45.1074219 365.582389 54 364.354362 61 357.830436 67.1825 357.830436 102.733398 414.582389 102.733398 415.832389 67.9923582 409.082389 62 409.082389 45.1074219"></polygon>
        <g id="1" transform="translate(356.582389, 44.000000)" fill="#035AA6" fill-rule="nonzero">
            <path d="M59.6,22.2 L53,17.193 L53,0.999999689 C53,0.44771525 52.5522847,-3.10813004e-07 52,-3.10813004e-07 L18.126,-3.10813004e-07 C17.8599684,-3.10813004e-07 17.6048183,0.105593114 17.417,0.294 L7.292,10.456 C7.10506209,10.6434111 7.00005624,10.8972951 7,11.162 L7,17.193 L0.4,22.2 C0.148194157,22.3888544 0,22.6852427 0,22.9999997 L0,58.9999997 C0,59.5522847 0.44771525,59.9999997 1,59.9999997 L59,59.9999997 C59.5522847,59.9999997 60,59.5522847 60,58.9999997 L60,22.9999997 C60,22.6852427 59.8518058,22.3888544 59.6,22.2 Z M7,26.665 L2.61,23.034 L7,19.7 L7,26.665 Z M15.054,35.929 C15.029,36.284 15,36.638 15,37 C14.9995763,39.6179428 15.6894302,42.1897185 17,44.456 L2,56.874 L2,25.125 L15.054,35.929 Z M43.0000096,37 C43.0037005,40.0327671 41.9418851,42.9704566 40,45.3 L40,43 C39.9948527,39.6530241 37.6243281,36.7765642 34.34,36.132 C36.6031073,33.7612784 36.5450836,30.013188 34.2096767,27.7136554 C31.8742698,25.4141228 28.1257302,25.4141228 25.7903233,27.7136554 C23.4549164,30.013188 23.3968927,33.7612784 25.66,36.132 C22.3756719,36.7765642 20.0051473,39.6530241 20,43 L20,45.3 C16.3345509,40.887316 15.9946848,34.5937121 19.1636176,29.811959 C22.3325504,25.030206 28.2611063,22.8907706 33.7533055,24.5469847 C39.2455047,26.2031988 43.002922,31.2635125 43.0000096,37 L43.0000096,37 Z M22,43 C22.0033061,40.2399468 24.2399468,38.0033061 27,38 L33,38 C35.7600532,38.0033061 37.9966939,40.2399468 38,43 L38,47.226 C33.3078836,50.9245532 26.6921164,50.9245532 22,47.226 L22,43 Z M30,36 C27.790861,36 26,34.209139 26,32 C26,29.790861 27.790861,28 30,28 C32.209139,28 34,29.790861 34,32 C34,34.209139 32.209139,36 30,36 Z M18.122,46.125 C20.9492787,49.8275538 25.3414155,51.9999316 30,51.9999316 C34.6585845,51.9999316 39.0507213,49.8275538 41.878,46.125 L56.223,58 L3.777,58 L18.122,46.125 Z M43,44.456 C44.3105698,42.1897185 45.0004237,39.6179428 45,37 C45,36.638 44.971,36.284 44.946,35.929 L58,25.125 L58,56.874 L43,44.456 Z M57.39,23.034 L53,26.665 L53,19.7 L57.39,23.034 Z M51,28.32 L44.6,33.62 C43.0306114,26.8218726 36.9769275,22.0064979 30,22.0064979 C23.0230725,22.0064979 16.9693886,26.8218726 15.4,33.62 L9,28.32 L9,12 L17,12 C18.1045695,12 19,11.1045695 19,10 L19,2 L51,2 L51,28.32 Z M10.57,10 L17,3.547 L17,10 L10.57,10 Z" id="Shape"></path>
            <path d="M24,7 L46,7 C46.5522847,7 47,6.55228475 47,6 C47,5.44771525 46.5522847,5 46,5 L24,5 C23.4477153,5 23,5.44771525 23,6 C23,6.55228475 23.4477153,7 24,7 Z" id="Path"></path>
            <path d="M46,11 L24,11 C23.4477153,11 23,11.4477153 23,12 C23,12.5522847 23.4477153,13 24,13 L46,13 C46.5522847,13 47,12.5522847 47,12 C47,11.4477153 46.5522847,11 46,11 Z" id="Path"></path>
            <path d="M46,17 L14,17 C13.4477153,17 13,17.4477153 13,18 C13,18.5522847 13.4477153,19 14,19 L46,19 C46.5522847,19 47,18.5522847 47,18 C47,17.4477153 46.5522847,17 46,17 Z" id="Path"></path>
        </g>
        <g id="Group-12" transform="translate(3.000000, 166.000000)">
            <g id="Group-9">
                <path d="M124.524434,320.774194 L162.545282,320.774194 C171.470687,320.774194 178.706158,313.538723 178.706158,304.613317 C178.706158,299.277907 176.072798,294.286322 171.668972,291.274194 L129.304872,262.298006 C128.805977,261.956771 128.215641,261.774194 127.61121,261.774194 L0.79890179,261.774194 L0.79890179,261.774194 L71.8730839,305.790871 C87.6882744,315.585315 105.921977,320.774194 124.524434,320.774194 Z" id="Path-2" fill="#000000" opacity="0.302571615" filter="url(#filter-1)"></path>
                <g id="001-robot" transform="translate(42.453237, 0.000000)">
                    <path d="M106.150579,17.6304738 C103.533461,17.6304738 101.411714,19.7522217 101.411714,22.3693389 L101.411714,67.1313951 C101.411714,69.7485124 103.533461,71.8702602 106.150579,71.8702602 C108.767696,71.8702602 110.889444,69.7485124 110.889444,67.1313951 L110.889444,22.3693389 C110.889444,19.7522217 108.767696,17.6304738 106.150579,17.6304738 Z" id="Path" fill="#B8DAEE" fill-rule="nonzero"></path>
                    <g id="Group" transform="translate(7.582184, 161.753263)" fill-rule="nonzero">
                        <polygon id="Path" fill="#B8DAEE" points="88.8044368 0 108.33172 0 108.33172 41.0076113 88.8044368 41.0076113"></polygon>
                        <polygon id="Path" fill="#B8DAEE" points="0.232520315 71.1537438 19.7692816 71.1537438 19.7692816 100.688879 0.232520315 100.688879"></polygon>
                        <polygon id="Path" fill="#8EC7E2" points="20.3417365 50.1207649 54.3642607 50.1207649 54.3642607 69.6480484 20.3417365 69.6480484"></polygon>
                        <polygon id="Path" fill="#B8DAEE" transform="translate(159.784106, 59.884407) rotate(-180.000000) translate(-159.784106, -59.884407) " points="143.059388 50.1207649 176.508825 50.1207649 176.508825 69.6480484 143.059388 69.6480484"></polygon>
                    </g>
                    <ellipse id="Oval" fill="#000000" fill-rule="nonzero" cx="17.5830851" cy="308.748436" rx="14.7656719" ry="14.7580897"></ellipse>
                    <path d="M158.223756,168.58797 L54.0774013,168.58797 C43.2923762,168.58797 34.5501178,159.84508 34.5501178,149.060686 L34.5501178,115.213184 C34.5501178,85.0158721 59.0298313,60.5361586 89.2271436,60.5361586 L123.074646,60.5361586 C153.271958,60.5361586 177.751671,85.0158721 177.751671,115.213184 L177.751671,149.060686 C177.751671,159.84508 169.008781,168.58797 158.223756,168.58797 L158.223756,168.58797 Z" id="Path" fill="#2E939C" fill-rule="nonzero"></path>
                    <circle id="Oval" fill="#ED9208" fill-rule="nonzero" cx="106.150579" cy="14.6456206" r="14.6456206"></circle>
                    <path d="M106.273157,323.506525 L106.028,323.506525 C77.6959051,323.506525 54.7275736,300.538826 54.7275736,272.206731 L54.7275736,210.682361 C54.7275736,202.533409 61.3335516,195.926799 69.4831359,195.926799 L142.81739,195.926799 C150.966342,195.926799 157.572952,202.532777 157.572952,210.682361 L157.572952,272.206731 C157.572952,300.538826 134.605252,323.506525 106.273157,323.506525 Z" id="Path" fill="#2E939C" fill-rule="nonzero"></path>
                    <g id="Group-14" transform="translate(69.114136, 214.196703)" fill-rule="nonzero">
                        <path d="M44.2294078,0 C47.7193848,0 50.5478946,2.8285098 50.5478946,6.31848683 C50.5478946,9.80846385 47.7193848,12.6369737 44.2294078,12.6369737 C40.7394308,12.6369737 37.910921,9.80846385 37.910921,6.31848683 C37.910921,2.8285098 40.7394308,0 44.2294078,0 Z M18.9554605,6.31848683 C18.9554605,9.80846385 21.7839703,12.6369737 25.2739473,12.6369737 C28.7639243,12.6369737 31.5924341,9.80846385 31.5924341,6.31848683 C31.5924341,2.8285098 28.7639243,0 25.2739473,0 C21.7839703,0 18.9554605,2.8285098 18.9554605,6.31848683 Z" id="Shape" fill="#E9E9E9"></path>
                        <path d="M6.31848683,0 C9.80846385,0 12.6369737,2.8285098 12.6369737,6.31848683 C12.6369737,9.80846385 9.80846385,12.6369737 6.31848683,12.6369737 C2.8285098,12.6369737 0,9.80846385 0,6.31848683 C0,2.8285098 2.8285098,0 6.31848683,0 Z" id="Path" fill="#ED9208"></path>
                    </g>
                    <path d="M145.205778,118.467205 L67.0953798,118.467205 C61.7031831,118.467205 57.3314221,114.096076 57.3314221,108.703247 C57.3314221,103.311051 61.7025512,98.9392897 67.0953798,98.9392897 L145.205778,98.9392897 C150.597974,98.9392897 154.969735,103.310419 154.969735,108.703247 C154.969735,114.096076 150.597974,118.467205 145.205778,118.467205 Z" id="Path" fill="#000000" fill-rule="nonzero"></path>
                    <path d="M85.6698355,101.121063 C81.4818634,101.121063 78.0876513,104.51646 78.0876513,108.703247 C78.0876513,112.891219 81.4818634,116.285432 85.6698355,116.285432 C89.8578076,116.285432 93.2520197,112.891219 93.2520197,108.703247 C93.2520197,104.51646 89.8578076,101.121063 85.6698355,101.121063 Z M85.6698355,111.736121 C83.9946465,111.736121 82.6369618,110.378436 82.6369618,108.703247 C82.6369618,107.028059 83.9946465,105.670374 85.6698355,105.670374 C87.3450244,105.670374 88.7027092,107.028059 88.7027092,108.703247 C88.7027092,110.378436 87.3450244,111.736121 85.6698355,111.736121 Z M122.06432,101.121063 C117.876347,101.121063 114.482135,104.51646 114.482135,108.703247 C114.482135,112.891219 117.876347,116.285432 122.06432,116.285432 C126.252292,116.285432 129.646504,112.891219 129.646504,108.703247 C129.646504,104.51646 126.252292,101.121063 122.06432,101.121063 Z M122.06432,111.736121 C120.389131,111.736121 119.031446,110.378436 119.031446,108.703247 C119.031446,107.028059 120.389131,105.670374 122.06432,105.670374 C123.739509,105.670374 125.097193,107.028059 125.097193,108.703247 C125.097193,110.378436 123.739509,111.736121 122.06432,111.736121 Z" id="Shape" fill="#FFFFFF" fill-rule="nonzero" transform="translate(103.867078, 108.703247) scale(1, -1) translate(-103.867078, -108.703247) "></path>
                    <path d="M28.6556015,237.910616 L6.51056883,237.910616 C2.91471797,237.910616 0,234.995898 0,231.400047 L0,209.272075 C0,205.676224 2.91471797,202.761506 6.51056883,202.761506 L28.6556015,202.761506 C32.2514523,202.761506 35.1661703,205.676224 35.1661703,209.272075 L35.1661703,231.400047 C35.1661703,234.995898 32.2514523,237.910616 28.6556015,237.910616 Z" id="Path" fill="#2E939C" fill-rule="nonzero"></path>
                    <path d="M32.5623219,303.469972 L2.60448027,303.469972 C1.16639267,303.469972 0,302.304211 0,300.865492 L0,260.04238 C0,258.604293 1.16576082,257.4379 2.60448027,257.4379 L32.5623219,257.4379 C34.0004095,257.4379 35.1668021,258.603661 35.1668021,260.04238 L35.1668021,300.865492 C35.1661703,302.304211 34.0004095,303.469972 32.5623219,303.469972 L32.5623219,303.469972 Z" id="Path" fill="#2E939C" fill-rule="nonzero"></path>
                    <g id="Group-10" transform="translate(177.134355, 257.437900)"></g>
                </g>
            </g>
            <g id="Group-11" transform="translate(254.141626, 178.311693) scale(1, -1) rotate(-28.000000) translate(-254.141626, -178.311693) translate(236.141626, 117.311693)" fill-rule="nonzero">
                <polygon id="Path" fill="#B8DAEE" transform="translate(18.385888, 45.421311) rotate(-180.000000) translate(-18.385888, -45.421311) " points="8.61750739 30.6537438 28.1542687 30.6537438 28.1542687 60.1888787 8.61750739 60.1888787"></polygon>
                <ellipse id="Oval" fill="#000000" cx="18.385888" cy="106.495173" rx="14.7656719" ry="14.7580897"></ellipse>
                <path d="M3.4066513,101.216709 L33.3644929,101.216709 C34.8025805,101.216709 35.9689732,100.050948 35.9689732,98.6122289 L35.9689732,57.7891174 C35.9689732,56.3510298 34.8032123,55.1846371 33.3644929,55.1846371 L3.4066513,55.1846371 C1.9685637,55.1846371 0.802171032,56.3503979 0.802171032,57.7891174 L0.802171032,98.6122289 C0.802802881,100.050948 1.9685637,101.216709 3.4066513,101.216709 Z" id="Path" fill="#2E939C"></path>
                <path d="M7.31337171,35.6573536 L29.4584043,35.6573536 C33.0542552,35.6573536 35.9689732,32.7426356 35.9689732,29.1467847 L35.9689732,7.01881202 C35.9689732,3.42296117 33.0542552,0.508243197 29.4584043,0.508243197 L7.31337171,0.508243197 C3.71752085,0.508243197 0.802802881,3.42296117 0.802802881,7.01881202 L0.802802881,29.1467847 C0.802802881,32.7426356 3.71752085,35.6573536 7.31337171,35.6573536 Z" id="Path" fill="#2E939C"></path>
            </g>
        </g>
        <polygon id="1" fill="#035AA6" fill-rule="nonzero" points="428.67842 63.5 425.432814 63.5 425.432814 50.9892578 421.558302 52.190918 421.558302 49.5517578 428.330275 47.1259766 428.67842 47.1259766"></polygon>
        <path d="M492.248309,140 L481.040302,140 L481.040302,137.776367 L486.329852,132.138672 C487.056093,131.345048 487.593278,130.652509 487.941425,130.061035 C488.289571,129.469561 488.463641,128.908043 488.463641,128.376465 C488.463641,127.650224 488.280212,127.079348 487.913348,126.663818 C487.546485,126.248289 487.022401,126.040527 486.341083,126.040527 C485.607355,126.040527 485.028992,126.29321 484.605975,126.798584 C484.182959,127.303958 483.971454,127.96842 483.971454,128.791992 L480.714618,128.791992 C480.714618,127.796219 480.952327,126.88656 481.427753,126.062988 C481.903178,125.239416 482.575128,124.593671 483.443622,124.125732 C484.312116,123.657794 485.296644,123.423828 486.397235,123.423828 C488.081814,123.423828 489.39015,123.828121 490.322284,124.636719 C491.254418,125.445317 491.720477,126.587069 491.720477,128.062012 C491.720477,128.87061 491.510844,129.694169 491.091571,130.532715 C490.672298,131.371261 489.953555,132.348302 488.935321,133.463867 L485.218036,137.383301 L492.248309,137.383301 L492.248309,140 Z" id="2" fill="#035AA6" fill-rule="nonzero"></path>
        <path d="M416.413574,243.386719 L418.143066,243.386719 C418.966638,243.386719 419.576821,243.180829 419.973633,242.769043 C420.370445,242.357257 420.568848,241.810713 420.568848,241.129395 C420.568848,240.470537 420.372316,239.957684 419.979248,239.59082 C419.58618,239.223956 419.045251,239.040527 418.356445,239.040527 C417.735023,239.040527 417.214683,239.210854 416.79541,239.551514 C416.376137,239.892173 416.166504,240.335772 416.166504,240.882324 L412.920898,240.882324 C412.920898,240.028804 413.151121,239.263268 413.611572,238.585693 C414.072024,237.908118 414.715898,237.37842 415.543213,236.996582 C416.370528,236.614744 417.282059,236.423828 418.277832,236.423828 C420.007333,236.423828 421.362463,236.83748 422.343262,237.664795 C423.324061,238.49211 423.814453,239.631991 423.814453,241.084473 C423.814453,241.833174 423.586103,242.52197 423.129395,243.150879 C422.672687,243.779788 422.073734,244.262694 421.33252,244.599609 C422.253423,244.929038 422.940346,245.423174 423.393311,246.082031 C423.846275,246.740889 424.072754,247.519527 424.072754,248.417969 C424.072754,249.87045 423.543055,251.034664 422.483643,251.910645 C421.42423,252.786625 420.022307,253.224609 418.277832,253.224609 C416.645662,253.224609 415.311122,252.794112 414.27417,251.933105 C413.237218,251.072099 412.71875,249.934089 412.71875,248.519043 L415.964355,248.519043 C415.964355,249.132978 416.194578,249.634601 416.655029,250.023926 C417.115481,250.413251 417.682614,250.60791 418.356445,250.60791 C419.127608,250.60791 419.732176,250.403892 420.170166,249.99585 C420.608156,249.587807 420.827148,249.046878 420.827148,248.373047 C420.827148,246.740877 419.92872,245.924805 418.131836,245.924805 L416.413574,245.924805 L416.413574,243.386719 Z" id="3" fill="#035AA6" fill-rule="nonzero"></path>
        <path d="M465.213867,360.898438 L465.213867,371.095703 L467.066895,371.095703 L467.066895,373.712402 L465.213867,373.712402 L465.213867,377.25 L461.968262,377.25 L461.968262,373.712402 L455.263672,373.712402 L455.117676,371.668457 L461.93457,360.898438 L465.213867,360.898438 Z M461.968262,365.323242 L461.754883,365.693848 L458.352051,371.095703 L461.968262,371.095703 L461.968262,365.323242 Z" id="4" fill="#035AA6" fill-rule="nonzero"></path>
        <path d="M316.415146,427.958984 L317.358506,419.648438 L326.522568,419.648438 L326.522568,422.35498 L320.020127,422.35498 L319.61583,425.870117 C320.386993,425.458331 321.206809,425.252441 322.075303,425.252441 C323.632602,425.252441 324.852968,425.735347 325.736436,426.701172 C326.619903,427.666997 327.061631,429.018383 327.061631,430.755371 C327.061631,431.81104 326.838895,432.756262 326.393418,433.591064 C325.94794,434.425867 325.309682,435.073484 324.478623,435.533936 C323.647564,435.994387 322.66678,436.224609 321.53624,436.224609 C320.547954,436.224609 319.630808,436.024335 318.784775,435.623779 C317.938742,435.223224 317.270536,434.659834 316.780137,433.933594 C316.289737,433.207353 316.029567,432.38005 315.999619,431.45166 L319.211533,431.45166 C319.278916,432.132979 319.516626,432.662677 319.924668,433.040771 C320.33271,433.418866 320.866152,433.60791 321.52501,433.60791 C322.258737,433.60791 322.823999,433.343997 323.220811,432.816162 C323.617622,432.288327 323.816025,431.541509 323.816025,430.575684 C323.816025,429.647294 323.587675,428.936038 323.130967,428.441895 C322.674259,427.947751 322.026642,427.700684 321.188096,427.700684 C320.416933,427.700684 319.791776,427.90283 319.312607,428.307129 L318.998154,428.599121 L316.415146,427.958984 Z" id="5" fill="#035AA6" fill-rule="nonzero"></path>
    </g>
</svg>