<?xml version="1.0" encoding="UTF-8"?>
<svg width="337px" height="88px" viewBox="0 0 337 88" version="1.1" xmlns="http://www.w3.org/2000/svg" xmlns:xlink="http://www.w3.org/1999/xlink">
    <!-- Generator: Sketch 59.1 (86144) - https://sketch.com -->
    <title>How_Does_RPA_Development_cycle_Users</title>
    <desc>Created with Sketch.</desc>
    <defs>
        <filter x="-10.1%" y="-55.3%" width="120.1%" height="210.6%" filterUnits="objectBoundingBox" id="filter-1">
            <feGaussianBlur stdDeviation="2" in="SourceGraphic"></feGaussianBlur>
        </filter>
        <filter x="-10.1%" y="-55.3%" width="120.1%" height="210.6%" filterUnits="objectBoundingBox" id="filter-2">
            <feGaussianBlur stdDeviation="2" in="SourceGraphic"></feGaussianBlur>
        </filter>
        <filter x="-10.1%" y="-55.3%" width="120.1%" height="210.6%" filterUnits="objectBoundingBox" id="filter-3">
            <feGaussianBlur stdDeviation="2" in="SourceGraphic"></feGaussianBlur>
        </filter>
        <filter x="-10.1%" y="-55.3%" width="120.1%" height="210.6%" filterUnits="objectBoundingBox" id="filter-4">
            <feGaussianBlur stdDeviation="2" in="SourceGraphic"></feGaussianBlur>
        </filter>
    </defs>
    <g id="How_Does_RPA_Development_cycle_Users" stroke="none" stroke-width="1" fill="none" fill-rule="evenodd" transform="translate(0.000000, 1.000000)">
        <g id="Group" transform="translate(3.000000, 0.000000)">
            <polygon id="Path-28" fill="#000000" opacity="0.170921689" filter="url(#filter-1)" points="0.591869114 47.2 37.5909427 47.8153846 60.1722356 36.9631014 22.0265132 37.0170964"></polygon>
            <g id="Group-2" transform="translate(259.476923, 0.800000)">
                <polygon id="Path-28-Copy" fill="#000000" opacity="0.170921689" filter="url(#filter-2)" points="9.23705556e-14 46.4 36.9990736 47.0153846 59.5803665 36.1631014 21.4346441 36.2170964"></polygon>
                <g id="Developer" transform="translate(0.000000, -0.000000)">
                    <g id="Group-42" transform="translate(0.101780, 0.505263)">
                        <path d="M24.5167189,28.6390232 C23.4582961,27.0119747 22.8344651,25.4279747 22.8754049,23.4177347 C22.88428,22.9836126 22.5332856,22.7938358 22.2192229,22.8465853 C22.1825775,22.8011116 22.13992,22.7580632 22.0849518,22.7210779 C20.4885858,21.6451705 18.4255633,21.9161937 16.7215514,22.5613137 C16.5832722,22.61376 16.4945215,22.7350232 16.4547269,22.8714442 C16.2523182,22.9050947 16.0808291,23.0888084 16.1455312,23.3819621 C16.6668695,25.7420463 15.8729809,27.3108884 14.8394656,29.3005137 C14.2863488,30.3661137 14.1005451,31.5196295 14.4283498,32.6977011 C15.1815849,35.4055074 17.8252083,36.6487579 20.331125,36.4999074 C22.754017,36.3559074 25.1760501,35.0744589 25.5336292,32.2984421 C25.7131345,30.9036126 25.2493409,29.7655579 24.5167189,28.6390232" id="Fill-37" fill="#EFD9C6"></path>
                        <path d="M29.8722695,12.3188211 C30.0150568,11.0525305 30.0511326,9.79412211 29.9034947,8.63787789 C29.1292295,2.57077895 21.03552,3.22711579 16.5975916,3.25743158 C13.9316211,3.27562105 12.3251874,4.58556632 11.6094316,7.13633684 C11.1198316,8.88161684 10.9270232,10.7208758 10.9397558,12.5583158 C10.5162442,12.4837389 10.0690863,12.6247074 9.76047158,12.9548463 C9.28997053,13.4586947 9.27147789,14.2399326 9.34787368,14.8826274 C9.42487579,15.5286568 9.66922105,16.2131874 10.2588632,16.5609095 C10.5808168,16.7506863 10.9558232,16.8104084 11.2929347,16.7224926 C11.3080926,16.8204126 11.3223411,16.9186358 11.3387116,17.0159495 C11.3487158,17.0771874 11.3720589,17.1278147 11.4038905,17.1693474 C11.7385768,18.9006821 12.3836968,20.5450105 13.4523284,21.9986526 C16.2447158,25.7975242 21.4032505,26.8597895 25.1066274,23.7351411 C27.0729095,22.0756547 28.2330947,19.7186021 28.8870063,17.2687832 C28.9403621,17.0693053 28.9931116,16.86528 29.0452547,16.6588295 C29.1034611,16.6806568 29.1701558,16.6912674 29.2456421,16.6870232 C31.1570526,16.5806147 31.5105347,12.7908379 29.8722695,12.3188211" id="Fill-38" fill="#EBC6AC"></path>
                        <path d="M33.6759916,6.26233263 C33.6684126,6.27112421 33.6620463,6.2784 33.6544674,6.28719158 C33.6399158,6.29568 33.6286989,6.30992842 33.6199074,6.32751158 C32.1514105,8.04399158 33.0869558,6.21564632 33.1703242,5.72362105 C33.3037137,4.93359158 33.1406147,4.12416 32.9784253,3.35292632 C32.9520505,3.22893474 32.7877389,3.27380211 32.7747032,3.38051368 C32.5191411,5.48230737 30.3048758,5.65086316 28.8388042,4.71956211 C28.2670484,4.35668211 27.6101053,3.84677053 27.0692716,3.38536421 C27.4473095,3.27804632 27.6173811,3.11919158 27.8520253,2.75509895 C27.9181137,2.65263158 27.80928,2.54622316 27.7059032,2.56532211 C26.0127663,2.87848421 24.8158989,1.89594947 23.2370526,1.52882526 C22.2208674,1.29266526 21.2028632,1.26265263 20.17728,1.40968421 C20.3900968,1.05589895 20.4034358,0.810341053 20.3100632,0.354391579 C20.28672,0.240404211 20.1202863,0.226458947 20.0660211,0.32256 C19.5136674,1.30297263 17.8244716,0.849751579 16.9398568,0.882189474 C16.2071242,0.908867368 15.47712,1.00678737 14.7865263,1.26234947 C14.1914274,1.48304842 13.1179453,1.99326316 12.8466189,2.68719158 C12.6683621,2.18031158 12.4813137,1.6992 12.3906695,1.15866947 C12.3709642,1.04195368 12.2151411,1.04862316 12.1599663,1.12865684 C11.64672,1.872 11.3841853,2.82179368 11.6342905,3.70974316 C10.6778274,4.18327579 9.99663158,4.83809684 9.47914105,5.77606737 C9.41517474,5.89217684 9.54250105,6.01525895 9.65770105,5.95432421 C9.78442105,5.88702316 10.7924211,5.35770947 10.92096,5.70543158 C10.9506695,5.78607158 10.5098779,6.40148211 10.4568253,6.50758737 C10.2094484,7.00203789 10.0208842,7.52559158 9.86960842,8.05642105 C9.54098526,9.20872421 9.41972211,10.3919495 9.33241263,11.5824505 C9.32271158,11.7131116 9.51582316,11.7582821 9.57584842,11.6482358 C9.67589053,11.4384505 9.80624842,11.2553432 9.96449684,11.0961853 C9.73197474,11.6852211 9.58706526,12.3357979 9.69347368,12.9639411 C9.68437895,12.9718232 9.67467789,12.9794021 9.66558316,12.9872842 C9.58949053,13.0542821 9.68771368,13.1776674 9.77290105,13.1264337 C10.1463916,12.9024 10.6584253,12.4788884 11.0219116,13.1506863 C11.1092211,13.3119663 11.1137684,13.5711663 11.1440842,13.7509389 C11.232,14.2660042 11.2732295,14.7816758 11.2908126,15.3031074 C11.2944505,15.4155789 11.4336,15.4355874 11.4857432,15.3649516 C11.7782905,15.4161853 12.1563284,15.5131958 12.3794526,15.2858274 C12.6065179,15.0542147 12.4913179,14.4075789 12.48192,14.1420126 C12.4704,13.8230905 12.1693642,12.0805389 12.6383495,13.2916547 C12.6671495,13.3659284 12.7908379,13.3865432 12.8105432,13.2916547 C13.00608,12.3518653 13.0685305,11.3950989 13.0094147,10.4440926 C13.0136589,10.3328337 13.0200253,10.2218779 13.0236632,10.1106189 C13.0260884,10.0445305 13.0027453,9.99572211 12.9672758,9.96176842 C12.91968,9.51612632 12.8484379,9.07230316 12.7480926,8.63302737 C12.9333221,8.88040421 13.0752,9.15294316 13.1697853,9.45276632 C13.2034358,9.55978105 13.3425853,9.55189895 13.3792674,9.45276632 C13.6242189,8.79279158 13.73184,8.11129263 13.6681768,7.42100211 C13.7163789,7.47920842 13.7664,7.53559579 13.8161179,7.59228632 C14.6810274,8.76914526 16.0722189,9.49581474 17.5146442,9.70772211 C17.6195368,9.72318316 17.7080589,9.60768 17.6237811,9.52067368 C17.4337011,9.32513684 17.3015242,9.11110737 17.1863242,8.88525474 C17.1575242,8.75459368 17.1350905,8.62362947 17.1150821,8.49327158 C19.7255747,10.8627537 23.4995874,12.0414316 26.9671074,11.34144 C27.0898863,11.3165811 27.0629053,11.1161937 26.9373979,11.12256 L26.4320337,10.9409684 C26.9004126,11.04192 27.3790989,11.0895158 27.8568758,11.0913347 C27.9087158,11.8571116 27.8656674,12.5910568 27.6955958,13.3447074 C27.66528,13.4787032 27.8235284,13.5751074 27.9256926,13.4787032 C28.0060295,13.4029137 28.0863663,13.3271242 28.1664,13.2516379 C28.1739789,13.6584758 28.0605979,14.04864 27.9235705,14.4451705 C27.8229221,14.7358989 27.6367832,15.0769516 27.6737684,15.3928421 C27.6919579,15.5492716 27.7856337,15.6847832 27.9044716,15.7614821 C27.9126568,15.7699705 27.91872,15.7802779 27.9287242,15.7860379 C28.18944,15.9427705 28.5326147,15.9676295 28.8269811,16.0088589 C28.9021642,16.0194695 28.9724968,15.9797558 28.9746189,15.8963874 C28.9940211,15.1669895 29.0631411,14.4424421 29.1913768,13.7236547 C29.22624,13.5287242 29.2347284,13.1682695 29.3399242,13.0009263 C29.8246737,12.2287832 30.1078232,12.6753347 30.5486147,12.8784505 C30.6080337,12.9060379 30.6804884,12.8314611 30.6237979,12.7808337 C30.6192505,12.7768926 30.6153095,12.7741642 30.6107621,12.7702232 C30.6174316,12.7587032 30.6268295,12.7486989 30.6271326,12.7338442 C30.6453221,12.0735663 30.5977263,11.2641347 30.3746021,10.6362947 C32.1380716,9.95418947 33.5444211,8.52570947 33.84,6.45453474 C33.8442442,6.44907789 33.8484884,6.44483368 33.8530358,6.43937684 C33.9521684,6.31568842 33.7811874,6.13803789 33.6759916,6.26233263" id="Fill-39" fill="#4A4343"></path>
                        <path d="M30.4764632,12.6783663 C30.4816168,12.6783663 30.4816168,12.6701811 30.4764632,12.6701811" id="Stroke-40" stroke-linecap="round" stroke-linejoin="round"></path>
                        <path d="M0.613486601,46.6746249 L2.29958772,40.1522616 C3.33458766,36.1485602 6.21267989,32.876114 10.051419,31.3382805 L14.8085637,29.4325254 L14.8085637,29.4325254 C16.8709283,30.1412424 18.6229381,30.4956009 20.0645929,30.4956009 C21.5062477,30.4956009 23.124564,30.1412424 24.9195417,29.4325254 L29.3117283,31.2978234 C33.005657,32.8665814 35.7679544,36.0535044 36.7961739,39.9327924 L38.58622,46.6863158 L38.58622,46.6863158 L0.613486601,46.6746249 Z" id="Path-7" fill="#C4C4C4"></path>
                    </g>
                </g>
            </g>
            <polygon id="Path-28-Copy-2" fill="#000000" opacity="0.170921689" filter="url(#filter-3)" points="179.276923 47.2 216.275997 47.8153846 238.85729 36.9631014 200.711567 37.0170964"></polygon>
            <g id="Group-3" transform="translate(97.876923, 1.600000)">
                <polygon id="Path-28-Copy-3" fill="#000000" opacity="0.170921689" filter="url(#filter-4)" points="3.6 45.6 40.5990736 46.2153846 63.1803665 35.3631014 25.0346441 35.4170964"></polygon>
                <g id="Business-User">
                    <g id="Group-132" transform="translate(0.093857, 0.492308)">
                        <path d="M24.5988551,29.8080903 C23.3748578,28.0313837 22.653503,26.3017793 22.7009346,24.1067529 C22.7114749,23.6327668 22.3053423,23.4255832 21.9423593,23.4832257 C21.8998685,23.4334884 21.85079,23.3863863 21.7872186,23.3458718 C19.941341,22.170953 17.5559296,22.4674001 15.5852148,23.1716268 C15.4254628,23.2286105 15.3230238,23.361353 15.2769098,23.5102353 C15.0430459,23.5467971 14.8447557,23.747393 14.9195263,24.0675559 C15.5223022,26.6449992 14.6043042,28.3574756 13.4096221,30.5304332 C12.7699551,31.6938236 12.5548662,32.953724 12.9339892,34.2399752 C13.804885,37.1965414 16.8615845,38.5542694 19.7588613,38.3915529 C22.5609457,38.2344359 25.3610537,36.8352053 25.7744328,33.8038685 C25.9822752,32.2807889 25.4460352,31.0380166 24.5988551,29.8080903" id="Fill-123" fill="#EFD9C6"></path>
                        <path d="M29.7876684,11.9873346 C29.9434678,10.6045733 29.9826647,9.23070548 29.8215951,7.96784062 C28.976062,1.34323498 20.1383137,2.05997831 15.2920615,2.09291688 C12.3812799,2.11268002 10.6269716,3.54287283 9.84533924,6.32815849 C9.31074621,8.23398428 9.10026873,10.2425784 9.11443232,12.2488669 C8.65197476,12.1675086 8.16349574,12.3213317 7.82653414,12.6820091 C7.31269242,13.2317538 7.29259989,14.0851923 7.37593448,14.7867838 C7.45992784,15.4923281 7.72673027,16.2397043 8.37067936,16.619486 C8.72246331,16.8266696 9.13156038,16.891888 9.49981361,16.7960367 C9.5162829,16.9027577 9.53209341,17.0101375 9.54955086,17.1165291 C9.56074997,17.183065 9.58644206,17.2384018 9.62135695,17.283857 C9.98631633,19.1742017 10.6908724,20.9700126 11.8575566,22.5573224 C14.9066802,26.7052768 20.5395055,27.8653733 24.5837034,24.4532666 C26.7309689,22.6413158 27.997457,20.0674957 28.7115652,17.3922249 C28.7698665,17.1748303 28.8271796,16.9518362 28.8844928,16.7265364 C28.9480642,16.7502521 29.0205291,16.7617806 29.1032049,16.7571692 C31.1905222,16.6408961 31.5762329,12.5028232 29.7876684,11.9873346" id="Fill-124" fill="#EBC6AC"></path>
                        <path d="M27.9655066,3.24148489 C25.4549286,0.994744881 22.0879478,0.306987493 18.7805857,0.213771334 C15.7584717,0.128789817 12.5558543,0.93940808 10.4691958,3.25367216 C8.25638251,5.70825457 7.63219657,9.21193049 8.01263708,12.4063132 C8.02153049,12.4814132 8.06896204,12.5298329 8.12495761,12.5509136 C8.1460383,12.5950512 8.19017598,12.6256841 8.2474891,12.6049328 C8.43721527,12.5360912 8.62628268,12.4985412 8.80382158,12.5061171 C9.0156166,12.6299661 9.24388091,12.7281231 9.45073514,12.8888633 C9.45435838,12.8944629 9.45831101,12.8980861 9.46160487,12.9033563 C9.71490249,13.3180529 9.64737842,13.8220131 9.62629773,14.2841412 C9.62399203,14.3338785 9.64046132,14.3707697 9.66516525,14.3984381 C9.67208235,14.4396113 9.6938218,14.4774906 9.74322966,14.4863841 C10.1826302,14.5660954 10.6809908,14.5463323 11.0950287,14.3645113 C11.160247,14.3355254 11.1826453,14.2775535 11.1777045,14.2189229 C11.2057023,14.1945483 11.2238185,14.1569983 11.2221716,14.1049554 C11.1418014,11.6945107 10.4444919,7.51098262 13.7877569,7.03699657 C15.919212,6.73462048 17.709094,8.9072487 19.914002,8.65625678 C21.9130439,8.42865125 23.2941583,6.55247017 25.3452432,6.5979254 C29.2263951,6.68356569 28.010303,12.1246884 27.3844702,14.4017319 C27.370636,14.4521279 27.3712947,14.4972538 27.3798588,14.5387564 C27.3637189,14.5463323 27.3482377,14.5535787 27.3314391,14.5608252 C27.2497514,14.5973871 27.3041001,14.7014729 27.3719535,14.710037 C27.5916538,14.7380348 27.846269,14.903057 28.0682749,14.8319097 C28.0705806,14.8312509 28.0718982,14.8292746 28.0742039,14.8286158 C28.2300033,14.8256514 28.3858028,14.8220281 28.5416022,14.8184049 C28.6479938,14.8160992 28.7474683,14.7278238 28.743845,14.6164914 C28.7250701,14.0683936 28.7247407,13.4771462 28.8713173,12.9442001 C28.9236897,12.7538152 29.0129532,12.4333229 29.1941153,12.3180379 C29.6055181,12.0558468 30.0218616,12.3414242 30.3726574,12.5545368 C30.4230535,12.5851697 30.4721319,12.572653 30.5060587,12.5416908 C30.6269432,12.5752881 30.7718729,12.5127048 30.776155,12.3450475 C30.8542194,9.22675285 30.4029609,5.42333592 27.9655066,3.24148489" id="Fill-125" fill="#4A4343"></path>
                        <path d="M25.6953802,30.8561957 C25.6321381,30.5604073 25.3939923,30.2985457 25.2227117,30.0548002 C25.040232,29.7949149 24.8350247,29.575544 24.5988551,29.3634196 C24.5606464,29.3294929 24.5076153,29.321917 24.4601837,29.3334455 C24.4038588,29.1710583 24.2029335,29.0646667 24.0553687,29.2300184 C23.4400761,29.9197521 22.6772188,30.327861 21.8306975,30.617391 C21.7737138,30.5231867 21.6692985,30.4668618 21.532274,30.5195635 C20.8491281,30.7830721 20.1551123,30.9385421 19.4192646,30.9398597 C18.8336168,30.9405184 18.2627914,30.7438752 17.6857076,30.8268804 C17.6791199,30.8278685 17.6741791,30.8314918 17.6682501,30.8334681 C17.1922878,30.7504629 16.7186311,30.646377 16.2713253,30.4678499 C15.6230942,30.2089527 15.1477906,29.7349667 14.5456735,29.4243559 C14.5881643,29.2135491 14.2841412,29.0808066 14.1346001,29.2784381 C11.4244144,32.8595196 10.6846141,37.7848243 11.968889,42.0800142 C12.2112809,42.8905866 12.759076,44.0276335 13.6122741,45.4911548 L26.6331956,45.4911548 C27.4343449,43.6019289 27.9067757,42.1510872 28.0504881,41.1386298 C28.5643298,37.5176925 27.7958729,33.8648049 25.694392,30.9428241 C25.6996622,30.914497 25.7019679,30.885511 25.6953802,30.8561957 Z" id="Fill-126" fill="#F1F0EB"></path>
                        <path d="M20.5852901,33.3694087 C20.6538023,33.3618329 20.7190207,33.322636 20.7486654,33.2406189 C21.007892,32.5189348 21.3333251,31.5996193 21.2074997,30.8081054 C21.3250904,30.696773 21.2275923,30.4470986 21.0286433,30.4754258 C21.0003161,30.4691675 20.9696832,30.4675205 20.9354271,30.4757552 C20.7865448,30.5109994 20.6363449,30.5350446 20.486145,30.5564547 C20.1995794,30.5880757 19.9149901,30.6015805 19.6300715,30.6019099 C19.3329656,30.5933459 19.0358597,30.5663362 18.7417182,30.5070468 C18.662995,30.4912363 18.6013999,30.5218692 18.562203,30.5693007 C18.4512,30.5643599 18.3395382,30.5597485 18.2275471,30.5554665 C18.1669401,30.5531608 18.1402599,30.5940046 18.1402599,30.6388011 C18.1020511,30.6733866 18.0789941,30.7257589 18.0905226,30.7853778 C18.1761629,31.216873 18.3349268,31.6223469 18.4821623,32.035726 C18.6132578,32.402991 18.709109,32.8081355 18.9192571,33.13818 C18.9307856,33.1562962 18.9459374,33.1704598 18.9630654,33.1819883 C18.9640536,33.2136093 18.9788759,33.2452303 19.0160965,33.2672992 C19.0253193,33.2728987 19.0332246,33.2788277 19.0417886,33.2844272 C19.0352009,33.2956263 19.0289426,33.3071548 19.0256487,33.3216478 C18.1863739,37.1636029 17.6626506,41.3932449 17.218968,45.2984421 C17.2074395,45.4005516 22.9539028,45.4236086 22.9272226,45.2984421 C22.0823482,41.3356024 21.7803015,37.2443024 20.5852901,33.3694087 Z" id="Fill-129" fill="#292929"></path>
                        <path d="M0.633049687,46.7989028 L2.23370721,40.6070619 C3.26870715,36.6033605 6.14679938,33.3309143 9.98553852,31.7930808 L14.4641505,29.9989085 L14.4641505,29.9989085 C16.4823278,38.4331199 18.1937611,42.6502256 19.5984505,42.6502256 C21.0031398,42.6502256 22.5756138,38.4331199 24.3158726,29.9989085 L28.4453172,31.7526237 C32.1392459,33.3213817 34.9015433,36.5083047 35.9297628,40.3875927 L37.6321233,46.8102939 L37.6321233,46.8102939 L0.633049687,46.7989028 Z" id="Path-7" fill="#333333"></path>
                        <path d="M17.4940051,30.5949928 C16.7845082,30.5001297 14.8562842,29.9915582 14.4560806,29.1384491 C14.4508104,29.0992522 14.4369762,29.0620317 14.4182012,29.0277755 C14.4109547,29.0030716 14.3994262,28.9793558 14.3944854,28.9539931 C14.3740635,28.8466134 14.2637193,28.8242152 14.1830198,28.8634121 C14.1138488,28.85913 14.0427015,28.8858103 13.9824239,28.9599221 C13.0976939,30.0485419 12.4323347,30.6483533 13.2548108,32.002458 C14.012398,33.2498417 15.0631385,34.2715962 16.2532091,35.1032952 C16.4281129,35.2254973 16.6669175,35.0614632 16.6665882,34.8658081 C16.6639531,33.46526 17.007173,32.1760443 17.7051413,30.9625873 C17.8069215,30.7860365 17.6712146,30.6187086 17.4940051,30.5949928" id="Fill-127" fill="#E4E4DF"></path>
                        <path d="M24.731927,28.9954957 C24.7108463,28.9773795 24.6877893,28.970133 24.665391,28.9589339 C24.6074191,28.7889709 24.3817899,28.6694039 24.21018,28.8321204 C23.447652,29.5557809 22.5583106,30.0403072 21.5576367,30.3532237 C21.4090838,30.3996671 21.3824035,30.5380091 21.4324702,30.6417656 C21.4202829,30.68228 21.4225886,30.7280646 21.4499276,30.7748374 C22.0695022,31.83513 22.4413786,32.864131 22.198292,34.0996569 C22.1623889,34.2821366 22.3237879,34.517318 22.5342654,34.4353009 C24.4101171,33.704394 26.8047513,30.7425576 24.731927,28.9954957" id="Fill-128" fill="#E4E4DF"></path>
                        <path d="M25.5887904,32.1331963 C26.0627765,33.7237999 26.1148194,35.5439854 26.7133133,37.0779347 C26.7044199,37.0792523 26.6961852,37.0782641 26.686633,37.081558 C25.7903745,37.3908512 24.8638125,37.5898001 23.9639307,37.8816359 C23.8654443,37.8444153 23.7389602,37.8901999 23.7455479,38.0272244 C23.8117545,39.4182203 23.859186,40.8497306 24.0508885,42.2298568 C24.0265139,42.2407265 24.0037863,42.256537 23.9883052,42.2835467 C23.4213762,43.267762 22.6045925,44.7766777 21.5379542,46.8102939 L20.0228607,46.7557284 C19.9457058,45.9242833 19.8648392,44.8274474 19.780261,43.4652207 C19.7710382,43.3189735 19.5483735,43.316009 19.5500204,43.4652207 C19.5657381,44.8223361 19.5625169,45.9078243 19.5403567,46.7216852 L18.0765503,46.6334097 C16.6311294,44.3667788 15.4847373,42.7432382 14.6373739,41.7627879 C14.9176812,40.4211998 14.9898167,38.8256554 14.7503532,37.4847261 C14.7411304,37.4326831 14.7042392,37.4165432 14.6660305,37.4188489 C14.6436323,37.3750406 14.6034472,37.3391376 14.5428402,37.3315617 C13.9710266,37.2610732 13.4011893,37.2070539 12.8376104,37.0825461 C12.4446532,36.9952589 12.0599307,36.8714099 11.6617033,36.8167318 C11.9838426,35.983386 12.204531,35.0993147 12.4528878,34.2429118 C12.5971588,33.7458688 13.0118554,32.9714829 12.832999,32.4563237 C12.7941314,32.3443325 12.6389908,32.3664014 12.629768,32.4836627 C12.5757487,33.1753727 12.1870736,33.9619458 11.9864776,34.6325751 C11.7641423,35.3750105 11.508539,36.1184341 11.3593272,36.8789857 C11.3425286,36.964626 11.3919364,37.020951 11.4532022,37.0357734 C12.3211335,37.5005366 13.5685173,37.6036343 14.5428402,37.6316321 C14.3821,38.9906776 14.3313746,40.4515033 14.3277514,41.8161483 C14.327422,41.8965185 14.3886877,41.9469145 14.455553,41.9587724 C15.1174541,43.0392419 16.1426117,44.6366717 17.5310257,46.7510616 L22.1988964,46.6790926 C23.193365,44.7846213 23.8793177,43.3570991 24.2567546,42.396526 C24.2653186,42.3747865 24.2666361,42.354694 24.2646598,42.3355896 C24.2867287,42.3148383 24.3018804,42.2865111 24.303198,42.252255 C24.3486532,40.88761 24.2162401,39.4771803 24.0841564,38.1164879 C25.003472,38.0031792 25.9023656,37.6787343 26.757451,37.3388082 C26.8312334,37.3094929 26.8552785,37.2376868 26.8434206,37.1760917 C26.8483614,37.167857 26.8542904,37.1602812 26.8552785,37.1487527 C27.0285354,35.5110468 26.2966403,33.6170789 25.8845788,32.0515086 C25.8345122,31.8607943 25.5321361,31.9431287 25.5887904,32.1331963 Z" id="Fill-131" fill="#131514"></path>
                    </g>
                </g>
            </g>
            <g id="Business-Analyst" transform="translate(177.676923, 0.000000)">
                <g id="Group-88" transform="translate(0.040052, 0.518919)">
                    <path d="M25.0942962,29.2013319 C23.9491459,27.5393384 23.2744476,25.9209341 23.3186595,23.8672605 C23.3283114,23.4238962 22.9484627,23.2299243 22.6087784,23.2840995 C22.5689254,23.2377081 22.5231568,23.1934962 22.4636886,23.1555114 C20.7366227,22.0564411 18.5048562,22.3335438 16.6613449,22.9923632 C16.5118962,23.0459157 16.416,23.1698335 16.3730335,23.3093189 C16.1538422,23.3435676 15.9685881,23.5313124 16.0386422,23.8308324 C16.6021881,26.2419373 15.7434811,27.8444627 14.6257297,29.8772757 C14.0273124,30.96576 13.8261795,32.1442249 14.1808086,33.3479092 C14.9956151,36.1139546 17.8556886,37.3839568 20.5663135,37.2320173 C23.1875805,37.0850595 25.8072908,35.775827 26.1943005,32.9397276 C26.3885838,31.5146724 25.8869968,30.3520865 25.0942962,29.2013319" id="Fill-78" fill="#EFD9C6"></path>
                    <path d="M29.9485751,12.5287784 C30.0945989,11.2351135 30.1313384,9.94954378 29.9806443,8.76827676 C29.1895005,2.57020541 20.9209427,3.24085622 16.3870443,3.27168 C13.6636541,3.29004973 12.0225211,4.62823784 11.2911568,7.23424865 C10.7911265,9.01735784 10.5940411,10.8963632 10.6071178,12.7735005 C10.1746508,12.6972195 9.71789838,12.8410638 9.40249946,13.1785686 C8.92177297,13.6929211 8.90278054,14.4912259 8.98092973,15.1478659 C9.05939027,15.8079308 9.30909405,16.5072259 9.91155892,16.8624778 C10.2403459,17.0564497 10.6233081,17.1171632 10.9676627,17.0274941 C10.9835416,17.1274378 10.9981751,17.2280043 11.0146768,17.3273254 C11.0249514,17.389907 11.0489254,17.4415914 11.0813059,17.4839351 C11.4231697,19.2527222 12.0823005,20.9327741 13.1738984,22.4176086 C16.0264995,26.2986032 21.2964324,27.3839741 25.0799741,24.1913773 C27.088813,22.4963805 28.2738162,20.0883892 28.9419762,17.5854357 C28.9964627,17.3818119 29.0503265,17.1735178 29.1038789,16.9624216 C29.163347,16.9845276 29.2312216,16.9957362 29.3084368,16.9913773 C31.2612324,16.8824043 31.6220886,13.0110616 29.9485751,12.5287784" id="Fill-79" fill="#EBC6AC"></path>
                    <path d="M30.8023005,12.9173449 C30.8082162,12.9014659 30.8135092,12.8852757 30.8150659,12.8659719 C30.9953384,10.4296476 31.1152086,7.85477189 30.1135914,5.56416 C29.2240605,3.52979027 27.5303092,2.36377946 25.5111957,1.58041946 C23.0303481,0.617721081 20.130733,0.0118313514 17.4605838,0.295472432 C15.6833903,0.484462703 13.5447178,1.31016649 13.1533492,3.23836541 C8.75302054,2.95628108 9.38848865,9.19046919 9.47940324,12.3513081 C9.45169297,12.4867459 9.42616216,12.6224951 9.40623568,12.758867 C9.39533838,12.8351481 9.42771892,12.9220151 9.48812108,12.9659157 C9.48812108,13.0141751 9.48843243,13.0643027 9.48749838,13.10976 C9.48749838,13.1106941 9.48812108,13.1110054 9.48812108,13.1116281 C9.48002595,13.1222141 9.4700627,13.1296865 9.46259027,13.1412065 C9.42086919,13.2025427 9.51116108,13.265747 9.56191135,13.2181103 C10.0258249,12.7831524 10.6696995,13.0593211 10.9206486,13.5724281 C11.1675503,14.0771286 11.0156108,14.5936605 11.0548411,15.1207784 C11.0585773,15.1724627 11.1002984,15.1973708 11.1407741,15.1951914 C11.1572757,15.2331762 11.1983741,15.2627546 11.2485016,15.2537254 C11.3873643,15.2291286 11.5265384,15.2064 11.6672692,15.1958141 C11.7858941,15.1870962 11.9042076,15.2026638 12.0116238,15.1463092 C12.0483632,15.1273168 12.0611286,15.0933795 12.0580151,15.0591308 C12.1000476,15.0775005 12.1539114,15.0613103 12.1573362,14.9987286 C12.2333059,13.6437276 13.3192995,13.0088822 14.0883373,12.0589492 C14.5164454,11.5302746 14.8729427,10.9477362 15.1481773,10.3256562 C15.4069103,9.74124973 15.5887395,9.13255784 15.6989578,8.51234595 C16.3039135,9.73782486 18.0546422,10.4866249 19.2605059,10.9580108 C20.6083459,11.4851286 21.9443546,11.7254919 23.3849773,11.7647222 C24.6493751,11.7992822 26.0921773,11.8297946 27.1834638,12.423853 C27.1903135,12.4285232 27.1940497,12.4344389 27.2018335,12.4384865 C27.2429319,12.4605924 27.2840303,12.4826984 27.3251286,12.5048043 C27.8011849,12.7946724 28.2025168,13.2016086 28.4780627,13.7829016 C28.4989232,13.9392 28.5148022,14.0967438 28.529747,14.2539762 C28.5378422,14.3405319 28.5341059,14.4289557 28.5462486,14.5114638 C28.5070184,14.5572324 28.5129341,14.6428541 28.5848562,14.6584216 C28.5920173,14.6599784 28.5998011,14.6621578 28.6069622,14.6637146 C28.6150573,14.6749232 28.6187935,14.6873773 28.6290681,14.6979632 C28.6605146,14.7303438 28.7146897,14.7297211 28.7489384,14.7010768 C28.9239178,14.7496476 29.1256735,14.8019546 29.2676497,14.7337686 C29.2810378,14.7275416 29.2916238,14.7169557 29.2997189,14.7045016 C29.3560735,14.7480908 29.4553946,14.7200692 29.4553946,14.6328908 C29.4563286,14.2004238 29.4444973,13.748653 29.6042205,13.3389146 C29.6833038,13.1365362 29.8174962,12.9210811 30.0335741,12.862547 C30.2982227,12.7912476 30.4654184,12.9746335 30.5606919,13.1910227 C30.5799957,13.2343005 30.6466249,13.2190443 30.6578335,13.1782573 C30.6634378,13.1577081 30.6659286,13.1384043 30.6681081,13.1191005 C30.6905254,13.1343568 30.71232,13.149613 30.7344259,13.1651805 C30.8633254,13.2545384 30.9866205,13.0428195 30.8574097,12.9550184 L30.8023005,12.9173449" id="Fill-80" fill="#4A4343"></path>
                    <path d="M18.8205665,30.0858811 C18.8246141,30.0858811 18.8246141,30.0796541 18.8205665,30.0796541" id="Stroke-81" stroke-linecap="round" stroke-linejoin="round"></path>
                    <path d="M25.8113384,30.26304 C25.81632,30.2365751 25.8184995,30.2094876 25.8125838,30.1820886 C25.7531157,29.9052973 25.5304995,29.6605751 25.3701535,29.4323546 C25.1992216,29.1891892 25.0074292,28.9840086 24.7863697,28.7856778 C24.7508757,28.7536086 24.7010595,28.7464476 24.6565362,28.7573449 C24.6042292,28.6054054 24.4158616,28.5060843 24.2782443,28.6605146 C23.7025557,29.3059459 22.988627,29.6879741 22.1968605,29.9588497 C22.1433081,29.8704259 22.0458551,29.8178076 21.917267,29.8673124 C21.2783741,30.1135914 20.6288951,30.2593038 19.9404973,30.2602378 C19.3925189,30.2608605 18.8585514,30.0768519 18.3186681,30.1546897 C18.3124411,30.1556238 18.3077708,30.1590486 18.3021665,30.1606054 C17.8569341,30.0830789 17.4138811,29.9856259 16.9954249,29.8184303 C16.3889124,29.5765103 15.9443027,29.1331459 15.3810681,28.8423438 C15.4206097,28.6452584 15.1360346,28.5210292 14.9962378,28.7059719 C12.4605924,32.0564238 11.7684584,36.6644238 12.9699632,40.6830357 C14.10048,44.4628411 17.2230227,47.7572497 21.4477492,47.2908454 C25.4212151,46.8521514 27.4954378,43.4668281 28.0157059,39.8022227 C28.4967438,36.4144086 27.7775222,32.9967049 25.8113384,30.26304" id="Fill-82" fill="#F1F0EB"></path>
                    <path d="M0.349136884,47.4690742 L2.12530017,40.5983225 C3.16030011,36.5946211 6.03839234,33.3221749 9.87713149,31.7843414 L14.9278647,29.7609721 L14.9278647,29.7609721 C17.0459689,30.4888436 18.8453303,30.8527793 20.3259488,30.8527793 C21.8065672,30.8527793 23.4686218,30.4888436 25.3121124,29.7609721 L29.9812433,31.7438843 C33.675172,33.3126422 36.4374694,36.4995653 37.4656889,40.3788533 L39.3481604,47.4810811 L39.3481604,47.4810811 L0.349136884,47.4690742 Z" id="Path-7" fill="#035AA6"></path>
                    <path d="M18.1393297,29.9376778 C17.4755286,29.8489427 15.6715589,29.3731978 15.2970032,28.574893 C15.2920216,28.5381535 15.2792562,28.5035935 15.2618205,28.4715243 C15.2546595,28.4484843 15.2440735,28.426067 15.2394032,28.4024043 C15.2204108,28.3018378 15.1170422,28.2809773 15.0416951,28.3174054 C14.9769341,28.3136692 14.9103049,28.3385773 14.8539503,28.4080086 C14.0263784,29.4264389 13.4036757,29.9878054 14.1730249,31.2543827 C14.8819719,32.4216389 15.8649081,33.3774876 16.9783005,34.1555546 C17.1420714,34.2698205 17.3656216,34.1166357 17.3653103,33.9335611 C17.3628195,32.6230832 17.6838227,31.4169081 18.3367265,30.2817211 C18.432,30.1163935 18.30528,29.9597838 18.1393297,29.9376778" id="Fill-83" fill="#E4E4DF"></path>
                    <path d="M24.9109103,28.4413232 C24.8909838,28.4245103 24.8695005,28.4176605 24.84864,28.4070746 C24.7944649,28.2479741 24.5833686,28.1361989 24.4227114,28.2884497 C23.7094054,28.9656389 22.8774746,29.4186551 21.9412411,29.7116368 C21.802067,29.7552259 21.7771589,29.8844368 21.8238616,29.9815784 C21.812653,30.0192519 21.8148324,30.0622184 21.8403632,30.1058076 C22.4200995,31.097773 22.7678789,32.0607827 22.5405924,33.2165189 C22.5069665,33.3871395 22.6579719,33.6072649 22.8547459,33.5306724 C24.6098335,32.8469449 26.8503178,30.0756065 24.9109103,28.4413232" id="Fill-84" fill="#E4E4DF"></path>
                    <path d="M23.0854303,47.4810811 C22.4615002,39.9326789 21.7768476,34.9501232 21.0314724,32.5334141 C21.0956108,32.526253 21.1566357,32.4895135 21.1843459,32.4129211 C21.4265773,31.7376 21.6323805,30.8371938 21.6742847,30.1157708 C21.6932771,29.922733 21.6323805,29.7991265 21.4461924,29.8259027 C21.4197276,29.819987 21.3910832,29.8184303 21.3590141,29.8262141 C21.21984,29.8592173 21.0791092,29.8816346 20.9386897,29.9015611 C20.6706162,29.9311395 20.4044108,29.9439049 20.1375827,29.9442162 C19.8595459,29.9361211 18.9304735,29.9046746 18.8255481,29.900627 C18.7688822,29.8984476 18.7439741,29.9367438 18.7439741,29.9787762 C18.7081686,30.0108454 18.6863741,30.0600389 18.6975827,30.1157708 C18.7776,30.5195935 18.9258032,30.8988195 19.0637319,31.2855178 C19.1864043,31.6292497 19.2763849,32.0081643 19.4725362,32.3170249 C19.4834335,32.3341492 19.4977557,32.3472259 19.5139459,32.3581232 C19.51488,32.3877016 19.5285795,32.41728 19.5631395,32.4378292 C19.5718573,32.4431222 19.5793297,32.4487265 19.5874249,32.4540195 C19.5811978,32.4642941 19.5752822,32.4751914 19.5721686,32.4888908 C19.0486832,34.8850508 18.4753726,39.8824476 17.8522368,47.4810811 L23.0854303,47.4810811 Z" id="Fill-85" fill="#333330"></path>
                </g>
            </g>
            <g id="Subject-Matter-Expert" transform="translate(0.000000, 1.600000)">
                <g id="Group-96" transform="translate(0.476137, 0.492308)">
                    <path d="M24.0058818,29.2788982 C22.9002206,27.6739637 22.2489039,26.1115774 22.2917498,24.1287661 C22.3009736,23.7006051 21.9341059,23.5134519 21.606216,23.5655216 C21.5678333,23.5205929 21.5234997,23.4780446 21.4660743,23.4414471 C19.7986562,22.3801194 17.6438664,22.6476085 15.8639779,23.2840481 C15.7193731,23.3355226 15.626838,23.4554315 15.5851823,23.5899199 C15.3739284,23.6229469 15.1948088,23.8041492 15.2623506,24.0933588 C15.8068501,26.4216148 14.9776041,27.9688265 13.898424,29.931405 C13.3205999,30.9823188 13.1263059,32.1201145 13.4687752,33.2823085 C14.2554728,35.9530338 17.0169481,37.1791991 19.6338187,37.0325115 C22.1649975,36.8905846 24.694391,35.6266317 25.0678046,32.8883646 C25.2555528,31.5125363 24.7711565,30.3899152 24.0058818,29.2788982" id="Fill-91" fill="#EFD9C6"></path>
                    <path d="M28.6930406,13.1810533 C28.8337773,11.9319775 28.8691847,10.6909352 28.7236873,9.55016409 C27.9599003,3.56572784 19.9765856,4.21347396 15.5988691,4.24322803 C12.9695019,4.26108047 11.3848001,5.55300222 10.6790335,8.06930399 C10.1958274,9.79057698 10.0056989,11.6049802 10.0184932,13.4173007 C9.60074601,13.3438081 9.15979068,13.4827596 8.85510899,13.8085667 C8.39094549,14.3051621 8.37279551,15.0760901 8.44807331,15.7098518 C8.52394619,16.347184 8.76495416,17.0223039 9.34664624,17.3653683 C9.66441972,17.5525214 10.0339653,17.6114345 10.3666158,17.5245526 C10.3817904,17.6212533 10.3957748,17.7182516 10.411842,17.8143572 C10.4216608,17.8744605 10.444869,17.9244473 10.4764083,17.9655079 C10.8060834,19.673094 11.442523,21.295286 12.4964122,22.7291346 C15.2507465,26.4760648 20.3392877,27.5240031 23.9921949,24.441779 C25.9318628,22.8050075 27.0759068,20.4800244 27.7209751,18.0636964 C27.7736398,17.8670219 27.8257094,17.6655869 27.877184,17.462069 C27.9346093,17.483492 28.0003658,17.4939059 28.074751,17.4897403 C29.9602665,17.3847085 30.3086866,13.6467045 28.6930406,13.1810533" id="Fill-92" fill="#EBC6AC"></path>
                    <path d="M27.8060822,15.038487 C27.8060822,15.038487 27.8456883,10.9883868 27.6260546,10.3533626 C27.406421,9.71833832 27.0715697,7.77831011 26.8879416,7.32097613 C26.7043135,6.86327803 18.6894862,4.59226526 11.6144028,7.98367345 C11.6144028,7.98367345 11.9240502,10.8959005 11.2471466,11.1551535 C10.5666424,11.4144065 10.9014936,15.8985371 10.9014936,15.8985371 L9.77812163,14.6164726 C9.77812163,14.6164726 8.05705809,6.86581556 8.48192315,5.65511852 C8.9067882,4.44405736 10.2605955,-2.83687437 24.7816191,1.48558715 C24.7816191,1.48558715 29.3075121,0.515937159 30.214851,3.67649364 C31.1257905,6.83705013 29.1706911,13.1913093 29.1706911,13.1913093 L27.8060822,15.038487 Z" id="Fill-292" fill="#434343"></path>
                    <path d="M27.5278712,3.24378879 C27.5391777,3.26402156 27.5531621,3.28157646 27.5641711,3.30210677 C27.5135892,3.20689375 27.508531,3.20094293 27.5278712,3.24378879" id="Fill-94" fill="#65442A"></path>
                    <path d="M0.115732112,46.3874763 L1.71638964,40.1956355 C2.75138957,36.1919341 5.6294818,32.9194879 9.46822095,31.3816544 L13.9468329,29.587482 L13.9468329,29.587482 C15.9563164,30.2780268 17.6634028,30.6232992 19.0680921,30.6232992 C20.4727814,30.6232992 22.0496024,30.2780268 23.798555,29.587482 L27.9279997,31.3411973 C31.6219283,32.9099552 34.3842257,36.0968783 35.4124452,39.9761663 L37.1148057,46.3988675 L37.1148057,46.3988675 L0.115732112,46.3874763 Z" id="Path-7" fill="#ED9208"></path>
                    <path d="M19.3983462,34.1055502 C19.4688024,34.0977594 19.5358712,34.0574503 19.566357,33.9731062 C19.8329386,33.2309458 20.1676052,32.2855465 20.0382098,31.4715751 C20.1591369,31.3570839 20.0588724,31.1003255 19.8542787,31.1294564 C19.8251478,31.1230205 19.7936457,31.1213268 19.7584177,31.1297951 C19.6053111,31.1660394 19.4508496,31.1907668 19.2963881,31.2127843 C19.0016918,31.2453025 18.7090279,31.2591905 18.4160253,31.2595292 C18.1104896,31.2507222 17.8049539,31.2229462 17.5024668,31.1619746 C17.42151,31.1457155 17.3581672,31.1772175 17.3178582,31.2259948 C17.2037057,31.2209138 17.0888758,31.2161716 16.9737071,31.2117681 C16.9113805,31.209397 16.8839433,31.2513997 16.8839433,31.2974671 C16.8446504,31.3330339 16.8209392,31.3868922 16.8327948,31.4482026 C16.920865,31.8919407 17.0841335,32.308919 17.2355464,32.7340269 C17.3703615,33.1117124 17.4689324,33.5283519 17.685043,33.8677608 C17.6968986,33.886391 17.7124802,33.9009564 17.7300942,33.912812 C17.7311104,33.9453303 17.7463534,33.9778485 17.78463,34.0005435 C17.7941145,34.0063019 17.802244,34.0123991 17.811051,34.0181575 C17.8042764,34.0296744 17.7978405,34.04153 17.7944532,34.0564341 C17.2190615,36.6904093 16.5142976,40.8007567 15.6801616,46.3874763 L15.7983788,46.3874763 L21.4297879,46.3874763 L21.4314815,46.3874763 L21.5503762,46.3874763 C20.9349678,40.8560828 20.2176245,36.7621074 19.3983462,34.1055502 Z" id="Fill-129" fill="#333330"></path>
                </g>
            </g>
            <path d="M6.3984375,64.5275391 C6.3984375,64.0154922 6.21858904,63.6103042 5.85888672,63.3119629 C5.53188461,63.0407435 4.95832757,62.7817683 4.13820077,62.535031 L3.88476562,62.461377 C2.92838063,62.1926582 2.23014543,61.899611 1.79003906,61.5822266 C1.16373385,61.1336566 0.850585938,60.5454463 0.850585938,59.8175781 C0.850585938,59.1108689 1.14151727,58.5364117 1.72338867,58.0941895 C2.30526007,57.6519672 3.04898636,57.4308594 3.95458984,57.4308594 C4.56819968,57.4308594 5.11726646,57.5493478 5.60180664,57.7863281 C6.08634682,58.0233085 6.46191273,58.3533833 6.72851562,58.7765625 C6.99511852,59.1997417 7.12841797,59.6715794 7.12841797,60.1920898 L6.34130859,60.1920898 C6.34130859,59.5615528 6.12549044,59.0548033 5.69384766,58.6718262 C5.26220487,58.288849 4.68245807,58.0973633 3.95458984,58.0973633 C3.24788058,58.0973633 2.68506069,58.2549952 2.26611328,58.5702637 C1.84716587,58.8855322 1.63769531,59.2970678 1.63769531,59.8048828 C1.63769531,60.2746117 1.82600723,60.6575832 2.20263672,60.9538086 C2.53741849,61.2171201 3.05107774,61.4528435 3.7436272,61.6609843 L4.01171875,61.7377441 C4.84114998,61.964145 5.46956167,62.1990059 5.89697266,62.442334 C6.32438365,62.685662 6.64599501,62.9765934 6.86181641,63.3151367 C7.0776378,63.6536801 7.18554688,64.0535784 7.18554688,64.5148437 C7.18554688,65.242712 6.89461554,65.8266905 6.31274414,66.2667969 C5.73087274,66.7069032 4.96387195,66.9269531 4.01171875,66.9269531 C3.36002278,66.9269531 2.76229113,66.8105806 2.21850586,66.577832 C1.67472059,66.3450835 1.26212706,66.0192404 0.980712891,65.600293 C0.699298723,65.1813456 0.55859375,64.7010444 0.55859375,64.159375 L1.33935547,64.159375 C1.33935547,64.811071 1.58267986,65.325226 2.06933594,65.7018555 C2.55599202,66.078485 3.20344648,66.2667969 4.01171875,66.2667969 C4.73112339,66.2667969 5.30875433,66.1081071 5.74462891,65.7907227 C6.18050348,65.4733383 6.3984375,65.0522813 6.3984375,64.5275391 Z M13.1079102,65.9303711 C12.6508766,66.5947624 11.9209035,66.9269531 10.9179688,66.9269531 C10.1858687,66.9269531 9.62939644,66.7143088 9.24853516,66.2890137 C8.86767388,65.8637186 8.67301437,65.234249 8.66455078,64.4005859 L8.66455078,59.9318359 L9.41992188,59.9318359 L9.41992188,64.3053711 C9.41992188,65.6129948 9.94888794,66.2667969 11.0068359,66.2667969 C12.1071019,66.2667969 12.8032212,65.8118861 13.0952148,64.9020508 L13.0952148,59.9318359 L13.8569336,59.9318359 L13.8569336,66.8 L13.1206055,66.8 L13.1079102,65.9303711 Z M21.3598633,63.4357422 C21.3598633,64.5063856 21.1228865,65.3559051 20.6489258,65.9843262 C20.1749651,66.6127473 19.5380899,66.9269531 18.7382812,66.9269531 C17.7818963,66.9269531 17.0582707,66.5714879 16.5673828,65.8605469 L16.5356445,66.8 L15.824707,66.8 L15.824707,57.05 L16.5800781,57.05 L16.5800781,60.928418 C17.0625024,60.1793908 17.7776645,59.8048828 18.7255859,59.8048828 C19.53809,59.8048828 20.1802548,60.1148569 20.6520996,60.7348145 C21.1239444,61.354772 21.3598633,62.2169867 21.3598633,63.3214844 L21.3598633,63.4357422 Z M20.5981445,63.3024414 C20.5981445,62.3968379 20.4225278,61.6975448 20.0712891,61.204541 C19.7200503,60.7115372 19.2249381,60.4650391 18.5859375,60.4650391 C18.0992814,60.4650391 17.6866879,60.5845854 17.3481445,60.8236816 C17.0096012,61.0627779 16.7535816,61.4129534 16.5800781,61.8742187 L16.5800781,64.971875 C16.9609394,65.8351606 17.6337842,66.2667969 18.5986328,66.2667969 C19.224938,66.2667969 19.7147606,66.0192408 20.0681152,65.5241211 C20.4214699,65.0290014 20.5981445,64.2884489 20.5981445,63.3024414 Z M23.8544922,59.9318359 L23.8544922,67.6188477 C23.8544922,68.2536165 23.70215,68.7381494 23.3974609,69.0724609 C23.0927719,69.4067725 22.6442087,69.5739258 22.0517578,69.5739258 C21.823241,69.5739258 21.6010753,69.5337244 21.3852539,69.4533203 L21.3979492,68.8249023 C21.5841481,68.8799156 21.7745758,68.9074219 21.9692383,68.9074219 C22.7224973,68.9074219 23.0991211,68.4736697 23.0991211,67.6061523 L23.0991211,59.9318359 L23.8544922,59.9318359 Z M23.4799805,57.4308594 C23.6450204,57.4308594 23.7740881,57.4805822 23.8671875,57.5800293 C23.9602869,57.6794764 24.0068359,57.8011386 24.0068359,57.9450195 C24.0068359,58.0889005 23.9602869,58.2095047 23.8671875,58.3068359 C23.7740881,58.4041672 23.6450204,58.452832 23.4799805,58.452832 C23.3191724,58.452832 23.1932784,58.4041672 23.1022949,58.3068359 C23.0113114,58.2095047 22.9658203,58.0889005 22.9658203,57.9450195 C22.9658203,57.8011386 23.0113114,57.6794764 23.1022949,57.5800293 C23.1932784,57.4805822 23.3191724,57.4308594 23.4799805,57.4308594 Z M28.659668,66.9269531 C28.0756807,66.9269531 27.5477725,66.7830744 27.0759277,66.4953125 C26.6040829,66.2075506 26.2369805,65.8065944 25.9746094,65.2924316 C25.7122383,64.7782689 25.5810547,64.2016959 25.5810547,63.5626953 L25.5810547,63.2897461 C25.5810547,62.6295865 25.7090645,62.0350287 25.9650879,61.5060547 C26.2211113,60.9770807 26.5776344,60.5613134 27.034668,60.2587402 C27.4917015,59.9561671 27.9868137,59.8048828 28.5200195,59.8048828 C29.3536826,59.8048828 30.0148901,60.0894666 30.5036621,60.6586426 C30.9924341,61.2278186 31.2368164,62.0053987 31.2368164,62.9914062 L31.2368164,63.4166992 L26.3364258,63.4166992 L26.3364258,63.5626953 C26.3364258,64.341345 26.5596495,64.9898574 27.0061035,65.508252 C27.4525576,66.0266465 28.0143195,66.2858398 28.6914062,66.2858398 C29.0976583,66.2858398 29.4562973,66.2117846 29.767334,66.0636719 C30.0783707,65.9155592 30.3608386,65.6785824 30.6147461,65.3527344 L31.0908203,65.7145508 C30.5322238,66.5228231 29.7218478,66.9269531 28.659668,66.9269531 Z M28.5200195,60.4523437 C27.9487276,60.4523437 27.4673685,60.6618143 27.0759277,61.0807617 C26.684487,61.4997091 26.4464522,62.062529 26.3618164,62.7692383 L30.4814453,62.7692383 L30.4814453,62.6867187 C30.4602864,62.0265592 30.2719744,61.4891297 29.9165039,61.0744141 C29.5610334,60.6596984 29.0955432,60.4523437 28.5200195,60.4523437 Z M35.2548828,66.2858398 C35.7838568,66.2858398 36.2271304,66.1366714 36.5847168,65.8383301 C36.9423032,65.5399887 37.1359048,65.1538435 37.1655273,64.6798828 L37.8955078,64.6798828 C37.8743489,65.0988302 37.7431653,65.4807437 37.5019531,65.8256348 C37.260741,66.1705258 36.9401875,66.4402985 36.5402832,66.6349609 C36.1403789,66.8296234 35.7119163,66.9269531 35.2548828,66.9269531 C34.3535111,66.9269531 33.6394069,66.6138052 33.1125488,65.9875 C32.5856907,65.3611948 32.3222656,64.5190808 32.3222656,63.4611328 L32.3222656,63.2326172 C32.3222656,62.5555305 32.440754,61.9567409 32.6777344,61.4362305 C32.9147147,60.9157201 33.2543109,60.5137058 33.6965332,60.2301758 C34.1387555,59.9466457 34.6560843,59.8048828 35.2485352,59.8048828 C36.0017941,59.8048828 36.6228003,60.0291644 37.1115723,60.4777344 C37.6003442,60.9263043 37.8616535,61.5166305 37.8955078,62.2487305 L37.1655273,62.2487305 C37.131673,61.7112929 36.9380714,61.2775407 36.5847168,60.9474609 C36.2313622,60.6173812 35.7859727,60.4523437 35.2485352,60.4523437 C34.5629849,60.4523437 34.030845,60.6998999 33.6520996,61.1950195 C33.2733542,61.6901392 33.0839844,62.3841427 33.0839844,63.2770508 L33.0839844,63.4992187 C33.0839844,64.3751997 33.2733542,65.0586238 33.6520996,65.5495117 C34.030845,66.0403996 34.5651007,66.2858398 35.2548828,66.2858398 Z M40.5932617,58.1735352 L40.5932617,59.9318359 L42.0151367,59.9318359 L42.0151367,60.5539062 L40.5932617,60.5539062 L40.5932617,65.1305664 C40.5932617,65.5114277 40.6620273,65.7949535 40.7995605,65.9811523 C40.9370938,66.1673512 41.1666651,66.2604492 41.4882812,66.2604492 C41.615235,66.2604492 41.8204738,66.2392906 42.1040039,66.1969727 L42.1357422,66.819043 C41.936848,66.8909834 41.6660173,66.9269531 41.3232422,66.9269531 C40.8027318,66.9269531 40.4239921,66.7756688 40.1870117,66.4730957 C39.9500314,66.1705226 39.831543,65.7251331 39.831543,65.1369141 L39.831543,60.5539062 L38.5683594,60.5539062 L38.5683594,59.9318359 L39.831543,59.9318359 L39.831543,58.1735352 L40.5932617,58.1735352 Z M2.20263672,72.5578125 L5.61132812,80.7145508 L9.03271484,72.5578125 L10.0737305,72.5578125 L10.0737305,81.8 L9.29296875,81.8 L9.29296875,77.7755859 L9.35644531,73.6496094 L5.91601562,81.8 L5.31298828,81.8 L1.88525391,73.6813477 L1.94873047,77.7501953 L1.94873047,81.8 L1.16796875,81.8 L1.16796875,72.5578125 L2.20263672,72.5578125 Z M16.5737305,81.8 C16.4975582,81.5841786 16.4488933,81.2646831 16.4277344,80.8415039 C16.1611315,81.1885108 15.8215353,81.4561677 15.4089355,81.6444824 C14.9963358,81.8327972 14.5594099,81.9269531 14.0981445,81.9269531 C13.437985,81.9269531 12.9037293,81.7428729 12.4953613,81.374707 C12.0869934,81.0065411 11.8828125,80.541051 11.8828125,79.9782227 C11.8828125,79.3095995 12.1610486,78.7806335 12.7175293,78.3913086 C13.2740099,78.0019837 14.0494742,77.8073242 15.0439453,77.8073242 L16.4213867,77.8073242 L16.4213867,77.0265625 C16.4213867,76.5356746 16.2701024,76.1495294 15.9675293,75.8681152 C15.6649562,75.5867011 15.2237985,75.4459961 14.644043,75.4459961 C14.115069,75.4459961 13.6770851,75.5814114 13.3300781,75.8522461 C12.9830712,76.1230808 12.8095703,76.4489239 12.8095703,76.8297852 L12.0478516,76.8234375 C12.0478516,76.2775363 12.3017553,75.8046407 12.8095703,75.4047363 C13.3173854,75.004832 13.9415653,74.8048828 14.6821289,74.8048828 C15.4480833,74.8048828 16.0521625,74.9963685 16.4943848,75.3793457 C16.936607,75.7623229 17.1640624,76.2965786 17.1767578,76.9821289 L17.1767578,80.2321289 C17.1767578,80.8965202 17.2465813,81.3937483 17.3862305,81.7238281 L17.3862305,81.8 L16.5737305,81.8 Z M14.1870117,81.2541016 C14.6948268,81.2541016 15.1486796,81.1313814 15.548584,80.8859375 C15.9484883,80.6404936 16.2394197,80.3125346 16.4213867,79.9020508 L16.4213867,78.3913086 L15.0629883,78.3913086 C14.3054975,78.3997722 13.7130555,78.5383613 13.2856445,78.8070801 C12.8582335,79.0757989 12.6445312,79.4450172 12.6445312,79.9147461 C12.6445312,80.2998392 12.7873521,80.6193347 13.072998,80.8732422 C13.358644,81.1271497 13.7299782,81.2541016 14.1870117,81.2541016 Z M20.3823242,73.1735352 L20.3823242,74.9318359 L21.8041992,74.9318359 L21.8041992,75.5539062 L20.3823242,75.5539062 L20.3823242,80.1305664 C20.3823242,80.5114277 20.4510898,80.7949535 20.588623,80.9811523 C20.7261563,81.1673512 20.9557276,81.2604492 21.2773438,81.2604492 C21.4042975,81.2604492 21.6095363,81.2392906 21.8930664,81.1969727 L21.9248047,81.819043 C21.7259105,81.8909834 21.4550798,81.9269531 21.1123047,81.9269531 C20.5917943,81.9269531 20.2130546,81.7756688 19.9760742,81.4730957 C19.7390939,81.1705226 19.6206055,80.7251331 19.6206055,80.1369141 L19.6206055,75.5539062 L18.3574219,75.5539062 L18.3574219,74.9318359 L19.6206055,74.9318359 L19.6206055,73.1735352 L20.3823242,73.1735352 Z M24.559082,73.1735352 L24.559082,74.9318359 L25.980957,74.9318359 L25.980957,75.5539062 L24.559082,75.5539062 L24.559082,80.1305664 C24.559082,80.5114277 24.6278476,80.7949535 24.7653809,80.9811523 C24.9029141,81.1673512 25.1324854,81.2604492 25.4541016,81.2604492 C25.5810553,81.2604492 25.7862942,81.2392906 26.0698242,81.1969727 L26.1015625,81.819043 C25.9026683,81.8909834 25.6318377,81.9269531 25.2890625,81.9269531 C24.7685521,81.9269531 24.3898124,81.7756688 24.152832,81.4730957 C23.9158517,81.1705226 23.7973633,80.7251331 23.7973633,80.1369141 L23.7973633,75.5539062 L22.5341797,75.5539062 L22.5341797,74.9318359 L23.7973633,74.9318359 L23.7973633,73.1735352 L24.559082,73.1735352 Z M30.2148438,81.9269531 C29.6308565,81.9269531 29.1029483,81.7830744 28.6311035,81.4953125 C28.1592587,81.2075506 27.7921563,80.8065944 27.5297852,80.2924316 C27.2674141,79.7782689 27.1362305,79.2016959 27.1362305,78.5626953 L27.1362305,78.2897461 C27.1362305,77.6295865 27.2642403,77.0350287 27.5202637,76.5060547 C27.7762871,75.9770807 28.1328102,75.5613134 28.5898438,75.2587402 C29.0468773,74.9561671 29.5419895,74.8048828 30.0751953,74.8048828 C30.9088583,74.8048828 31.5700659,75.0894666 32.0588379,75.6586426 C32.5476099,76.2278186 32.7919922,77.0053987 32.7919922,77.9914062 L32.7919922,78.4166992 L27.8916016,78.4166992 L27.8916016,78.5626953 C27.8916016,79.341345 28.1148252,79.9898574 28.5612793,80.508252 C29.0077334,81.0266465 29.5694953,81.2858398 30.246582,81.2858398 C30.6528341,81.2858398 31.0114731,81.2117846 31.3225098,81.0636719 C31.6335465,80.9155592 31.9160144,80.6785824 32.1699219,80.3527344 L32.6459961,80.7145508 C32.0873996,81.5228231 31.2770235,81.9269531 30.2148438,81.9269531 Z M30.0751953,75.4523437 C29.5039034,75.4523437 29.0225443,75.6618143 28.6311035,76.0807617 C28.2396628,76.4997091 28.001628,77.062529 27.9169922,77.7692383 L32.0366211,77.7692383 L32.0366211,77.6867187 C32.0154621,77.0265592 31.8271502,76.4891297 31.4716797,76.0744141 C31.1162092,75.6596984 30.650719,75.4523437 30.0751953,75.4523437 Z M37.4448242,75.5792969 C37.2840161,75.5496743 37.1126311,75.5348633 36.9306641,75.5348633 C36.4567034,75.5348633 36.0557471,75.6671048 35.7277832,75.9315918 C35.3998193,76.1960788 35.1660163,76.5801082 35.0263672,77.0836914 L35.0263672,81.8 L34.2709961,81.8 L34.2709961,74.9318359 L35.0136719,74.9318359 L35.0263672,76.0236328 C35.4283874,75.2111287 36.073726,74.8048828 36.9624023,74.8048828 C37.1739919,74.8048828 37.3411452,74.832389 37.4638672,74.8874023 L37.4448242,75.5792969 Z M47.0869141,77.3693359 L42.7641602,77.3693359 L42.7641602,81.1398437 L47.734375,81.1398437 L47.734375,81.8 L41.9833984,81.8 L41.9833984,72.5578125 L47.7026367,72.5578125 L47.7026367,73.2243164 L42.7641602,73.2243164 L42.7641602,76.7091797 L47.0869141,76.7091797 L47.0869141,77.3693359 Z M51.3588867,77.718457 L53.2124023,74.9318359 L54.1137695,74.9318359 L51.7841797,78.3024414 L54.215332,81.8 L53.3203125,81.8 L51.3652344,78.8927734 L49.4101562,81.8 L48.5151367,81.8 L50.9399414,78.3024414 L48.6103516,74.9318359 L49.5053711,74.9318359 L51.3588867,77.718457 Z M61.0454102,78.4357422 C61.0454102,79.5063856 60.8084334,80.3559051 60.3344727,80.9843262 C59.860512,81.6127473 59.2257527,81.9269531 58.4301758,81.9269531 C57.490718,81.9269531 56.7713241,81.5968783 56.2719727,80.9367187 L56.2719727,84.440625 L55.5166016,84.440625 L55.5166016,74.9318359 L56.2211914,74.9318359 L56.2592773,75.9030273 C56.754397,75.1709273 57.471675,74.8048828 58.4111328,74.8048828 C59.2321005,74.8048828 59.8763811,75.1159149 60.3439941,75.7379883 C60.8116072,76.3600617 61.0454102,77.2233343 61.0454102,78.327832 L61.0454102,78.4357422 Z M60.2836914,78.3024414 C60.2836914,77.4264605 60.1038429,76.7345729 59.7441406,76.2267578 C59.3844383,75.7189428 58.8829785,75.4650391 58.2397461,75.4650391 C57.774249,75.4650391 57.3743506,75.5771799 57.0400391,75.8014648 C56.7057275,76.0257498 56.4497079,76.3515929 56.2719727,76.7790039 L56.2719727,80.0734375 C56.4539397,80.4669942 56.714191,80.7674469 57.0527344,80.9748047 C57.3912777,81.1821625 57.7911761,81.2858398 58.2524414,81.2858398 C58.891442,81.2858398 59.389728,81.0308782 59.7473145,80.5209473 C60.1049009,80.0110163 60.2836914,79.2715218 60.2836914,78.3024414 Z M65.387207,81.9269531 C64.8032197,81.9269531 64.2753116,81.7830744 63.8034668,81.4953125 C63.331622,81.2075506 62.9645195,80.8065944 62.7021484,80.2924316 C62.4397773,79.7782689 62.3085938,79.2016959 62.3085938,78.5626953 L62.3085938,78.2897461 C62.3085938,77.6295865 62.4366035,77.0350287 62.692627,76.5060547 C62.9486504,75.9770807 63.3051735,75.5613134 63.762207,75.2587402 C64.2192406,74.9561671 64.7143528,74.8048828 65.2475586,74.8048828 C66.0812216,74.8048828 66.7424292,75.0894666 67.2312012,75.6586426 C67.7199731,76.2278186 67.9643555,77.0053987 67.9643555,77.9914062 L67.9643555,78.4166992 L63.0639648,78.4166992 L63.0639648,78.5626953 C63.0639648,79.341345 63.2871885,79.9898574 63.7336426,80.508252 C64.1800966,81.0266465 64.7418586,81.2858398 65.4189453,81.2858398 C65.8251973,81.2858398 66.1838363,81.2117846 66.494873,81.0636719 C66.8059098,80.9155592 67.0883776,80.6785824 67.3422852,80.3527344 L67.8183594,80.7145508 C67.2597628,81.5228231 66.4493868,81.9269531 65.387207,81.9269531 Z M65.2475586,75.4523437 C64.6762667,75.4523437 64.1949076,75.6618143 63.8034668,76.0807617 C63.412026,76.4997091 63.1739913,77.062529 63.0893555,77.7692383 L67.2089844,77.7692383 L67.2089844,77.6867187 C67.1878254,77.0265592 66.9995135,76.4891297 66.644043,76.0744141 C66.2885724,75.6596984 65.8230823,75.4523437 65.2475586,75.4523437 Z M72.6171875,75.5792969 C72.4563794,75.5496743 72.2849944,75.5348633 72.1030273,75.5348633 C71.6290666,75.5348633 71.2281104,75.6671048 70.9001465,75.9315918 C70.5721826,76.1960788 70.3383796,76.5801082 70.1987305,77.0836914 L70.1987305,81.8 L69.4433594,81.8 L69.4433594,74.9318359 L70.1860352,74.9318359 L70.1987305,76.0236328 C70.6007507,75.2111287 71.2460893,74.8048828 72.1347656,74.8048828 C72.3463552,74.8048828 72.5135085,74.832389 72.6362305,74.8874023 L72.6171875,75.5792969 Z M74.9975586,73.1735352 L74.9975586,74.9318359 L76.4194336,74.9318359 L76.4194336,75.5539062 L74.9975586,75.5539062 L74.9975586,80.1305664 C74.9975586,80.5114277 75.0663242,80.7949535 75.2038574,80.9811523 C75.3413907,81.1673512 75.5709619,81.2604492 75.8925781,81.2604492 C76.0195319,81.2604492 76.2247707,81.2392906 76.5083008,81.1969727 L76.5400391,81.819043 C76.3411448,81.8909834 76.0703142,81.9269531 75.7275391,81.9269531 C75.2070286,81.9269531 74.8282889,81.7756688 74.5913086,81.4730957 C74.3543282,81.1705226 74.2358398,80.7251331 74.2358398,80.1369141 L74.2358398,75.5539062 L72.9726562,75.5539062 L72.9726562,74.9318359 L74.2358398,74.9318359 L74.2358398,73.1735352 L74.9975586,73.1735352 Z" id="SubjectMatterExpert" fill="#552952" fill-rule="nonzero"></path>
            <path d="M99.0448918,66.8 L99.0448918,57.5578125 L101.774384,57.5578125 C102.764623,57.5578125 103.515755,57.7619934 104.027802,58.1703613 C104.539849,58.5787293 104.795868,59.1806926 104.795868,59.9762695 C104.795868,60.454462 104.665743,60.8702294 104.405488,61.223584 C104.145232,61.5769386 103.788709,61.8297844 103.335907,61.9821289 C103.873345,62.1006191 104.306039,62.3651021 104.634003,62.7755859 C104.961967,63.1860698 105.125947,63.6600234 105.125947,64.1974609 C105.125947,65.0141968 104.862521,65.6521299 104.335663,66.1112793 C103.808805,66.5704287 103.075658,66.8 102.1362,66.8 L99.0448918,66.8 Z M99.8256535,62.3566406 L99.8256535,66.1398437 L102.167939,66.1398437 C102.836562,66.1398437 103.366586,65.9695167 103.758027,65.6288574 C104.149467,65.2881982 104.345185,64.8153025 104.345185,64.2101562 C104.345185,63.6388643 104.157931,63.1871273 103.783417,62.8549316 C103.408904,62.522736 102.891575,62.3566406 102.231415,62.3566406 L99.8256535,62.3566406 Z M99.8256535,61.702832 L101.958466,61.702832 C102.610162,61.6901367 103.114796,61.5367365 103.472382,61.242627 C103.829968,60.9485174 104.008759,60.5200549 104.008759,59.9572266 C104.008759,59.3647757 103.823621,58.9278497 103.453339,58.6464355 C103.083057,58.3650214 102.523411,58.2243164 101.774384,58.2243164 L99.8256535,58.2243164 L99.8256535,61.702832 Z M111.251435,65.9303711 C110.794401,66.5947624 110.064428,66.9269531 109.061493,66.9269531 C108.329393,66.9269531 107.772921,66.7143088 107.39206,66.2890137 C107.011199,65.8637186 106.816539,65.234249 106.808075,64.4005859 L106.808075,59.9318359 L107.563447,59.9318359 L107.563447,64.3053711 C107.563447,65.6129948 108.092413,66.2667969 109.150361,66.2667969 C110.250626,66.2667969 110.946746,65.8118861 111.238739,64.9020508 L111.238739,59.9318359 L112.000458,59.9318359 L112.000458,66.8 L111.26413,66.8 L111.251435,65.9303711 Z M118.087861,65.0543945 C118.087861,64.677765 117.936576,64.3751965 117.634003,64.1466797 C117.369252,63.9467275 116.987057,63.784847 116.487409,63.6610345 L116.266083,63.6103027 C115.656705,63.4812331 115.18381,63.3331226 114.847382,63.1659668 C114.510955,62.998811 114.261283,62.7946301 114.098359,62.553418 C113.935435,62.3122058 113.853974,62.0202166 113.853974,61.6774414 C113.853974,61.135772 114.080371,60.6882667 114.533173,60.3349121 C114.985975,59.9815575 115.565722,59.8048828 116.272431,59.8048828 C117.038385,59.8048828 117.653044,59.9942527 118.116425,60.372998 C118.579806,60.7517434 118.811493,61.2457977 118.811493,61.8551758 L118.049775,61.8551758 C118.049775,61.4531555 117.881563,61.118849 117.545136,60.8522461 C117.208709,60.5856432 116.784478,60.4523437 116.272431,60.4523437 C115.773079,60.4523437 115.372123,60.5634266 115.06955,60.7855957 C114.766977,61.0077648 114.615693,61.2965803 114.615693,61.6520508 C114.615693,61.9948259 114.741587,62.2603669 114.993378,62.4486816 C115.217193,62.6160725 115.604841,62.7709227 116.156331,62.9132359 L116.37082,62.9660156 C117.037327,63.1225919 117.536671,63.2897452 117.868866,63.4674805 C118.201062,63.6452157 118.44756,63.858918 118.608368,64.1085937 C118.769176,64.3582695 118.849579,64.6608381 118.849579,65.0163086 C118.849579,65.5960641 118.615776,66.0594384 118.148163,66.4064453 C117.68055,66.7534523 117.070123,66.9269531 116.316864,66.9269531 C115.517056,66.9269531 114.868543,66.7333515 114.371308,66.3461426 C113.874072,65.9589336 113.625458,65.469111 113.625458,64.8766602 L114.387177,64.8766602 C114.4168,65.3209983 114.604054,65.6669421 114.948945,65.914502 C115.293836,66.1620618 115.749804,66.2858398 116.316864,66.2858398 C116.845838,66.2858398 117.273243,66.1694673 117.599091,65.9367187 C117.924939,65.7039702 118.087861,65.4098651 118.087861,65.0543945 Z M121.407685,66.8 L120.645966,66.8 L120.645966,59.9318359 L121.407685,59.9318359 L121.407685,66.8 Z M120.512665,57.9450195 C120.512665,57.8011386 120.559214,57.6794764 120.652314,57.5800293 C120.745413,57.4805822 120.872365,57.4308594 121.033173,57.4308594 C121.193981,57.4308594 121.321991,57.4805822 121.417206,57.5800293 C121.512422,57.6794764 121.560029,57.8011386 121.560029,57.9450195 C121.560029,58.0889005 121.512422,58.2095047 121.417206,58.3068359 C121.321991,58.4041672 121.193981,58.452832 121.033173,58.452832 C120.872365,58.452832 120.745413,58.4041672 120.652314,58.3068359 C120.559214,58.2095047 120.512665,58.0889005 120.512665,57.9450195 Z M124.194306,59.9318359 L124.219697,61.1061523 C124.477836,60.6829731 124.799447,60.3603038 125.18454,60.1381348 C125.569633,59.9159657 125.994922,59.8048828 126.460419,59.8048828 C127.196751,59.8048828 127.74476,60.0122375 128.104462,60.4269531 C128.464164,60.8416687 128.646129,61.4637328 128.650361,62.2931641 L128.650361,66.8 L127.894989,66.8 L127.894989,62.2868164 C127.890758,61.6732066 127.760632,61.2161799 127.504609,60.9157227 C127.248585,60.6152654 126.839165,60.4650391 126.276337,60.4650391 C125.806608,60.4650391 125.390841,60.6120916 125.029023,60.9062012 C124.667204,61.2003107 124.399548,61.5970353 124.226044,62.0963867 L124.226044,66.8 L123.470673,66.8 L123.470673,59.9318359 L124.194306,59.9318359 Z M133.271454,66.9269531 C132.687467,66.9269531 132.159559,66.7830744 131.687714,66.4953125 C131.215869,66.2075506 130.848767,65.8065944 130.586396,65.2924316 C130.324025,64.7782689 130.192841,64.2016959 130.192841,63.5626953 L130.192841,63.2897461 C130.192841,62.6295865 130.320851,62.0350287 130.576874,61.5060547 C130.832898,60.9770807 131.189421,60.5613134 131.646454,60.2587402 C132.103488,59.9561671 132.5986,59.8048828 133.131806,59.8048828 C133.965469,59.8048828 134.626676,60.0894666 135.115448,60.6586426 C135.60422,61.2278186 135.848603,62.0053987 135.848603,62.9914062 L135.848603,63.4166992 L130.948212,63.4166992 L130.948212,63.5626953 C130.948212,64.341345 131.171436,64.9898574 131.61789,65.508252 C132.064344,66.0266465 132.626106,66.2858398 133.303193,66.2858398 C133.709445,66.2858398 134.068084,66.2117846 134.37912,66.0636719 C134.690157,65.9155592 134.972625,65.6785824 135.226532,65.3527344 L135.702607,65.7145508 C135.14401,66.5228231 134.333634,66.9269531 133.271454,66.9269531 Z M133.131806,60.4523437 C132.560514,60.4523437 132.079155,60.6618143 131.687714,61.0807617 C131.296273,61.4997091 131.058239,62.062529 130.973603,62.7692383 L135.093232,62.7692383 L135.093232,62.6867187 C135.072073,62.0265592 134.883761,61.4891297 134.52829,61.0744141 C134.17282,60.6596984 133.70733,60.4523437 133.131806,60.4523437 Z M141.440888,65.0543945 C141.440888,64.677765 141.289604,64.3751965 140.98703,64.1466797 C140.722279,63.9467275 140.340084,63.784847 139.840436,63.6610345 L139.619111,63.6103027 C139.009733,63.4812331 138.536837,63.3331226 138.200409,63.1659668 C137.863982,62.998811 137.61431,62.7946301 137.451386,62.553418 C137.288462,62.3122058 137.207001,62.0202166 137.207001,61.6774414 C137.207001,61.135772 137.433399,60.6882667 137.8862,60.3349121 C138.339002,59.9815575 138.918749,59.8048828 139.625458,59.8048828 C140.391413,59.8048828 141.006071,59.9942527 141.469452,60.372998 C141.932834,60.7517434 142.164521,61.2457977 142.164521,61.8551758 L141.402802,61.8551758 C141.402802,61.4531555 141.234591,61.118849 140.898163,60.8522461 C140.561736,60.5856432 140.137505,60.4523437 139.625458,60.4523437 C139.126107,60.4523437 138.725151,60.5634266 138.422577,60.7855957 C138.120004,61.0077648 137.96872,61.2965803 137.96872,61.6520508 C137.96872,61.9948259 138.094614,62.2603669 138.346405,62.4486816 C138.57022,62.6160725 138.957868,62.7709227 139.509358,62.9132359 L139.723847,62.9660156 C140.390354,63.1225919 140.889698,63.2897452 141.221894,63.4674805 C141.554089,63.6452157 141.800588,63.858918 141.961396,64.1085937 C142.122204,64.3582695 142.202607,64.6608381 142.202607,65.0163086 C142.202607,65.5960641 141.968804,66.0594384 141.501191,66.4064453 C141.033578,66.7534523 140.423151,66.9269531 139.669892,66.9269531 C138.870083,66.9269531 138.221571,66.7333515 137.724335,66.3461426 C137.2271,65.9589336 136.978486,65.469111 136.978486,64.8766602 L137.740204,64.8766602 C137.769827,65.3209983 137.957081,65.6669421 138.301972,65.914502 C138.646863,66.1620618 139.102832,66.2858398 139.669892,66.2858398 C140.198866,66.2858398 140.62627,66.1694673 140.952118,65.9367187 C141.277966,65.7039702 141.440888,65.4098651 141.440888,65.0543945 Z M148.023407,65.0543945 C148.023407,64.677765 147.872123,64.3751965 147.56955,64.1466797 C147.304799,63.9467275 146.922604,63.784847 146.422956,63.6610345 L146.20163,63.6103027 C145.592252,63.4812331 145.119356,63.3331226 144.782929,63.1659668 C144.446501,62.998811 144.196829,62.7946301 144.033905,62.553418 C143.870982,62.3122058 143.789521,62.0202166 143.789521,61.6774414 C143.789521,61.135772 144.015918,60.6882667 144.46872,60.3349121 C144.921522,59.9815575 145.501269,59.8048828 146.207978,59.8048828 C146.973932,59.8048828 147.588591,59.9942527 148.051972,60.372998 C148.515353,60.7517434 148.74704,61.2457977 148.74704,61.8551758 L147.985322,61.8551758 C147.985322,61.4531555 147.81711,61.118849 147.480683,60.8522461 C147.144255,60.5856432 146.720025,60.4523437 146.207978,60.4523437 C145.708626,60.4523437 145.30767,60.5634266 145.005097,60.7855957 C144.702524,61.0077648 144.551239,61.2965803 144.551239,61.6520508 C144.551239,61.9948259 144.677133,62.2603669 144.928925,62.4486816 C145.15274,62.6160725 145.540387,62.7709227 146.091878,62.9132359 L146.306366,62.9660156 C146.972874,63.1225919 147.472218,63.2897452 147.804413,63.4674805 C148.136609,63.6452157 148.383107,63.858918 148.543915,64.1085937 C148.704723,64.3582695 148.785126,64.6608381 148.785126,65.0163086 C148.785126,65.5960641 148.551323,66.0594384 148.08371,66.4064453 C147.616097,66.7534523 147.00567,66.9269531 146.252411,66.9269531 C145.452603,66.9269531 144.80409,66.7333515 144.306855,66.3461426 C143.809619,65.9589336 143.561005,65.469111 143.561005,64.8766602 L144.322724,64.8766602 C144.352346,65.3209983 144.5396,65.6669421 144.884491,65.914502 C145.229382,66.1620618 145.685351,66.2858398 146.252411,66.2858398 C146.781385,66.2858398 147.20879,66.1694673 147.534638,65.9367187 C147.860486,65.7039702 148.023407,65.4098651 148.023407,65.0543945 Z M105.411591,72.5578125 L105.411591,78.8673828 C105.407359,79.4894562 105.269828,80.0311175 104.998993,80.4923828 C104.728159,80.9536481 104.346245,81.3080554 103.853241,81.5556152 C103.360238,81.8031751 102.794244,81.9269531 102.155243,81.9269531 C101.181931,81.9269531 100.402235,81.6614122 99.8161321,81.1303223 C99.2300289,80.5992324 98.9264023,79.8639695 98.9052434,78.9245117 L98.9052434,72.5578125 L99.6796575,72.5578125 L99.6796575,78.8102539 C99.6796575,79.5889036 99.9018232,80.1929829 100.346161,80.6225098 C100.7905,81.0520367 101.393521,81.2667969 102.155243,81.2667969 C102.916966,81.2667969 103.518929,81.0509787 103.961152,80.6193359 C104.403374,80.1876932 104.624482,79.5867877 104.624482,78.8166016 L104.624482,72.5578125 L105.411591,72.5578125 Z M111.524384,80.0543945 C111.524384,79.677765 111.3731,79.3751965 111.070527,79.1466797 C110.805775,78.9467275 110.42358,78.784847 109.923932,78.6610345 L109.702607,78.6103027 C109.093229,78.4812331 108.620333,78.3331226 108.283905,78.1659668 C107.947478,77.998811 107.697806,77.7946301 107.534882,77.553418 C107.371958,77.3122058 107.290497,77.0202166 107.290497,76.6774414 C107.290497,76.135772 107.516895,75.6882667 107.969697,75.3349121 C108.422498,74.9815575 109.002245,74.8048828 109.708954,74.8048828 C110.474909,74.8048828 111.089567,74.9942527 111.552948,75.372998 C112.01633,75.7517434 112.248017,76.2457977 112.248017,76.8551758 L111.486298,76.8551758 C111.486298,76.4531555 111.318087,76.118849 110.981659,75.8522461 C110.645232,75.5856432 110.221001,75.4523437 109.708954,75.4523437 C109.209603,75.4523437 108.808647,75.5634266 108.506073,75.7855957 C108.2035,76.0077648 108.052216,76.2965803 108.052216,76.6520508 C108.052216,76.9948259 108.17811,77.2603669 108.429902,77.4486816 C108.653716,77.6160725 109.041364,77.7709227 109.592854,77.9132359 L109.807343,77.9660156 C110.47385,78.1225919 110.973194,78.2897452 111.30539,78.4674805 C111.637586,78.6452157 111.884084,78.858918 112.044892,79.1085937 C112.2057,79.3582695 112.286103,79.6608381 112.286103,80.0163086 C112.286103,80.5960641 112.0523,81.0594384 111.584687,81.4064453 C111.117074,81.7534523 110.506647,81.9269531 109.753388,81.9269531 C108.953579,81.9269531 108.305067,81.7333515 107.807831,81.3461426 C107.310596,80.9589336 107.061982,80.469111 107.061982,79.8766602 L107.8237,79.8766602 C107.853323,80.3209983 108.040577,80.6669421 108.385468,80.914502 C108.730359,81.1620618 109.186328,81.2858398 109.753388,81.2858398 C110.282362,81.2858398 110.709766,81.1694673 111.035614,80.9367187 C111.361462,80.7039702 111.524384,80.4098651 111.524384,80.0543945 Z M116.65329,81.9269531 C116.069303,81.9269531 115.541395,81.7830744 115.06955,81.4953125 C114.597705,81.2075506 114.230603,80.8065944 113.968232,80.2924316 C113.705861,79.7782689 113.574677,79.2016959 113.574677,78.5626953 L113.574677,78.2897461 C113.574677,77.6295865 113.702687,77.0350287 113.95871,76.5060547 C114.214734,75.9770807 114.571257,75.5613134 115.02829,75.2587402 C115.485324,74.9561671 115.980436,74.8048828 116.513642,74.8048828 C117.347305,74.8048828 118.008512,75.0894666 118.497284,75.6586426 C118.986056,76.2278186 119.230439,77.0053987 119.230439,77.9914062 L119.230439,78.4166992 L114.330048,78.4166992 L114.330048,78.5626953 C114.330048,79.341345 114.553272,79.9898574 114.999726,80.508252 C115.44618,81.0266465 116.007942,81.2858398 116.685029,81.2858398 C117.091281,81.2858398 117.44992,81.2117846 117.760956,81.0636719 C118.071993,80.9155592 118.354461,80.6785824 118.608368,80.3527344 L119.084443,80.7145508 C118.525846,81.5228231 117.71547,81.9269531 116.65329,81.9269531 Z M116.513642,75.4523437 C115.94235,75.4523437 115.460991,75.6618143 115.06955,76.0807617 C114.678109,76.4997091 114.440075,77.062529 114.355439,77.7692383 L118.475068,77.7692383 L118.475068,77.6867187 C118.453909,77.0265592 118.265597,76.4891297 117.910126,76.0744141 C117.554656,75.6596984 117.089166,75.4523437 116.513642,75.4523437 Z M123.883271,75.5792969 C123.722463,75.5496743 123.551078,75.5348633 123.369111,75.5348633 C122.89515,75.5348633 122.494194,75.6671048 122.16623,75.9315918 C121.838266,76.1960788 121.604463,76.5801082 121.464814,77.0836914 L121.464814,81.8 L120.709443,81.8 L120.709443,74.9318359 L121.452118,74.9318359 L121.464814,76.0236328 C121.866834,75.2111287 122.512173,74.8048828 123.400849,74.8048828 C123.612438,74.8048828 123.779592,74.832389 123.902314,74.8874023 L123.883271,75.5792969 Z" id="BusinessUser" fill="#552952" fill-rule="nonzero"></path>
            <path d="M178.844892,66.8 L178.844892,57.5578125 L181.574384,57.5578125 C182.564623,57.5578125 183.315755,57.7619934 183.827802,58.1703613 C184.339849,58.5787293 184.595868,59.1806926 184.595868,59.9762695 C184.595868,60.454462 184.465743,60.8702294 184.205488,61.223584 C183.945232,61.5769386 183.588709,61.8297844 183.135907,61.9821289 C183.673345,62.1006191 184.106039,62.3651021 184.434003,62.7755859 C184.761967,63.1860698 184.925947,63.6600234 184.925947,64.1974609 C184.925947,65.0141968 184.662521,65.6521299 184.135663,66.1112793 C183.608805,66.5704287 182.875658,66.8 181.9362,66.8 L178.844892,66.8 Z M179.625654,62.3566406 L179.625654,66.1398437 L181.967939,66.1398437 C182.636562,66.1398437 183.166586,65.9695167 183.558027,65.6288574 C183.949467,65.2881982 184.145185,64.8153025 184.145185,64.2101562 C184.145185,63.6388643 183.957931,63.1871273 183.583417,62.8549316 C183.208904,62.522736 182.691575,62.3566406 182.031415,62.3566406 L179.625654,62.3566406 Z M179.625654,61.702832 L181.758466,61.702832 C182.410162,61.6901367 182.914796,61.5367365 183.272382,61.242627 C183.629968,60.9485174 183.808759,60.5200549 183.808759,59.9572266 C183.808759,59.3647757 183.623621,58.9278497 183.253339,58.6464355 C182.883057,58.3650214 182.323411,58.2243164 181.574384,58.2243164 L179.625654,58.2243164 L179.625654,61.702832 Z M191.051435,65.9303711 C190.594401,66.5947624 189.864428,66.9269531 188.861493,66.9269531 C188.129393,66.9269531 187.572921,66.7143088 187.19206,66.2890137 C186.811199,65.8637186 186.616539,65.234249 186.608075,64.4005859 L186.608075,59.9318359 L187.363447,59.9318359 L187.363447,64.3053711 C187.363447,65.6129948 187.892413,66.2667969 188.950361,66.2667969 C190.050626,66.2667969 190.746746,65.8118861 191.038739,64.9020508 L191.038739,59.9318359 L191.800458,59.9318359 L191.800458,66.8 L191.06413,66.8 L191.051435,65.9303711 Z M197.887861,65.0543945 C197.887861,64.677765 197.736576,64.3751965 197.434003,64.1466797 C197.169252,63.9467275 196.787057,63.784847 196.287409,63.6610345 L196.066083,63.6103027 C195.456705,63.4812331 194.98381,63.3331226 194.647382,63.1659668 C194.310955,62.998811 194.061283,62.7946301 193.898359,62.553418 C193.735435,62.3122058 193.653974,62.0202166 193.653974,61.6774414 C193.653974,61.135772 193.880371,60.6882667 194.333173,60.3349121 C194.785975,59.9815575 195.365722,59.8048828 196.072431,59.8048828 C196.838385,59.8048828 197.453044,59.9942527 197.916425,60.372998 C198.379806,60.7517434 198.611493,61.2457977 198.611493,61.8551758 L197.849775,61.8551758 C197.849775,61.4531555 197.681563,61.118849 197.345136,60.8522461 C197.008709,60.5856432 196.584478,60.4523437 196.072431,60.4523437 C195.573079,60.4523437 195.172123,60.5634266 194.86955,60.7855957 C194.566977,61.0077648 194.415693,61.2965803 194.415693,61.6520508 C194.415693,61.9948259 194.541587,62.2603669 194.793378,62.4486816 C195.017193,62.6160725 195.404841,62.7709227 195.956331,62.9132359 L196.17082,62.9660156 C196.837327,63.1225919 197.336671,63.2897452 197.668866,63.4674805 C198.001062,63.6452157 198.24756,63.858918 198.408368,64.1085937 C198.569176,64.3582695 198.649579,64.6608381 198.649579,65.0163086 C198.649579,65.5960641 198.415776,66.0594384 197.948163,66.4064453 C197.48055,66.7534523 196.870123,66.9269531 196.116864,66.9269531 C195.317056,66.9269531 194.668543,66.7333515 194.171308,66.3461426 C193.674072,65.9589336 193.425458,65.469111 193.425458,64.8766602 L194.187177,64.8766602 C194.2168,65.3209983 194.404054,65.6669421 194.748945,65.914502 C195.093836,66.1620618 195.549804,66.2858398 196.116864,66.2858398 C196.645838,66.2858398 197.073243,66.1694673 197.399091,65.9367187 C197.724939,65.7039702 197.887861,65.4098651 197.887861,65.0543945 Z M201.207685,66.8 L200.445966,66.8 L200.445966,59.9318359 L201.207685,59.9318359 L201.207685,66.8 Z M200.312665,57.9450195 C200.312665,57.8011386 200.359214,57.6794764 200.452314,57.5800293 C200.545413,57.4805822 200.672365,57.4308594 200.833173,57.4308594 C200.993981,57.4308594 201.121991,57.4805822 201.217206,57.5800293 C201.312422,57.6794764 201.360029,57.8011386 201.360029,57.9450195 C201.360029,58.0889005 201.312422,58.2095047 201.217206,58.3068359 C201.121991,58.4041672 200.993981,58.452832 200.833173,58.452832 C200.672365,58.452832 200.545413,58.4041672 200.452314,58.3068359 C200.359214,58.2095047 200.312665,58.0889005 200.312665,57.9450195 Z M203.994306,59.9318359 L204.019697,61.1061523 C204.277836,60.6829731 204.599447,60.3603038 204.98454,60.1381348 C205.369633,59.9159657 205.794922,59.8048828 206.260419,59.8048828 C206.996751,59.8048828 207.54476,60.0122375 207.904462,60.4269531 C208.264164,60.8416687 208.446129,61.4637328 208.450361,62.2931641 L208.450361,66.8 L207.694989,66.8 L207.694989,62.2868164 C207.690758,61.6732066 207.560632,61.2161799 207.304609,60.9157227 C207.048585,60.6152654 206.639165,60.4650391 206.076337,60.4650391 C205.606608,60.4650391 205.190841,60.6120916 204.829023,60.9062012 C204.467204,61.2003107 204.199548,61.5970353 204.026044,62.0963867 L204.026044,66.8 L203.270673,66.8 L203.270673,59.9318359 L203.994306,59.9318359 Z M213.071454,66.9269531 C212.487467,66.9269531 211.959559,66.7830744 211.487714,66.4953125 C211.015869,66.2075506 210.648767,65.8065944 210.386396,65.2924316 C210.124025,64.7782689 209.992841,64.2016959 209.992841,63.5626953 L209.992841,63.2897461 C209.992841,62.6295865 210.120851,62.0350287 210.376874,61.5060547 C210.632898,60.9770807 210.989421,60.5613134 211.446454,60.2587402 C211.903488,59.9561671 212.3986,59.8048828 212.931806,59.8048828 C213.765469,59.8048828 214.426676,60.0894666 214.915448,60.6586426 C215.40422,61.2278186 215.648603,62.0053987 215.648603,62.9914062 L215.648603,63.4166992 L210.748212,63.4166992 L210.748212,63.5626953 C210.748212,64.341345 210.971436,64.9898574 211.41789,65.508252 C211.864344,66.0266465 212.426106,66.2858398 213.103193,66.2858398 C213.509445,66.2858398 213.868084,66.2117846 214.17912,66.0636719 C214.490157,65.9155592 214.772625,65.6785824 215.026532,65.3527344 L215.502607,65.7145508 C214.94401,66.5228231 214.133634,66.9269531 213.071454,66.9269531 Z M212.931806,60.4523437 C212.360514,60.4523437 211.879155,60.6618143 211.487714,61.0807617 C211.096273,61.4997091 210.858239,62.062529 210.773603,62.7692383 L214.893232,62.7692383 L214.893232,62.6867187 C214.872073,62.0265592 214.683761,61.4891297 214.32829,61.0744141 C213.97282,60.6596984 213.50733,60.4523437 212.931806,60.4523437 Z M221.240888,65.0543945 C221.240888,64.677765 221.089604,64.3751965 220.78703,64.1466797 C220.522279,63.9467275 220.140084,63.784847 219.640436,63.6610345 L219.419111,63.6103027 C218.809733,63.4812331 218.336837,63.3331226 218.000409,63.1659668 C217.663982,62.998811 217.41431,62.7946301 217.251386,62.553418 C217.088462,62.3122058 217.007001,62.0202166 217.007001,61.6774414 C217.007001,61.135772 217.233399,60.6882667 217.6862,60.3349121 C218.139002,59.9815575 218.718749,59.8048828 219.425458,59.8048828 C220.191413,59.8048828 220.806071,59.9942527 221.269452,60.372998 C221.732834,60.7517434 221.964521,61.2457977 221.964521,61.8551758 L221.202802,61.8551758 C221.202802,61.4531555 221.034591,61.118849 220.698163,60.8522461 C220.361736,60.5856432 219.937505,60.4523437 219.425458,60.4523437 C218.926107,60.4523437 218.525151,60.5634266 218.222577,60.7855957 C217.920004,61.0077648 217.76872,61.2965803 217.76872,61.6520508 C217.76872,61.9948259 217.894614,62.2603669 218.146405,62.4486816 C218.37022,62.6160725 218.757868,62.7709227 219.309358,62.9132359 L219.523847,62.9660156 C220.190354,63.1225919 220.689698,63.2897452 221.021894,63.4674805 C221.354089,63.6452157 221.600588,63.858918 221.761396,64.1085937 C221.922204,64.3582695 222.002607,64.6608381 222.002607,65.0163086 C222.002607,65.5960641 221.768804,66.0594384 221.301191,66.4064453 C220.833578,66.7534523 220.223151,66.9269531 219.469892,66.9269531 C218.670083,66.9269531 218.021571,66.7333515 217.524335,66.3461426 C217.0271,65.9589336 216.778486,65.469111 216.778486,64.8766602 L217.540204,64.8766602 C217.569827,65.3209983 217.757081,65.6669421 218.101972,65.914502 C218.446863,66.1620618 218.902832,66.2858398 219.469892,66.2858398 C219.998866,66.2858398 220.42627,66.1694673 220.752118,65.9367187 C221.077966,65.7039702 221.240888,65.4098651 221.240888,65.0543945 Z M227.823407,65.0543945 C227.823407,64.677765 227.672123,64.3751965 227.36955,64.1466797 C227.104799,63.9467275 226.722604,63.784847 226.222956,63.6610345 L226.00163,63.6103027 C225.392252,63.4812331 224.919356,63.3331226 224.582929,63.1659668 C224.246501,62.998811 223.996829,62.7946301 223.833905,62.553418 C223.670982,62.3122058 223.589521,62.0202166 223.589521,61.6774414 C223.589521,61.135772 223.815918,60.6882667 224.26872,60.3349121 C224.721522,59.9815575 225.301269,59.8048828 226.007978,59.8048828 C226.773932,59.8048828 227.388591,59.9942527 227.851972,60.372998 C228.315353,60.7517434 228.54704,61.2457977 228.54704,61.8551758 L227.785322,61.8551758 C227.785322,61.4531555 227.61711,61.118849 227.280683,60.8522461 C226.944255,60.5856432 226.520025,60.4523437 226.007978,60.4523437 C225.508626,60.4523437 225.10767,60.5634266 224.805097,60.7855957 C224.502524,61.0077648 224.351239,61.2965803 224.351239,61.6520508 C224.351239,61.9948259 224.477133,62.2603669 224.728925,62.4486816 C224.95274,62.6160725 225.340387,62.7709227 225.891878,62.9132359 L226.106366,62.9660156 C226.772874,63.1225919 227.272218,63.2897452 227.604413,63.4674805 C227.936609,63.6452157 228.183107,63.858918 228.343915,64.1085937 C228.504723,64.3582695 228.585126,64.6608381 228.585126,65.0163086 C228.585126,65.5960641 228.351323,66.0594384 227.88371,66.4064453 C227.416097,66.7534523 226.80567,66.9269531 226.052411,66.9269531 C225.252603,66.9269531 224.60409,66.7333515 224.106855,66.3461426 C223.609619,65.9589336 223.361005,65.469111 223.361005,64.8766602 L224.122724,64.8766602 C224.152346,65.3209983 224.3396,65.6669421 224.684491,65.914502 C225.029382,66.1620618 225.485351,66.2858398 226.052411,66.2858398 C226.581385,66.2858398 227.00879,66.1694673 227.334638,65.9367187 C227.660486,65.7039702 227.823407,65.4098651 227.823407,65.0543945 Z M183.83415,79.2101562 L179.638349,79.2101562 L178.6862,81.8 L177.867353,81.8 L181.364911,72.5578125 L182.107587,72.5578125 L185.605146,81.8 L184.792646,81.8 L183.83415,79.2101562 Z M179.87956,78.5436523 L183.586591,78.5436523 L181.733075,73.5099609 L179.87956,78.5436523 Z M187.509443,74.9318359 L187.534833,76.1061523 C187.792973,75.6829731 188.114584,75.3603038 188.499677,75.1381348 C188.88477,74.9159657 189.310059,74.8048828 189.775556,74.8048828 C190.511888,74.8048828 191.059897,75.0122375 191.419599,75.4269531 C191.779301,75.8416687 191.961266,76.4637328 191.965497,77.2931641 L191.965497,81.8 L191.210126,81.8 L191.210126,77.2868164 C191.205894,76.6732066 191.075769,76.2161799 190.819745,75.9157227 C190.563722,75.6152654 190.154302,75.4650391 189.591474,75.4650391 C189.121745,75.4650391 188.705978,75.6120916 188.344159,75.9062012 C187.982341,76.2003107 187.714684,76.5970353 187.541181,77.0963867 L187.541181,81.8 L186.78581,81.8 L186.78581,74.9318359 L187.509443,74.9318359 Z M198.262372,81.8 C198.1862,81.5841786 198.137535,81.2646831 198.116376,80.8415039 C197.849773,81.1885108 197.510177,81.4561677 197.097577,81.6444824 C196.684978,81.8327972 196.248052,81.9269531 195.786786,81.9269531 C195.126627,81.9269531 194.592371,81.7428729 194.184003,81.374707 C193.775635,81.0065411 193.571454,80.541051 193.571454,79.9782227 C193.571454,79.3095995 193.84969,78.7806335 194.406171,78.3913086 C194.962652,78.0019837 195.738116,77.8073242 196.732587,77.8073242 L198.110029,77.8073242 L198.110029,77.0265625 C198.110029,76.5356746 197.958744,76.1495294 197.656171,75.8681152 C197.353598,75.5867011 196.91244,75.4459961 196.332685,75.4459961 C195.803711,75.4459961 195.365727,75.5814114 195.01872,75.8522461 C194.671713,76.1230808 194.498212,76.4489239 194.498212,76.8297852 L193.736493,76.8234375 C193.736493,76.2775363 193.990397,75.8046407 194.498212,75.4047363 C195.006027,75.004832 195.630207,74.8048828 196.370771,74.8048828 C197.136725,74.8048828 197.740804,74.9963685 198.183027,75.3793457 C198.625249,75.7623229 198.852704,76.2965786 198.8654,76.9821289 L198.8654,80.2321289 C198.8654,80.8965202 198.935223,81.3937483 199.074872,81.7238281 L199.074872,81.8 L198.262372,81.8 Z M195.875654,81.2541016 C196.383469,81.2541016 196.837321,81.1313814 197.237226,80.8859375 C197.63713,80.6404936 197.928061,80.3125346 198.110029,79.9020508 L198.110029,78.3913086 L196.75163,78.3913086 C195.994139,78.3997722 195.401697,78.5383613 194.974286,78.8070801 C194.546875,79.0757989 194.333173,79.4450172 194.333173,79.9147461 C194.333173,80.2998392 194.475994,80.6193347 194.76164,80.8732422 C195.047286,81.1271497 195.41862,81.2541016 195.875654,81.2541016 Z M201.740888,81.8 L200.979169,81.8 L200.979169,72.05 L201.740888,72.05 L201.740888,81.8 Z M205.981122,80.7082031 L207.986982,74.9318359 L208.805829,74.9318359 L205.873212,82.9679687 L205.720868,83.3234375 C205.344239,84.1571005 204.762376,84.5739258 203.975263,84.5739258 C203.793296,84.5739258 203.598636,84.5443037 203.391279,84.4850586 L203.384931,83.8566406 L203.778486,83.8947266 C204.150883,83.8947266 204.452394,83.8026865 204.683027,83.6186035 C204.913659,83.4345206 205.109377,83.1181989 205.270185,82.6696289 L205.606611,81.7428711 L203.016767,74.9318359 L203.84831,74.9318359 L205.981122,80.7082031 Z M214.093427,80.0543945 C214.093427,79.677765 213.942143,79.3751965 213.63957,79.1466797 C213.374818,78.9467275 212.992623,78.784847 212.492975,78.6610345 L212.27165,78.6103027 C211.662272,78.4812331 211.189376,78.3331226 210.852948,78.1659668 C210.516521,77.998811 210.266849,77.7946301 210.103925,77.553418 C209.941001,77.3122058 209.85954,77.0202166 209.85954,76.6774414 C209.85954,76.135772 210.085938,75.6882667 210.538739,75.3349121 C210.991541,74.9815575 211.571288,74.8048828 212.277997,74.8048828 C213.043952,74.8048828 213.65861,74.9942527 214.121991,75.372998 C214.585373,75.7517434 214.81706,76.2457977 214.81706,76.8551758 L214.055341,76.8551758 C214.055341,76.4531555 213.88713,76.118849 213.550702,75.8522461 C213.214275,75.5856432 212.790044,75.4523437 212.277997,75.4523437 C211.778646,75.4523437 211.37769,75.5634266 211.075116,75.7855957 C210.772543,76.0077648 210.621259,76.2965803 210.621259,76.6520508 C210.621259,76.9948259 210.747153,77.2603669 210.998945,77.4486816 C211.222759,77.6160725 211.610407,77.7709227 212.161897,77.9132359 L212.376386,77.9660156 C213.042893,78.1225919 213.542237,78.2897452 213.874433,78.4674805 C214.206629,78.6452157 214.453127,78.858918 214.613935,79.1085937 C214.774743,79.3582695 214.855146,79.6608381 214.855146,80.0163086 C214.855146,80.5960641 214.621343,81.0594384 214.15373,81.4064453 C213.686117,81.7534523 213.07569,81.9269531 212.322431,81.9269531 C211.522622,81.9269531 210.87411,81.7333515 210.376874,81.3461426 C209.879639,80.9589336 209.631025,80.469111 209.631025,79.8766602 L210.392743,79.8766602 C210.422366,80.3209983 210.60962,80.6669421 210.954511,80.914502 C211.299402,81.1620618 211.755371,81.2858398 212.322431,81.2858398 C212.851405,81.2858398 213.278809,81.1694673 213.604657,80.9367187 C213.930505,80.7039702 214.093427,80.4098651 214.093427,80.0543945 Z M217.743329,73.1735352 L217.743329,74.9318359 L219.165204,74.9318359 L219.165204,75.5539062 L217.743329,75.5539062 L217.743329,80.1305664 C217.743329,80.5114277 217.812095,80.7949535 217.949628,80.9811523 C218.087161,81.1673512 218.316733,81.2604492 218.638349,81.2604492 C218.765303,81.2604492 218.970541,81.2392906 219.254072,81.1969727 L219.28581,81.819043 C219.086916,81.8909834 218.816085,81.9269531 218.47331,81.9269531 C217.952799,81.9269531 217.57406,81.7756688 217.337079,81.4730957 C217.100099,81.1705226 216.981611,80.7251331 216.981611,80.1369141 L216.981611,75.5539062 L215.718427,75.5539062 L215.718427,74.9318359 L216.981611,74.9318359 L216.981611,73.1735352 L217.743329,73.1735352 Z" id="BusinessAnalyst" fill="#552952" fill-rule="nonzero"></path>
            <path d="M259.644892,66.8 L259.644892,57.5578125 L262.228388,57.5578125 C262.985879,57.5578125 263.665071,57.7302554 264.265986,58.0751465 C264.8669,58.4200375 265.335564,58.9140918 265.671991,59.5573242 C266.008419,60.2005566 266.17663,60.9326456 266.17663,61.7536133 L266.17663,62.6041992 C266.17663,63.4293987 266.009477,64.1614877 265.675165,64.8004883 C265.340854,65.4394889 264.870074,65.9324852 264.262812,66.2794922 C263.65555,66.6264991 262.958372,66.8 262.171259,66.8 L259.644892,66.8 Z M260.425654,58.2243164 L260.425654,66.1398437 L262.177607,66.1398437 C263.150919,66.1398437 263.931673,65.8171745 264.519892,65.1718262 C265.108111,64.5264779 265.402216,63.6536839 265.402216,62.553418 L265.402216,61.740918 C265.402216,60.6787382 265.112343,59.8281607 264.532587,59.1891602 C263.952832,58.5501596 263.189005,58.2285482 262.241083,58.2243164 L260.425654,58.2243164 Z M270.639032,66.9269531 C270.055045,66.9269531 269.527137,66.7830744 269.055292,66.4953125 C268.583447,66.2075506 268.216345,65.8065944 267.953974,65.2924316 C267.691603,64.7782689 267.560419,64.2016959 267.560419,63.5626953 L267.560419,63.2897461 C267.560419,62.6295865 267.688429,62.0350287 267.944452,61.5060547 C268.200476,60.9770807 268.556999,60.5613134 269.014032,60.2587402 C269.471066,59.9561671 269.966178,59.8048828 270.499384,59.8048828 C271.333047,59.8048828 271.994255,60.0894666 272.483027,60.6586426 C272.971799,61.2278186 273.216181,62.0053987 273.216181,62.9914062 L273.216181,63.4166992 L268.31579,63.4166992 L268.31579,63.5626953 C268.31579,64.341345 268.539014,64.9898574 268.985468,65.508252 C269.431922,66.0266465 269.993684,66.2858398 270.670771,66.2858398 C271.077023,66.2858398 271.435662,66.2117846 271.746698,66.0636719 C272.057735,65.9155592 272.340203,65.6785824 272.594111,65.3527344 L273.070185,65.7145508 C272.511588,66.5228231 271.701212,66.9269531 270.639032,66.9269531 Z M270.499384,60.4523437 C269.928092,60.4523437 269.446733,60.6618143 269.055292,61.0807617 C268.663851,61.4997091 268.425817,62.062529 268.341181,62.7692383 L272.46081,62.7692383 L272.46081,62.6867187 C272.439651,62.0265592 272.251339,61.4891297 271.895868,61.0744141 C271.540398,60.6596984 271.074908,60.4523437 270.499384,60.4523437 Z M276.834345,65.7526367 L278.922724,59.9318359 L279.703486,59.9318359 L277.139032,66.8 L276.52331,66.8 L273.946161,59.9318359 L274.726923,59.9318359 L276.834345,65.7526367 Z M283.607294,66.9269531 C283.023307,66.9269531 282.495399,66.7830744 282.023554,66.4953125 C281.551709,66.2075506 281.184607,65.8065944 280.922236,65.2924316 C280.659864,64.7782689 280.528681,64.2016959 280.528681,63.5626953 L280.528681,63.2897461 C280.528681,62.6295865 280.656691,62.0350287 280.912714,61.5060547 C281.168738,60.9770807 281.525261,60.5613134 281.982294,60.2587402 C282.439328,59.9561671 282.93444,59.8048828 283.467646,59.8048828 C284.301309,59.8048828 284.962516,60.0894666 285.451288,60.6586426 C285.94006,61.2278186 286.184443,62.0053987 286.184443,62.9914062 L286.184443,63.4166992 L281.284052,63.4166992 L281.284052,63.5626953 C281.284052,64.341345 281.507276,64.9898574 281.95373,65.508252 C282.400184,66.0266465 282.961946,66.2858398 283.639032,66.2858398 C284.045284,66.2858398 284.403923,66.2117846 284.71496,66.0636719 C285.025997,65.9155592 285.308465,65.6785824 285.562372,65.3527344 L286.038447,65.7145508 C285.47985,66.5228231 284.669474,66.9269531 283.607294,66.9269531 Z M283.467646,60.4523437 C282.896354,60.4523437 282.414995,60.6618143 282.023554,61.0807617 C281.632113,61.4997091 281.394078,62.062529 281.309443,62.7692383 L285.429072,62.7692383 L285.429072,62.6867187 C285.407913,62.0265592 285.219601,61.4891297 284.86413,61.0744141 C284.50866,60.6596984 284.043169,60.4523437 283.467646,60.4523437 Z M288.514032,66.8 L287.752314,66.8 L287.752314,57.05 L288.514032,57.05 L288.514032,66.8 Z M290.158075,63.2643555 C290.158075,62.6041959 290.286085,62.0096381 290.542109,61.4806641 C290.798132,60.9516901 291.159945,60.5401545 291.627558,60.2460449 C292.095171,59.9519354 292.625195,59.8048828 293.217646,59.8048828 C294.131713,59.8048828 294.872265,60.1254362 295.439325,60.7665527 C296.006386,61.4076692 296.289911,62.2571887 296.289911,63.3151367 L296.289911,63.4738281 C296.289911,64.1382195 296.161902,64.7359511 295.905878,65.267041 C295.649855,65.7981309 295.2891,66.2075506 294.823603,66.4953125 C294.358106,66.7830744 293.827024,66.9269531 293.230341,66.9269531 C292.320506,66.9269531 291.581011,66.6063997 291.011835,65.9652832 C290.442659,65.3241667 290.158075,64.4746472 290.158075,63.4166992 L290.158075,63.2643555 Z M290.919794,63.4738281 C290.919794,64.2947958 291.132439,64.9686985 291.557734,65.4955566 C291.983029,66.0224147 292.540559,66.2858398 293.230341,66.2858398 C293.915891,66.2858398 294.471306,66.0224147 294.896601,65.4955566 C295.321896,64.9686985 295.53454,64.2736371 295.53454,63.4103516 L295.53454,63.2643555 C295.53454,62.7396133 295.437211,62.2593121 295.242548,61.8234375 C295.047886,61.3875629 294.774939,61.0500826 294.4237,60.8109863 C294.072462,60.5718901 293.670447,60.4523437 293.217646,60.4523437 C292.540559,60.4523437 291.988318,60.7178847 291.560907,61.2489746 C291.133496,61.7800645 290.919794,62.4751259 290.919794,63.3341797 L290.919794,63.4738281 Z M303.380243,63.4357422 C303.380243,64.5063856 303.143267,65.3559051 302.669306,65.9843262 C302.195345,66.6127473 301.560586,66.9269531 300.765009,66.9269531 C299.825551,66.9269531 299.106157,66.5968783 298.606806,65.9367187 L298.606806,69.440625 L297.851435,69.440625 L297.851435,59.9318359 L298.556025,59.9318359 L298.594111,60.9030273 C299.08923,60.1709273 299.806508,59.8048828 300.745966,59.8048828 C301.566934,59.8048828 302.211214,60.1159149 302.678827,60.7379883 C303.14644,61.3600617 303.380243,62.2233343 303.380243,63.327832 L303.380243,63.4357422 Z M302.618525,63.3024414 C302.618525,62.4264605 302.438676,61.7345729 302.078974,61.2267578 C301.719272,60.7189428 301.217812,60.4650391 300.574579,60.4650391 C300.109082,60.4650391 299.709184,60.5771799 299.374872,60.8014648 C299.040561,61.0257498 298.784541,61.3515929 298.606806,61.7790039 L298.606806,65.0734375 C298.788773,65.4669942 299.049024,65.7674469 299.387568,65.9748047 C299.726111,66.1821625 300.126009,66.2858398 300.587275,66.2858398 C301.226275,66.2858398 301.724561,66.0308782 302.082148,65.5209473 C302.439734,65.0110163 302.618525,64.2715218 302.618525,63.3024414 Z M307.72204,66.9269531 C307.138053,66.9269531 306.610145,66.7830744 306.1383,66.4953125 C305.666455,66.2075506 305.299353,65.8065944 305.036982,65.2924316 C304.774611,64.7782689 304.643427,64.2016959 304.643427,63.5626953 L304.643427,63.2897461 C304.643427,62.6295865 304.771437,62.0350287 305.02746,61.5060547 C305.283484,60.9770807 305.640007,60.5613134 306.09704,60.2587402 C306.554074,59.9561671 307.049186,59.8048828 307.582392,59.8048828 C308.416055,59.8048828 309.077262,60.0894666 309.566034,60.6586426 C310.054806,61.2278186 310.299189,62.0053987 310.299189,62.9914062 L310.299189,63.4166992 L305.398798,63.4166992 L305.398798,63.5626953 C305.398798,64.341345 305.622022,64.9898574 306.068476,65.508252 C306.51493,66.0266465 307.076692,66.2858398 307.753779,66.2858398 C308.160031,66.2858398 308.51867,66.2117846 308.829706,66.0636719 C309.140743,65.9155592 309.423211,65.6785824 309.677118,65.3527344 L310.153193,65.7145508 C309.594596,66.5228231 308.78422,66.9269531 307.72204,66.9269531 Z M307.582392,60.4523437 C307.0111,60.4523437 306.529741,60.6618143 306.1383,61.0807617 C305.746859,61.4997091 305.508825,62.062529 305.424189,62.7692383 L309.543818,62.7692383 L309.543818,62.6867187 C309.522659,62.0265592 309.334347,61.4891297 308.978876,61.0744141 C308.623406,60.6596984 308.157916,60.4523437 307.582392,60.4523437 Z M314.952021,60.5792969 C314.791213,60.5496743 314.619828,60.5348633 314.437861,60.5348633 C313.9639,60.5348633 313.562944,60.6671048 313.23498,60.9315918 C312.907016,61.1960788 312.673213,61.5801082 312.533564,62.0836914 L312.533564,66.8 L311.778193,66.8 L311.778193,59.9318359 L312.520868,59.9318359 L312.533564,61.0236328 C312.935584,60.2111287 313.580923,59.8048828 314.469599,59.8048828 C314.681188,59.8048828 314.848342,59.832389 314.971064,59.8874023 L314.952021,60.5792969 Z" id="Developer" fill="#552952" fill-rule="nonzero"></path>
        </g>
    </g>
</svg>