<?xml version="1.0" encoding="UTF-8"?>
<svg width="300px" height="201px" viewBox="0 0 300 201" version="1.1" xmlns="http://www.w3.org/2000/svg" xmlns:xlink="http://www.w3.org/1999/xlink">
    <!-- Generator: Sketch 59.1 (86144) - https://sketch.com -->
    <title>Supportimg</title>
    <desc>Created with Sketch.</desc>
    <defs>
        <linearGradient x1="100%" y1="17.0698688%" x2="100%" y2="70.304863%" id="linearGradient-1">
            <stop stop-color="#FFFFFF" stop-opacity="0" offset="0%"></stop>
            <stop stop-color="#979797" offset="100%"></stop>
        </linearGradient>
    </defs>
    <g id="Supportimg" stroke="none" stroke-width="1" fill="none" fill-rule="evenodd" transform="translate(0.000000, 1.000000)">
        <g id="gear" transform="translate(68.000000, 88.500000)" fill="#035AA6" fill-rule="nonzero">
            <path d="M69.9317375,27.6540387 L64.4273751,26.4574382 C63.9487351,24.9920123 63.3558986,23.5626484 62.6559693,22.1857383 L65.7032026,17.4457796 C66.24741,16.5988707 66.1277499,15.486961 65.4163464,14.7755574 L56.8412559,6.2004669 C56.1298523,5.48906338 55.0179426,5.3694033 54.1710337,5.91361065 L49.431075,8.96084395 C48.0541649,8.26091465 46.624801,7.66807822 45.1593751,7.18943816 L43.9627746,1.68507578 C43.749135,0.701568514 42.8781847,0 41.8717289,0 L29.7450844,0 C28.7386286,0 27.8676783,0.701568514 27.6540387,1.68507578 L26.4574382,7.18943816 C24.9920123,7.66807822 23.5626484,8.26091465 22.1857383,8.96084395 L17.4457796,5.91361065 C16.5988707,5.3694033 15.486961,5.48906338 14.7755574,6.2004669 L6.2004669,14.7755574 C5.48906338,15.486961 5.3694033,16.5988707 5.91361065,17.4457796 L8.96084395,22.1857383 C8.26091465,23.5626484 7.66807822,24.9920123 7.18943816,26.4574382 L1.68507578,27.6540387 C0.701568514,27.8682247 1.42108547e-13,28.7386286 1.42108547e-13,29.7450844 L1.42108547e-13,41.8717289 C1.42108547e-13,42.8781847 0.701568514,43.7485886 1.68507578,43.9627746 L7.18943816,45.1593751 C7.66807822,46.624801 8.26091465,48.0541649 8.96084395,49.431075 L5.91361065,54.1710337 C5.3694033,55.0179426 5.48906338,56.1298523 6.2004669,56.8412559 L14.7755574,65.4163464 C15.486961,66.1277499 16.5988707,66.24741 17.4457796,65.7032026 L22.1857383,62.6559693 C23.5626484,63.3558986 24.9920123,63.9487351 26.4574382,64.4273751 L27.6540387,69.9317375 C27.8676783,70.9152448 28.7386286,71.6168133 29.7450844,71.6168133 L41.8717289,71.6168133 C42.8781847,71.6168133 43.749135,70.9152448 43.9627746,69.9317375 L45.1593751,64.4273751 C46.624801,63.9487351 48.0541649,63.3558986 49.431075,62.6559693 L54.1710337,65.7032026 C55.0179426,66.24741 56.1298523,66.1282964 56.8412559,65.4163464 L65.4163464,56.8412559 C66.1277499,56.1298523 66.24741,55.0179426 65.7032026,54.1710337 L62.6559693,49.431075 C63.3558986,48.0541649 63.9487351,46.624801 64.4273751,45.1593751 L69.9317375,43.9627746 C70.9152448,43.7485886 71.6168133,42.8781847 71.6168133,41.8717289 L71.6168133,29.7450844 C71.6168133,28.7386286 70.9152448,27.8682247 69.9317375,27.6540387 Z M48.648094,35.8084066 C48.648094,42.8880197 42.8880197,48.648094 35.8084066,48.648094 C28.7287936,48.648094 22.9687193,42.8880197 22.9687193,35.8084066 C22.9687193,28.7287936 28.7287936,22.9687193 35.8084066,22.9687193 C42.8880197,22.9687193 48.648094,28.7287936 48.648094,35.8084066 Z" id="Shape"></path>
        </g>
        <g id="gear-copy" transform="translate(146.121864, 98.500000)" fill="#035AA6" fill-rule="nonzero">
            <path d="M39.2982626,15.5402355 L36.2050765,14.8678038 C35.9361039,14.0443052 35.6029584,13.2410716 35.2096319,12.4673145 L36.92203,9.80368647 C37.2278483,9.32776449 37.1606051,8.70292492 36.7608306,8.30315039 L31.9420435,3.48436325 C31.542269,3.0845888 30.9174294,3.0173456 30.4415074,3.32316388 L27.7778793,5.03556198 C27.0041222,4.64223548 26.2008887,4.30909001 25.37739,4.04011739 L24.7049583,0.946931289 C24.5849032,0.394247657 24.0954711,0 23.5298915,0 L16.7153024,0 C16.1497227,0 15.6602907,0.394247657 15.5402355,0.946931289 L14.8678038,4.04011739 C14.0443052,4.30909001 13.2410716,4.64223548 12.4673145,5.03556198 L9.80368647,3.32316388 C9.32776449,3.0173456 8.70292492,3.0845888 8.30315039,3.48436325 L3.48436325,8.30315039 C3.0845888,8.70292492 3.0173456,9.32776449 3.32316388,9.80368647 L5.03556198,12.4673145 C4.64223548,13.2410716 4.30909001,14.0443052 4.04011739,14.8678038 L0.946931289,15.5402355 C0.394247657,15.6605978 1.42108547e-13,16.1497227 1.42108547e-13,16.7153024 L1.42108547e-13,23.5298915 C1.42108547e-13,24.0954711 0.394247657,24.5845961 0.946931289,24.7049583 L4.04011739,25.37739 C4.30909001,26.2008887 4.64223548,27.0041222 5.03556198,27.7778793 L3.32316388,30.4415074 C3.0173456,30.9174294 3.0845888,31.542269 3.48436325,31.9420435 L8.30315039,36.7608306 C8.70292492,37.1606051 9.32776449,37.2278483 9.80368647,36.92203 L12.4673145,35.2096319 C13.2410716,35.6029584 14.0443052,35.9361039 14.8678038,36.2050765 L15.5402355,39.2982626 C15.6602907,39.8509462 16.1497227,40.2451939 16.7153024,40.2451939 L23.5298915,40.2451939 C24.0954711,40.2451939 24.5849032,39.8509462 24.7049583,39.2982626 L25.37739,36.2050765 C26.2008887,35.9361039 27.0041222,35.6029584 27.7778793,35.2096319 L30.4415074,36.92203 C30.9174294,37.2278483 31.542269,37.1609122 31.9420435,36.7608306 L36.7608306,31.9420435 C37.1606051,31.542269 37.2278483,30.9174294 36.92203,30.4415074 L35.2096319,27.7778793 C35.6029584,27.0041222 35.9361039,26.2008887 36.2050765,25.37739 L39.2982626,24.7049583 C39.8509462,24.5845961 40.2451939,24.0954711 40.2451939,23.5298915 L40.2451939,16.7153024 C40.2451939,16.1497227 39.8509462,15.6605978 39.2982626,15.5402355 Z M27.3378818,20.1225969 C27.3378818,24.1009979 24.1009979,27.3378818 20.1225969,27.3378818 C16.1441959,27.3378818 12.9073121,24.1009979 12.9073121,20.1225969 C12.9073121,16.1441959 16.1441959,12.9073121 20.1225969,12.9073121 C24.1009979,12.9073121 27.3378818,16.1441959 27.3378818,20.1225969 Z" id="Shape"></path>
        </g>
        <g id="gear-copy-2" transform="translate(123.376141, 44.000000)" fill="#035AA6" fill-rule="nonzero">
            <path d="M50.2404325,19.8672436 L46.2859827,19.0075806 C45.9421176,17.9547878 45.5162114,16.9279027 45.0133675,15.9387014 L47.202564,12.5334154 C47.593534,11.9249781 47.5075677,11.1261588 46.9964804,10.6150715 L40.8359549,4.45454596 C40.3248675,3.94345869 39.5260483,3.85749237 38.917611,4.24846239 L35.5123249,6.43765894 C34.5231237,5.934815 33.4962386,5.50890883 32.4434458,5.16504373 L31.5837828,1.21059391 C31.4302996,0.50402159 30.8045906,0 30.0815315,0 L21.3694949,0 C20.6464358,0 20.0207268,0.50402159 19.8672436,1.21059391 L19.0075806,5.16504373 C17.9547878,5.50890883 16.9279027,5.934815 15.9387014,6.43765894 L12.5334154,4.24846239 C11.9249781,3.85749237 11.1261588,3.94345869 10.6150715,4.45454596 L4.45454596,10.6150715 C3.94345869,11.1261588 3.85749237,11.9249781 4.24846239,12.5334154 L6.43765894,15.9387014 C5.934815,16.9279027 5.50890883,17.9547878 5.16504373,19.0075806 L1.21059391,19.8672436 C0.50402159,20.0211193 1.42108547e-13,20.6464358 1.42108547e-13,21.3694949 L1.42108547e-13,30.0815315 C1.42108547e-13,30.8045906 0.50402159,31.4299071 1.21059391,31.5837828 L5.16504373,32.4434458 C5.50890883,33.4962386 5.934815,34.5231237 6.43765894,35.5123249 L4.24846239,38.917611 C3.85749237,39.5260483 3.94345869,40.3248675 4.45454596,40.8359549 L10.6150715,46.9964804 C11.1261588,47.5075677 11.9249781,47.593534 12.5334154,47.202564 L15.9387014,45.0133675 C16.9279027,45.5162114 17.9547878,45.9421176 19.0075806,46.2859827 L19.8672436,50.2404325 C20.0207268,50.9470048 20.6464358,51.4510264 21.3694949,51.4510264 L30.0815315,51.4510264 C30.8045906,51.4510264 31.4302996,50.9470048 31.5837828,50.2404325 L32.4434458,46.2859827 C33.4962386,45.9421176 34.5231237,45.5162114 35.5123249,45.0133675 L38.917611,47.202564 C39.5260483,47.593534 40.3248675,47.5079603 40.8359549,46.9964804 L46.9964804,40.8359549 C47.5075677,40.3248675 47.593534,39.5260483 47.202564,38.917611 L45.0133675,35.5123249 C45.5162114,34.5231237 45.9421176,33.4962386 46.2859827,32.4434458 L50.2404325,31.5837828 C50.9470048,31.4299071 51.4510264,30.8045906 51.4510264,30.0815315 L51.4510264,21.3694949 C51.4510264,20.6464358 50.9470048,20.0211193 50.2404325,19.8672436 Z M34.9498149,25.7255132 C34.9498149,30.8116563 30.8116563,34.9498149 25.7255132,34.9498149 C20.6393701,34.9498149 16.5012115,30.8116563 16.5012115,25.7255132 C16.5012115,20.6393701 20.6393701,16.5012115 25.7255132,16.5012115 C30.8116563,16.5012115 34.9498149,20.6393701 34.9498149,25.7255132 Z" id="Shape"></path>
        </g>
        <path d="M212.132124,106.14444 C212.132124,149.574195 180.382889,186.292059 137.901063,192.864444 L138.944867,192.693811 L139.428324,199 L124.376141,192.861891 L138.317938,184.50301 L138.786197,190.616999 C179.654447,183.700069 210.055059,148.134978 210.055059,106.14444 L210.055059,106.14444 L212.132124,106.14444 Z M151.300086,16 L162.179125,28.0785399 L145.98887,29.5346469 L148.227307,23.8288821 C140.543157,21.6062752 132.536767,20.4655219 124.376141,20.4655219 C77.0569812,20.4655219 38.6972228,58.8252802 38.6972228,106.14444 C38.6972228,124.973287 44.7855854,142.876862 55.8673175,157.60588 L55.8673175,157.60588 L54.2075591,158.854639 C42.8572639,143.768667 36.6201581,125.427695 36.6201581,106.14444 C36.6201581,57.6781491 75.90985,18.3884572 124.376141,18.3884572 C132.798039,18.3884572 141.061681,19.5752727 148.989299,21.8872998 L151.300086,16 Z" id="Shape" fill="#2E939C" fill-rule="nonzero" transform="translate(124.376141, 107.500000) rotate(66.000000) translate(-124.376141, -107.500000) "></path>
        <g id="Group-2" transform="translate(13.000000, 4.000000)" fill-rule="nonzero">
            <path d="M12.1966146,46.4689994 C12.1966146,49.2501302 15.4889619,50.5864893 17.5025945,48.2758898 L16.4974055,47.3998915 C15.309363,48.7631444 13.5299479,48.0408824 13.5299479,46.4689994 C13.5299479,45.4371697 14.0251152,44.8455363 15.1609482,44.5629624 L15.6666667,44.4371491 L15.6666667,0 L14.3333333,0 L14.3333333,43.4229303 C12.943821,43.9305999 12.1966146,44.9774717 12.1966146,46.4689994 Z" id="Path-35" fill="url(#linearGradient-1)"></path>
            <polygon id="Path-36" fill="#979797" points="28.8668856 70.4213137 29.9872811 69.6984779 15.0468263 46.5407729 0.642386711 65.3379884 1.70071225 66.1489908 14.9531737 48.8550604"></polygon>
        </g>
        <g id="gear-copy" transform="translate(7.500000, 59.000000)" fill="#ED9208" fill-rule="nonzero">
            <path d="M39.2982626,15.5402355 L36.2050765,14.8678038 C35.9361039,14.0443052 35.6029584,13.2410716 35.2096319,12.4673145 L36.92203,9.80368647 C37.2278483,9.32776449 37.1606051,8.70292492 36.7608306,8.30315039 L31.9420435,3.48436325 C31.542269,3.0845888 30.9174294,3.0173456 30.4415074,3.32316388 L27.7778793,5.03556198 C27.0041222,4.64223548 26.2008887,4.30909001 25.37739,4.04011739 L24.7049583,0.946931289 C24.5849032,0.394247657 24.0954711,0 23.5298915,0 L16.7153024,0 C16.1497227,0 15.6602907,0.394247657 15.5402355,0.946931289 L14.8678038,4.04011739 C14.0443052,4.30909001 13.2410716,4.64223548 12.4673145,5.03556198 L9.80368647,3.32316388 C9.32776449,3.0173456 8.70292492,3.0845888 8.30315039,3.48436325 L3.48436325,8.30315039 C3.0845888,8.70292492 3.0173456,9.32776449 3.32316388,9.80368647 L5.03556198,12.4673145 C4.64223548,13.2410716 4.30909001,14.0443052 4.04011739,14.8678038 L0.946931289,15.5402355 C0.394247657,15.6605978 1.42108547e-13,16.1497227 1.42108547e-13,16.7153024 L1.42108547e-13,23.5298915 C1.42108547e-13,24.0954711 0.394247657,24.5845961 0.946931289,24.7049583 L4.04011739,25.37739 C4.30909001,26.2008887 4.64223548,27.0041222 5.03556198,27.7778793 L3.32316388,30.4415074 C3.0173456,30.9174294 3.0845888,31.542269 3.48436325,31.9420435 L8.30315039,36.7608306 C8.70292492,37.1606051 9.32776449,37.2278483 9.80368647,36.92203 L12.4673145,35.2096319 C13.2410716,35.6029584 14.0443052,35.9361039 14.8678038,36.2050765 L15.5402355,39.2982626 C15.6602907,39.8509462 16.1497227,40.2451939 16.7153024,40.2451939 L23.5298915,40.2451939 C24.0954711,40.2451939 24.5849032,39.8509462 24.7049583,39.2982626 L25.37739,36.2050765 C26.2008887,35.9361039 27.0041222,35.6029584 27.7778793,35.2096319 L30.4415074,36.92203 C30.9174294,37.2278483 31.542269,37.1609122 31.9420435,36.7608306 L36.7608306,31.9420435 C37.1606051,31.542269 37.2278483,30.9174294 36.92203,30.4415074 L35.2096319,27.7778793 C35.6029584,27.0041222 35.9361039,26.2008887 36.2050765,25.37739 L39.2982626,24.7049583 C39.8509462,24.5845961 40.2451939,24.0954711 40.2451939,23.5298915 L40.2451939,16.7153024 C40.2451939,16.1497227 39.8509462,15.6605978 39.2982626,15.5402355 Z M27.3378818,20.1225969 C27.3378818,24.1009979 24.1009979,27.3378818 20.1225969,27.3378818 C16.1441959,27.3378818 12.9073121,24.1009979 12.9073121,20.1225969 C12.9073121,16.1441959 16.1441959,12.9073121 20.1225969,12.9073121 C24.1009979,12.9073121 27.3378818,16.1441959 27.3378818,20.1225969 Z" id="Shape"></path>
        </g>
    </g>
</svg>