<?xml version="1.0" encoding="UTF-8"?>
<svg width="71px" height="22px" viewBox="0 0 71 22" version="1.1" xmlns="http://www.w3.org/2000/svg" xmlns:xlink="http://www.w3.org/1999/xlink">
    <!-- Generator: Sketch 59.1 (86144) - https://sketch.com -->
    <title>V2solutions_logo</title>
    <desc>Created with Sketch.</desc>
    <g id="Mobirise_RPA" stroke="none" stroke-width="1" fill="none" fill-rule="evenodd">
        <g id="V2solutions_logo" transform="translate(0.241187, 0.000000)">
            <rect id="Rectangle" fill="#000000" opacity="0.01" x="0" y="0" width="70" height="22"></rect>
            <g id="v2solutions-logo-2" transform="translate(0.000000, 4.000000)" fill-rule="nonzero">
                <g id="Group-3">
                    <g id="Group-6">
                        <path d="M2.71314213,2.18790697 L3.61139967,2.18790697 L5.64215489,2.18790697 L6.88325221,2.18790697 L6.88325221,3.42900429 L6.88325221,5.45947068 L6.88325221,6.35801705 L8.49751632,7.97228116 C8.8103179,7.58496175 8.99834544,7.09308632 8.99834544,6.55933072 L8.99834544,2.32885542 L8.99834544,0.0728137381 C8.99834544,0.0728137381 7.362708,0.0725249093 6.74201493,0.0725249093 L2.51153963,0.0725249093 C1.97778403,0.0725249093 1.48619743,0.260841281 1.09887802,0.573642861 L2.71314213,2.18790697 Z" id="Fill-143" fill="#F15A24"></path>
                        <path d="M6.50789031,6.70051023 L5.64227043,6.70051023 L3.97977191,6.70051023 L2.32998185,6.67393798 L2.37041788,4.6506923 L2.37041788,3.42894652 L2.37041788,2.56303781 L0.741712334,0.934621084 C0.437864447,1.3190522 0.255324651,1.80341809 0.255324651,2.32908648 L0.255324651,6.55956178 C0.255324651,7.80037027 1.27055785,8.81589229 2.51165516,8.81589229 L6.74213046,8.81589229 C7.26751003,8.81589229 7.75187591,8.6333525 8.13659586,8.32921578 L6.50789031,6.70051023 Z" id="Fill-145" fill="#2D81AF"></path>
                    </g>
                    <g id="Group-166" transform="translate(10.975494, 1.444144)">
                        <polygon id="Fill-147" fill="#2D81AF" points="6.42560299 0.171708716 4.18746869 6.0964537 2.35802713 6.0964537 0.128268866 0.171708716 1.67003695 0.171708716 3.15837171 4.53677823 3.27217025 4.87181963 3.38683528 4.53793354 4.8838349 0.171708716"></polygon>
                        <path d="M11.3517224,5.02411905 L11.3517224,6.09654035 L7.01091453,6.09654035 L7.01091453,5.10499111 C7.61658851,4.66741549 8.1171288,4.29973644 8.50040461,4.00975233 C8.89581122,3.71110337 9.20774631,3.45577871 9.42552322,3.25273207 C9.65283148,3.03986526 9.80388894,2.86454618 9.88736046,2.71464404 C9.97314261,2.55983181 10.0156004,2.39779885 10.0156004,2.23085581 C10.0156004,1.98679549 9.91277739,1.7932802 9.7192621,1.66879499 C9.53903294,1.55499644 9.32761026,1.49694186 9.08932651,1.49694186 C8.74590908,1.49694186 8.43772876,1.55875122 8.17171744,1.67832634 C7.94671981,1.78114939 7.73500831,1.91661009 7.54178185,2.08355313 L6.85956825,1.26472351 C6.99040769,1.1341729 7.13048965,1.01950787 7.28039179,0.921306076 C7.45946564,0.804041587 7.65038147,0.706128627 7.84880685,0.631321971 C8.0469434,0.55507117 8.2525895,0.498171898 8.45708029,0.462068299 C8.66243756,0.425675872 8.86692834,0.407479658 9.06275426,0.407479658 C9.39288557,0.407479658 9.69991057,0.45224812 9.97574207,0.541785045 C10.2501294,0.629877827 10.4895685,0.755807179 10.6865497,0.914085357 C10.8826645,1.07265236 11.0360326,1.26472351 11.144921,1.48741051 C11.2526542,1.70865336 11.306954,1.95877909 11.306954,2.23085581 C11.306954,2.43765723 11.2694062,2.64214801 11.1934442,2.84028456 C11.1160381,3.04102057 10.9938636,3.24551135 10.8306753,3.44740268 C10.6637322,3.65420409 10.4497101,3.87169217 10.1920748,4.09437917 C9.93328424,4.31793265 9.62134914,4.55737172 9.2658009,4.80403151 L8.9478004,5.02411905 L11.3517224,5.02411905 Z" id="Fill-149" fill="#2D81AF"></path>
                        <path d="M16.2470527,4.00755724 C16.1526057,3.83223816 16.0234992,3.6811807 15.8649322,3.55785081 C15.7028993,3.43452092 15.5192042,3.33285318 15.3147134,3.25544707 C15.107912,3.17804095 14.8927345,3.10670024 14.6752464,3.04258025 C14.4563142,2.97846025 14.2434474,2.91578441 14.0354907,2.85397505 C13.8252233,2.79245451 13.6340186,2.71851434 13.464765,2.63648697 C13.2917565,2.55041599 13.1505193,2.44181636 13.0465409,2.31357638 C12.9388077,2.18042631 12.8845079,2.01117263 12.8845079,1.81043663 C12.8845079,1.64378241 12.9217669,1.48781487 12.995707,1.34859939 C13.0705137,1.20967274 13.1721814,1.08865348 13.3015767,0.986985743 C13.4283725,0.886762153 13.5808742,0.808200722 13.7538826,0.753612081 C13.9254469,0.699312268 14.1128968,0.672740019 14.3113222,0.672740019 C14.6498295,0.672740019 14.9701406,0.733105236 15.2627242,0.851813869 C15.5374004,0.964168269 15.7803054,1.14064266 15.9859515,1.3777711 L16.2360772,1.10078429 C16.0220551,0.865099994 15.7621092,0.678805424 15.4611496,0.546810666 C15.1431491,0.407884018 14.7644945,0.337698622 14.3378944,0.337698622 C14.0814144,0.337698622 13.8370653,0.37409105 13.6112012,0.444276446 C13.3850482,0.515617157 13.1843122,0.616996063 13.0139032,0.746391361 C12.8458049,0.874631344 12.7114995,1.03319835 12.6147418,1.21689346 C12.5191395,1.39943326 12.4709051,1.6085453 12.4709051,1.83700887 C12.4709051,2.15876415 12.5517772,2.41524411 12.7138101,2.59893922 C12.8795978,2.78638911 13.0898652,2.9397572 13.3414351,3.05240043 C13.5964709,3.16735428 13.8772125,3.26151247 14.1758615,3.33285318 C14.4817311,3.40650452 14.7682493,3.49488613 15.0293505,3.59395441 C15.2953619,3.69562214 15.5203595,3.82992753 15.6968339,3.99196048 C15.8819731,4.16121415 15.974976,4.3994979 15.974976,4.70161282 C15.974976,4.83100812 15.9507144,4.96877945 15.9013247,5.11146087 C15.8516461,5.25789707 15.7621092,5.39220246 15.6364687,5.51293289 C15.5119834,5.6313527 15.3438851,5.73186512 15.1393943,5.81042655 C14.934037,5.88783266 14.6764018,5.92769104 14.3728427,5.92769104 C14.1576652,5.92769104 13.9557739,5.90342942 13.7743894,5.85519501 C13.593005,5.80811592 13.4211518,5.74399593 13.2628737,5.66283504 C13.1045955,5.58196297 12.9604699,5.48867127 12.8359847,5.38353759 C12.7296957,5.29660013 12.6340934,5.20475257 12.5506219,5.11030556 L12.3051174,5.39451309 C12.5156736,5.64348351 12.7912162,5.85028492 13.123947,6.01000724 C13.473141,6.1781056 13.8904986,6.26273243 14.3633113,6.26273243 C14.7454318,6.26273243 15.0692089,6.21189857 15.3279995,6.11283029 C15.5844795,6.01491733 15.7947468,5.88667735 15.9544692,5.73186512 C16.111592,5.5782082 16.2242352,5.4066439 16.2895105,5.22150464 C16.3559412,5.03289944 16.3885788,4.8468937 16.3885788,4.66666454 C16.3885788,4.40411917 16.3414997,4.181721 16.2470527,4.00755724" id="Fill-151" fill="#F15A24"></path>
                        <path d="M22.4645546,4.34132779 C22.3522002,4.65932828 22.1901672,4.93978104 21.9856764,5.17575416 C21.778875,5.41143846 21.5273051,5.59888834 21.2384763,5.72943895 C20.9493587,5.86114488 20.6218269,5.9275755 20.2651233,5.9275755 C19.9023544,5.9275755 19.5710677,5.86114488 19.2819501,5.72943895 C18.9931213,5.59888834 18.7415514,5.41143846 18.5359054,5.17575416 C18.3305481,4.93978104 18.1708258,4.65932828 18.060782,4.34017247 C17.9507382,4.02332729 17.8949943,3.67384445 17.8949943,3.30038882 C17.8949943,2.92173428 17.9507382,2.5687855 18.060782,2.250785 C18.1708258,1.9327845 18.3305481,1.65348706 18.5359054,1.41982457 C18.7415514,1.18645091 18.9931213,1.00160048 19.2819501,0.871049867 C19.5722231,0.739343938 19.9023544,0.672624488 20.2651233,0.672624488 C20.6218269,0.672624488 20.9493587,0.739343938 21.2384763,0.871049867 C21.5273051,1.00160048 21.778875,1.18645091 21.9845211,1.41982457 C22.1901672,1.65204292 22.3522002,1.93134036 22.4645546,2.250785 C22.576909,2.5687855 22.6338082,2.92173428 22.6338082,3.30038882 C22.6338082,3.67384445 22.576909,4.02332729 22.4645546,4.34132779 M22.8489857,2.12976574 C22.7184351,1.77075155 22.5286746,1.45390637 22.2869249,1.19020568 C22.0448863,0.925349679 21.7499921,0.71508232 21.40773,0.565180178 C21.0654679,0.413833891 20.6810368,0.337871919 20.2651233,0.337871919 C19.8431445,0.337871919 19.4561139,0.413833891 19.1176065,0.565180178 C18.7790992,0.71508232 18.4839162,0.925349679 18.2433218,1.19020568 C18.0004168,1.45506168 17.8118116,1.77075155 17.6798168,2.12976574 C17.5492662,2.48877992 17.4816803,2.88303122 17.4816803,3.30038882 C17.4816803,3.7174576 17.5492662,4.1117089 17.6798168,4.47072308 C17.8118116,4.82973727 18.0004168,5.14542714 18.2433218,5.41028314 C18.4853603,5.67485031 18.7790992,5.8854065 19.1176065,6.03530864 C19.4572692,6.1863661 19.8431445,6.2626169 20.2651233,6.2626169 C20.6810368,6.2626169 21.0654679,6.1863661 21.40773,6.03530864 C21.7488368,5.8854065 22.0448863,5.67485031 22.2869249,5.41028314 C22.5286746,5.14542714 22.7184351,4.82973727 22.8489857,4.47072308 C22.9809804,4.1117089 23.0474111,3.7174576 23.0474111,3.30038882 C23.0474111,2.88303122 22.9809804,2.48877992 22.8489857,2.12976574" id="Fill-153" fill="#F15A24"></path>
                        <polygon id="Fill-155" fill="#F15A24" points="27.6034831 5.82255736 27.6034831 6.15759875 24.3954617 6.15759875 24.3954617 0.434456267 24.7741162 0.434456267 24.7741162 5.82255736"></polygon>
                        <path d="M32.9842479,0.434542916 L32.9842479,3.97500623 C32.9842479,4.67974848 32.796798,5.24469759 32.4268083,5.65194619 C32.057974,6.05717298 31.5016897,6.26281908 30.7703752,6.26281908 C30.4076062,6.26281908 30.0835403,6.20823044 29.8088642,6.1004973 C29.5356321,5.99305299 29.3034138,5.84055139 29.117408,5.64616961 C28.9322688,5.45265432 28.7907427,5.21177111 28.6988951,4.9327625 C28.6047369,4.6508656 28.557369,4.32911033 28.557369,3.97500623 L28.557369,0.434542916 L28.9360236,0.434542916 L28.9360236,3.9666302 C28.9360236,4.5746148 29.0931464,5.05840302 29.4039262,5.40413109 C29.7158613,5.75130329 30.1753879,5.92777768 30.7703752,5.92777768 C31.3711391,5.92777768 31.8332652,5.75130329 32.1426008,5.40413109 C32.4499146,5.05840302 32.6058822,4.5746148 32.6058822,3.9666302 L32.6058822,0.434542916 L32.9842479,0.434542916 Z" id="Fill-157" fill="#F15A24"></path>
                        <polygon id="Fill-159" fill="#F15A24" points="38.3456612 0.434542916 38.3456612 0.768140169 36.4365029 0.768140169 36.4365029 6.15739657 36.0578483 6.15739657 36.0578483 0.768140169 34.1475347 0.768140169 34.1475347 0.434542916"></polygon>
                        <polygon id="Fill-161" fill="#F15A24" points="39.5100456 6.15754099 39.8884113 6.15754099 39.8884113 0.43468733 39.5100456 0.43468733"></polygon>
                        <path d="M46.2269324,4.34132779 C46.114578,4.65932828 45.9525451,4.93978104 45.7480543,5.17575416 C45.5412529,5.41143846 45.2899718,5.59888834 45.0008542,5.72943895 C44.7120254,5.86114488 44.3842047,5.9275755 44.0275012,5.9275755 C43.6647322,5.9275755 43.3334456,5.86114488 43.044328,5.72943895 C42.7554992,5.59888834 42.5039293,5.41143846 42.2982832,5.17575416 C42.0929259,4.93978104 41.9332036,4.65932828 41.8231598,4.34017247 C41.7131161,4.02332729 41.6576609,3.67384445 41.6576609,3.30038882 C41.6576609,2.92173428 41.7131161,2.5687855 41.8231598,2.250785 C41.9332036,1.9327845 42.0929259,1.65204292 42.2982832,1.41982457 C42.5039293,1.18645091 42.7554992,1.00160048 43.044328,0.871049867 C43.3346009,0.739343938 43.6647322,0.672624488 44.0275012,0.672624488 C44.3842047,0.672624488 44.7120254,0.739343938 45.0008542,0.871049867 C45.2899718,1.00160048 45.5412529,1.18645091 45.746899,1.41982457 C45.9525451,1.65204292 46.1134227,1.93134036 46.2269324,2.250785 C46.3392868,2.5687855 46.3961861,2.92173428 46.3961861,3.30038882 C46.3961861,3.67384445 46.3392868,4.02332729 46.2269324,4.34132779 M46.6113635,2.12976574 C46.4808129,1.77075155 46.2910524,1.45390637 46.0493027,1.19020568 C45.8072642,0.925349679 45.51237,0.716237635 45.1701079,0.565180178 C44.8278457,0.413833891 44.4434146,0.337871919 44.0275012,0.337871919 C43.6055223,0.337871919 43.2184917,0.413833891 42.8799844,0.565180178 C42.541477,0.71508232 42.246294,0.925349679 42.0056996,1.19020568 C41.7627946,1.45506168 41.5741894,1.77075155 41.4421947,2.12976574 C41.3104887,2.48877992 41.2440581,2.88303122 41.2440581,3.30038882 C41.2440581,3.7174576 41.3104887,4.1117089 41.4421947,4.47072308 C41.5741894,4.82973727 41.7627946,5.14542714 42.0056996,5.41028314 C42.2477382,5.67485031 42.541477,5.8854065 42.8799844,6.03530864 C43.2199359,6.1863661 43.6055223,6.2626169 44.0275012,6.2626169 C44.4434146,6.2626169 44.8278457,6.1863661 45.1701079,6.03530864 C45.5112147,5.8854065 45.8072642,5.67485031 46.0493027,5.41028314 C46.2910524,5.14542714 46.4808129,4.82973727 46.6113635,4.47072308 C46.7433583,4.1117089 46.8097889,3.7174576 46.8097889,3.30038882 C46.8097889,2.88303122 46.7433583,2.48877992 46.6113635,2.12976574" id="Fill-163" fill="#F15A24"></path>
                        <polygon id="Fill-164" fill="#F15A24" points="52.7068352 0.434542916 52.7068352 6.15739657 52.3076738 6.15739657 48.6453248 1.16123615 48.5364363 1.01248933 48.5364363 6.15739657 48.1580706 6.15739657 48.1580706 0.434542916 48.5751394 0.434542916 52.219581 5.36080677 52.3284695 5.50810945 52.3284695 0.434542916"></polygon>
                        <path d="M58.059757,4.66657789 C58.059757,4.84565174 58.0271193,5.03281279 57.9606887,5.22170682 C57.8965687,5.40655725 57.7827701,5.57956569 57.6256473,5.73177847 C57.465925,5.8865907 57.2556576,6.01483068 56.9991776,6.11274364 C56.7418312,6.21181192 56.41661,6.26264578 56.0356448,6.26264578 C55.5616767,6.26264578 55.1443191,6.17801895 54.7951251,6.00992059 C54.4623944,5.8504871 54.188007,5.64368569 53.9762955,5.39442644 L54.2218,5.11021891 C54.3064268,5.20466592 54.4020291,5.29651348 54.5071628,5.38345095 C54.6330922,5.48887345 54.7769289,5.58303164 54.9340518,5.66303722 C55.0926188,5.74390928 55.2641831,5.80802927 55.4455676,5.85510836 C55.6281074,5.9036316 55.8288434,5.92760439 56.0440208,5.92760439 C56.3487352,5.92760439 56.6063705,5.88774601 56.8105724,5.8103399 C57.0150632,5.73177847 57.1831616,5.63155488 57.3076468,5.51284624 C57.4347315,5.39211581 57.5239795,5.25781042 57.5736581,5.11137423 C57.6218925,4.96898163 57.6461541,4.83092147 57.6461541,4.70152617 C57.6461541,4.39941126 57.5531513,4.15997219 57.368012,3.99187383 C57.1915376,3.82984088 56.96654,3.69553549 56.7008175,3.59415659 C56.4405828,3.49479948 56.1529093,3.4067067 55.8481949,3.33276653 C55.5495459,3.26142582 55.2690932,3.16726764 55.0126132,3.05231378 C54.7624875,2.93995938 54.550776,2.78630246 54.3849883,2.59885258 C54.2243994,2.41515746 54.1420832,2.1586775 54.1420832,1.83721105 C54.1420832,1.60874748 54.1906065,1.39934661 54.28592,1.21680681 C54.3826776,1.0331117 54.516983,0.874544695 54.6850814,0.746593541 C54.8554904,0.617198243 55.0562264,0.515530508 55.2823793,0.444189797 C55.5085322,0.374004401 55.7537479,0.337900802 56.0090725,0.337900802 C56.4371168,0.337900802 56.8143272,0.40779737 57.1323277,0.547012847 C57.4332873,0.678718775 57.6946774,0.865013345 57.9086995,1.10069764 L57.6582849,1.37768445 C57.4514835,1.14055601 57.2085785,0.96408162 56.9339023,0.851727221 C56.6413188,0.733018588 56.3221629,0.672653371 55.9825003,0.672653371 C55.7852302,0.672653371 55.5977803,0.699225619 55.426216,0.753814261 C55.2532076,0.808114073 55.1009948,0.886675504 54.9727548,0.987187924 C54.8445149,1.08856683 54.7419806,1.20958609 54.6680405,1.34880157 C54.5932338,1.48772822 54.5556861,1.64369576 54.5556861,1.81063881 C54.5556861,2.01137482 54.6099859,2.18062849 54.717719,2.31348973 C54.8228527,2.44172971 54.9632235,2.55061817 55.1370984,2.63640032 C55.3051968,2.71871652 55.4975568,2.79236787 55.7066688,2.8538884 C55.9146255,2.91569776 56.1274923,2.97866243 56.3464246,3.04278243 C56.5639126,3.10690242 56.7793789,3.1779543 56.9873357,3.25564925 C57.1903823,3.33276653 57.3752327,3.43443427 57.5361104,3.55776416 C57.6946774,3.68109405 57.8240727,3.83215151 57.9182308,4.00747059 C58.0126779,4.18278966 58.059757,4.40432135 58.059757,4.66657789" id="Fill-165" fill="#F15A24"></path>
                    </g>
                </g>
                <path d="M17.1257542,11.0574063 L17.1257542,10.816248 L18.4866964,10.816248 L18.4866964,11.0574063 L17.9335501,11.0574063 L17.9335501,13.2969742 L17.6805869,13.2969742 L17.6805869,11.0574063 L17.1257542,11.0574063 Z M18.8081918,10.7538504 L19.0442908,10.7538504 L19.0442908,11.7909997 C19.1398551,11.6650796 19.2449744,11.570922 19.3596516,11.5085241 C19.4743289,11.4461262 19.5985607,11.4149277 19.7323508,11.4149277 C19.8695138,11.4149277 19.991216,11.4497801 20.0974611,11.5194858 C20.2037061,11.5891916 20.282124,11.6827871 20.3327169,11.800275 C20.3833098,11.917763 20.4086058,12.1018622 20.4086058,12.3525781 L20.4086058,13.2969742 L20.1725068,13.2969742 L20.1725068,12.4217214 C20.1725068,12.2103555 20.1640748,12.0692596 20.1472105,11.9984296 C20.117979,11.8770066 20.0648573,11.7856597 19.9878436,11.7243861 C19.91083,11.6631124 19.8099268,11.6324761 19.685131,11.6324761 C19.5423466,11.6324761 19.4144609,11.6796954 19.3014701,11.7741355 C19.1884793,11.8685756 19.1139964,11.9854996 19.0780192,12.1249112 C19.0555335,12.2148541 19.0442908,12.381246 19.0442908,12.624092 L19.0442908,13.2969742 L18.8081918,13.2969742 L18.8081918,10.7538504 Z M22.4637426,12.688176 L22.6627403,12.7927341 C22.5975317,12.9209028 22.5222056,13.0243356 22.4367598,13.1030357 C22.3513141,13.1817358 22.255189,13.2416031 22.1483817,13.2826396 C22.0415745,13.3236761 21.9207155,13.344194 21.7858011,13.344194 C21.4867409,13.344194 21.2528927,13.2461014 21.0842497,13.0499134 C20.9156067,12.8537254 20.8312865,12.6319632 20.8312865,12.3846201 C20.8312865,12.1518928 20.9026776,11.944465 21.045462,11.7623305 C21.2264722,11.5307275 21.4687523,11.4149277 21.7723097,11.4149277 C22.0848614,11.4149277 22.3344493,11.5335382 22.5210809,11.7707627 C22.6537467,11.9382814 22.7212029,12.1473955 22.7234515,12.3981115 L21.0741312,12.3981115 C21.0786284,12.6117259 21.1466467,12.786831 21.2781882,12.9234318 C21.4097298,13.0600326 21.5721867,13.128332 21.7655641,13.128332 C21.8588798,13.128332 21.9496646,13.1120301 22.0379211,13.0794258 C22.1261776,13.0468215 22.2012226,13.0035371 22.2630584,12.9495713 C22.3248942,12.8956056 22.3917882,12.8084747 22.4637426,12.688176 Z M22.4637426,12.1940545 C22.4322626,12.0681344 22.3864486,11.9675122 22.3262992,11.892185 C22.2661499,11.8168578 22.1866078,11.7561472 22.0876706,11.7100515 C21.9887333,11.6639557 21.8847384,11.6409082 21.7756826,11.6409082 C21.5957967,11.6409082 21.4412096,11.6988081 21.3119166,11.8146096 C21.2174766,11.8989311 21.1460854,12.0254115 21.0977411,12.1940545 L22.4637426,12.1940545 Z M24.1691789,13.2969742 L24.1691789,10.816248 L24.2231444,10.816248 L25.8724647,12.7151587 L25.8724647,10.816248 L26.1169958,10.816248 L26.1169958,13.2969742 L26.0613439,13.2969742 L24.425515,11.4216734 L24.425515,13.2969742 L24.1691789,13.2969742 Z M28.2328438,12.688176 L28.4318415,12.7927341 C28.3666329,12.9209028 28.2913068,13.0243356 28.205861,13.1030357 C28.1204152,13.1817358 28.0242902,13.2416031 27.9174829,13.2826396 C27.8106757,13.3236761 27.6898167,13.344194 27.5549023,13.344194 C27.255842,13.344194 27.0219939,13.2461014 26.8533509,13.0499134 C26.6847079,12.8537254 26.6003877,12.6319632 26.6003877,12.3846201 C26.6003877,12.1518928 26.6717788,11.944465 26.8145632,11.7623305 C26.9955734,11.5307275 27.2378535,11.4149277 27.5414109,11.4149277 C27.8539626,11.4149277 28.1035505,11.5335382 28.2901821,11.7707627 C28.4228479,11.9382814 28.4903041,12.1473955 28.4925527,12.3981115 L26.8432324,12.3981115 C26.8477295,12.6117259 26.9157479,12.786831 27.0472894,12.9234318 C27.1788309,13.0600326 27.3412879,13.128332 27.5346652,13.128332 C27.627981,13.128332 27.7187658,13.1120301 27.8070223,13.0794258 C27.8952788,13.0468215 27.9703238,13.0035371 28.0321596,12.9495713 C28.0939954,12.8956056 28.1608894,12.8084747 28.2328438,12.688176 Z M28.2328438,12.1940545 C28.2013637,12.0681344 28.1555498,11.9675122 28.0954004,11.892185 C28.0352511,11.8168578 27.955709,11.7561472 27.8567718,11.7100515 C27.7578345,11.6639557 27.6538396,11.6409082 27.5447838,11.6409082 C27.3648979,11.6409082 27.2103108,11.6988081 27.0810178,11.8146096 C26.9865778,11.8989311 26.9151866,12.0254115 26.8668423,12.1940545 L28.2328438,12.1940545 Z M28.7280406,11.4621475 L29.0113594,11.4621475 L29.4970488,12.1417754 L29.9827382,11.4621475 L30.266057,11.4621475 L29.6387082,12.3340275 L30.3453189,13.2969742 L30.0586272,13.2969742 L29.4970488,12.5262795 L28.9439025,13.2969742 L28.6622701,13.2969742 L29.3570758,12.3340275 L28.7280406,11.4621475 Z M30.8051008,10.7808332 L31.0428862,10.7808332 L31.0428862,11.4621475 L31.4172718,11.4621475 L31.4172718,11.6645181 L31.0428862,11.6645181 L31.0428862,13.2969742 L30.8051008,13.2969742 L30.8051008,11.6645181 L30.4829943,11.6645181 L30.4829943,11.4621475 L30.8051008,11.4621475 L30.8051008,10.7808332 Z M32.7736189,10.816248 L33.0232093,10.816248 L33.0232093,13.0575023 L33.9760375,13.0575023 L33.9760375,13.2969742 L32.7736189,13.2969742 L32.7736189,10.816248 Z M35.8793963,12.688176 L36.078394,12.7927341 C36.0131854,12.9209028 35.9378593,13.0243356 35.8524136,13.1030357 C35.7669678,13.1817358 35.6708427,13.2416031 35.5640355,13.2826396 C35.4572282,13.3236761 35.3363692,13.344194 35.2014548,13.344194 C34.9023946,13.344194 34.6685465,13.2461014 34.4999035,13.0499134 C34.3312605,12.8537254 34.2469402,12.6319632 34.2469402,12.3846201 C34.2469402,12.1518928 34.3183314,11.944465 34.4611158,11.7623305 C34.6421259,11.5307275 34.8844061,11.4149277 35.1879635,11.4149277 C35.5005152,11.4149277 35.750103,11.5335382 35.9367346,11.7707627 C36.0694005,11.9382814 36.1368567,12.1473955 36.1391052,12.3981115 L34.4897849,12.3981115 C34.4942821,12.6117259 34.5623004,12.786831 34.6938419,12.9234318 C34.8253835,13.0600326 34.9878405,13.128332 35.1812178,13.128332 C35.2745336,13.128332 35.3653184,13.1120301 35.4535749,13.0794258 C35.5418314,13.0468215 35.6168764,13.0035371 35.6787121,12.9495713 C35.7405479,12.8956056 35.807442,12.8084747 35.8793963,12.688176 Z M35.8793963,12.1940545 C35.8479163,12.0681344 35.8021023,11.9675122 35.7419529,11.892185 C35.6818036,11.8168578 35.6022615,11.7561472 35.5033243,11.7100515 C35.4043871,11.6639557 35.3003921,11.6409082 35.1913363,11.6409082 C35.0114504,11.6409082 34.8568633,11.6988081 34.7275704,11.8146096 C34.6331303,11.8989311 34.5617392,12.0254115 34.5133948,12.1940545 L35.8793963,12.1940545 Z M36.410008,11.4621475 L36.6612848,11.4621475 L37.2751422,12.7977934 L37.8839404,11.4621475 L38.1369036,11.4621475 L37.2970657,13.2969742 L37.2549052,13.2969742 L36.410008,11.4621475 Z M40.0470081,12.688176 L40.2460059,12.7927341 C40.1807973,12.9209028 40.1054712,13.0243356 40.0200254,13.1030357 C39.9345796,13.1817358 39.8384545,13.2416031 39.7316473,13.2826396 C39.6248401,13.3236761 39.5039811,13.344194 39.3690667,13.344194 C39.0700064,13.344194 38.8361583,13.2461014 38.6675153,13.0499134 C38.4988723,12.8537254 38.4145521,12.6319632 38.4145521,12.3846201 C38.4145521,12.1518928 38.4859432,11.944465 38.6287276,11.7623305 C38.8097378,11.5307275 39.0520179,11.4149277 39.3555753,11.4149277 C39.668127,11.4149277 39.9177149,11.5335382 40.1043465,11.7707627 C40.2370123,11.9382814 40.3044685,12.1473955 40.3067171,12.3981115 L38.6573968,12.3981115 C38.6618939,12.6117259 38.7299122,12.786831 38.8614538,12.9234318 C38.9929953,13.0600326 39.1554523,13.128332 39.3488296,13.128332 C39.4421454,13.128332 39.5329302,13.1120301 39.6211867,13.0794258 C39.7094432,13.0468215 39.7844882,13.0035371 39.846324,12.9495713 C39.9081597,12.8956056 39.9750538,12.8084747 40.0470081,12.688176 Z M40.0470081,12.1940545 C40.0155281,12.0681344 39.9697141,11.9675122 39.9095648,11.892185 C39.8494154,11.8168578 39.7698734,11.7561472 39.6709361,11.7100515 C39.5719989,11.6639557 39.4680039,11.6409082 39.3589481,11.6409082 C39.1790623,11.6409082 39.0244752,11.6988081 38.8951822,11.8146096 C38.8007421,11.8989311 38.729351,12.0254115 38.6810067,12.1940545 L40.0470081,12.1940545 Z M40.7159064,10.7538504 L40.9520054,10.7538504 L40.9520054,13.2969742 L40.7159064,13.2969742 L40.7159064,10.7538504 Z M43.2763584,11.4149277 C43.5585544,11.4149277 43.7924025,11.5172363 43.9779098,11.7218564 C44.1465528,11.908488 44.2308731,12.129407 44.2308731,12.3846201 C44.2308731,12.6409575 44.1417747,12.8649682 43.9635752,13.0566591 C43.7853758,13.24835 43.5563058,13.344194 43.2763584,13.344194 C42.9952868,13.344194 42.7656547,13.24835 42.5874552,13.0566591 C42.4092558,12.8649682 42.3201574,12.6409575 42.3201574,12.3846201 C42.3201574,12.1305313 42.4044776,11.9101744 42.5731206,11.7235428 C42.7586279,11.5177984 42.9930382,11.4149277 43.2763584,11.4149277 Z M43.2763584,11.6459675 C43.0807326,11.6459675 42.9126542,11.7184829 42.7721184,11.8635158 C42.6315826,12.0085488 42.5613157,12.1839349 42.5613157,12.3896794 C42.5613157,12.5223452 42.5933574,12.6460149 42.6574417,12.7606921 C42.7215261,12.8753694 42.8080948,12.9639056 42.9171506,13.0263035 C43.0262065,13.0887014 43.1459412,13.1198999 43.2763584,13.1198999 C43.4067757,13.1198999 43.5265104,13.0887014 43.6355662,13.0263035 C43.744622,12.9639056 43.8311908,12.8753694 43.8952752,12.7606921 C43.9593595,12.6460149 43.9914012,12.5223452 43.9914012,12.3896794 C43.9914012,12.1839349 43.9208533,12.0085488 43.7797553,11.8635158 C43.6386573,11.7184829 43.47086,11.6459675 43.2763584,11.6459675 Z M45.4293076,10.7538504 L45.4293076,10.9848902 C45.3427376,10.9477887 45.2685358,10.9292383 45.2067,10.9292383 C45.1606042,10.9292383 45.1223791,10.9385135 45.0920233,10.9570642 C45.0616676,10.975615 45.042555,10.9969761 45.034685,11.0211483 C45.026815,11.0453204 45.02288,11.1096849 45.02288,11.2142435 L45.02288,11.4621475 L45.4056977,11.4621475 L45.4056977,11.6645181 L45.0211936,11.6645181 L45.0211936,13.2969742 L44.7850946,13.2969742 L44.7850946,11.6645181 L44.5439363,11.6645181 L44.5439363,11.4621475 L44.7850946,11.4621475 L44.7850946,11.1754558 C44.7850946,11.0439143 44.7971805,10.9500378 44.8213527,10.8938234 C44.8455248,10.8376091 44.8865607,10.7923572 44.9444614,10.7580665 C45.0023622,10.7237758 45.072348,10.7066306 45.1544209,10.7066306 C45.2308724,10.7066306 45.3225004,10.7223704 45.4293076,10.7538504 Z M46.72663,10.816248 L46.9745339,10.816248 L46.9745339,13.2969742 L46.72663,13.2969742 L46.72663,10.816248 Z M47.5085184,11.4621475 L47.7446174,11.4621475 L47.7446174,11.7909997 C47.8390575,11.6650796 47.9436146,11.570922 48.0582919,11.5085241 C48.1729691,11.4461262 48.2977631,11.4149277 48.4326775,11.4149277 C48.5698404,11.4149277 48.6915426,11.4497801 48.7977877,11.5194858 C48.9040328,11.5891916 48.9824506,11.6830681 49.0330435,11.8011182 C49.0836364,11.9191683 49.1089325,12.1029865 49.1089325,12.3525781 L49.1089325,13.2969742 L48.8745199,13.2969742 L48.8745199,12.4217214 C48.8745199,12.2103555 48.8655257,12.0692596 48.8475372,11.9984296 C48.81943,11.8770066 48.7665893,11.7856597 48.6890135,11.7243861 C48.6114378,11.6631124 48.5102535,11.6324761 48.3854576,11.6324761 C48.2426732,11.6324761 48.1147875,11.6796954 48.0017967,11.7741355 C47.8888059,11.8685756 47.8143231,11.9854996 47.7783459,12.1249112 C47.7558601,12.2159784 47.7446174,12.3823703 47.7446174,12.624092 L47.7446174,13.2969742 L47.5085184,13.2969742 L47.5085184,11.4621475 Z M49.6193071,11.4621475 L49.8554061,11.4621475 L49.8554061,11.7909997 C49.9498462,11.6650796 50.0544033,11.570922 50.1690805,11.5085241 C50.2837578,11.4461262 50.4085517,11.4149277 50.5434661,11.4149277 C50.6806291,11.4149277 50.8023313,11.4497801 50.9085764,11.5194858 C51.0148215,11.5891916 51.0932393,11.6830681 51.1438322,11.8011182 C51.1944251,11.9191683 51.2197212,12.1029865 51.2197212,12.3525781 L51.2197212,13.2969742 L50.9853086,13.2969742 L50.9853086,12.4217214 C50.9853086,12.2103555 50.9763144,12.0692596 50.9583258,11.9984296 C50.9302187,11.8770066 50.877378,11.7856597 50.7998022,11.7243861 C50.7222264,11.6631124 50.6210421,11.6324761 50.4962463,11.6324761 C50.3534619,11.6324761 50.2255762,11.6796954 50.1125854,11.7741355 C49.9995946,11.8685756 49.9251117,11.9854996 49.8891345,12.1249112 C49.8666488,12.2159784 49.8554061,12.3823703 49.8554061,12.624092 L49.8554061,13.2969742 L49.6193071,13.2969742 L49.6193071,11.4621475 Z M52.5986029,11.4149277 C52.8807988,11.4149277 53.1146469,11.5172363 53.3001542,11.7218564 C53.4687972,11.908488 53.5531175,12.129407 53.5531175,12.3846201 C53.5531175,12.6409575 53.4640191,12.8649682 53.2858197,13.0566591 C53.1076202,13.24835 52.8785503,13.344194 52.5986029,13.344194 C52.3175312,13.344194 52.0878991,13.24835 51.9096997,13.0566591 C51.7315002,12.8649682 51.6424018,12.6409575 51.6424018,12.3846201 C51.6424018,12.1305313 51.7267221,11.9101744 51.8953651,11.7235428 C52.0808724,11.5177984 52.3152826,11.4149277 52.5986029,11.4149277 Z M52.5986029,11.6459675 C52.402977,11.6459675 52.2348987,11.7184829 52.0943628,11.8635158 C51.953827,12.0085488 51.8835601,12.1839349 51.8835601,12.3896794 C51.8835601,12.5223452 51.9156018,12.6460149 51.9796862,12.7606921 C52.0437705,12.8753694 52.1303393,12.9639056 52.2393951,13.0263035 C52.3484509,13.0887014 52.4681856,13.1198999 52.5986029,13.1198999 C52.7290201,13.1198999 52.8487549,13.0887014 52.9578107,13.0263035 C53.0668665,12.9639056 53.1534352,12.8753694 53.2175196,12.7606921 C53.2816039,12.6460149 53.3136456,12.5223452 53.3136456,12.3896794 C53.3136456,12.1839349 53.2430977,12.0085488 53.1019997,11.8635158 C52.9609017,11.7184829 52.7931045,11.6459675 52.5986029,11.6459675 Z M53.8223338,11.4621475 L54.0736106,11.4621475 L54.6874681,12.7977934 L55.2962662,11.4621475 L55.5492295,11.4621475 L54.7093915,13.2969742 L54.667231,13.2969742 L53.8223338,11.4621475 Z M57.7426528,11.4621475 L57.7426528,13.2969742 L57.5099266,13.2969742 L57.5099266,12.9816133 C57.4109894,13.101912 57.2999678,13.1924157 57.1768584,13.2531272 C57.053749,13.3138387 56.9191177,13.344194 56.7729604,13.344194 C56.5132502,13.344194 56.291488,13.2500364 56.1076671,13.0617184 C55.9238462,12.8734003 55.8319372,12.6443304 55.8319372,12.3745016 C55.8319372,12.1102942 55.9246894,11.884316 56.1101967,11.6965601 C56.295704,11.5088042 56.5188716,11.4149277 56.7797061,11.4149277 C56.9303605,11.4149277 57.0666782,11.4469694 57.1886633,11.5110537 C57.3106484,11.5751381 57.4177351,11.6712631 57.5099266,11.7994318 L57.5099266,11.4621475 L57.7426528,11.4621475 Z M56.7982567,11.6425946 C56.6667152,11.6425946 56.545294,11.6749174 56.4339897,11.7395639 C56.3226853,11.8042103 56.234149,11.8949951 56.1683783,12.0119209 C56.1026075,12.1288468 56.0697226,12.2525164 56.0697226,12.3829337 C56.0697226,12.5122267 56.1028886,12.6358963 56.1692215,12.7539464 C56.2355544,12.8719965 56.3246528,12.9639056 56.4365193,13.0296764 C56.5483858,13.0954471 56.6684016,13.128332 56.7965703,13.128332 C56.9258633,13.128332 57.0484087,13.0957282 57.1642102,13.0305196 C57.2800117,12.9653109 57.3691101,12.8770558 57.431508,12.7657514 C57.4939059,12.654447 57.5251044,12.5290909 57.5251044,12.3896794 C57.5251044,12.1771892 57.4551186,11.9995546 57.3151449,11.8567702 C57.1751712,11.7139857 57.0028769,11.6425946 56.7982567,11.6425946 Z M58.4840671,10.7808332 L58.7218526,10.7808332 L58.7218526,11.4621475 L59.0962382,11.4621475 L59.0962382,11.6645181 L58.7218526,11.6645181 L58.7218526,13.2969742 L58.4840671,13.2969742 L58.4840671,11.6645181 L58.1619606,11.6645181 L58.1619606,11.4621475 L58.4840671,11.4621475 L58.4840671,10.7808332 Z M59.5357831,10.7066306 C59.5897488,10.7066306 59.6358439,10.7257432 59.6740696,10.763969 C59.7122954,10.8021947 59.731408,10.8482898 59.731408,10.9022555 C59.731408,10.955097 59.7122954,11.0006299 59.6740696,11.0388557 C59.6358439,11.0770814 59.5897488,11.096194 59.5357831,11.096194 C59.4829416,11.096194 59.4374087,11.0770814 59.3991829,11.0388557 C59.3609572,11.0006299 59.3418446,10.955097 59.3418446,10.9022555 C59.3418446,10.8482898 59.3609572,10.8021947 59.3991829,10.763969 C59.4374087,10.7257432 59.4829416,10.7066306 59.5357831,10.7066306 Z M59.4177336,11.4621475 L59.655519,11.4621475 L59.655519,13.2969742 L59.4177336,13.2969742 L59.4177336,11.4621475 Z M61.0175365,11.4149277 C61.2997324,11.4149277 61.5335806,11.5172363 61.7190879,11.7218564 C61.8877309,11.908488 61.9720511,12.129407 61.9720511,12.3846201 C61.9720511,12.6409575 61.8829527,12.8649682 61.7047533,13.0566591 C61.5265538,13.24835 61.2974839,13.344194 61.0175365,13.344194 C60.7364648,13.344194 60.5068327,13.24835 60.3286333,13.0566591 C60.1504338,12.8649682 60.0613354,12.6409575 60.0613354,12.3846201 C60.0613354,12.1305313 60.1456557,11.9101744 60.3142987,11.7235428 C60.499806,11.5177984 60.7342162,11.4149277 61.0175365,11.4149277 Z M61.0175365,11.6459675 C60.8219106,11.6459675 60.6538323,11.7184829 60.5132964,11.8635158 C60.3727606,12.0085488 60.3024937,12.1839349 60.3024937,12.3896794 C60.3024937,12.5223452 60.3345354,12.6460149 60.3986198,12.7606921 C60.4627041,12.8753694 60.5492729,12.9639056 60.6583287,13.0263035 C60.7673845,13.0887014 60.8871192,13.1198999 61.0175365,13.1198999 C61.1479537,13.1198999 61.2676885,13.0887014 61.3767443,13.0263035 C61.4858001,12.9639056 61.5723689,12.8753694 61.6364532,12.7606921 C61.7005375,12.6460149 61.7325792,12.5223452 61.7325792,12.3896794 C61.7325792,12.1839349 61.6620313,12.0085488 61.5209333,11.8635158 C61.3798353,11.7184829 61.2120381,11.6459675 61.0175365,11.6459675 Z M62.4149688,11.4621475 L62.6510678,11.4621475 L62.6510678,11.7909997 C62.7455079,11.6650796 62.850065,11.570922 62.9647423,11.5085241 C63.0794195,11.4461262 63.2042134,11.4149277 63.3391278,11.4149277 C63.4762908,11.4149277 63.597993,11.4497801 63.7042381,11.5194858 C63.8104832,11.5891916 63.888901,11.6830681 63.9394939,11.8011182 C63.9900868,11.9191683 64.0153829,12.1029865 64.0153829,12.3525781 L64.0153829,13.2969742 L63.7809703,13.2969742 L63.7809703,12.4217214 C63.7809703,12.2103555 63.7719761,12.0692596 63.7539875,11.9984296 C63.7258804,11.8770066 63.6730397,11.7856597 63.5954639,11.7243861 C63.5178881,11.6631124 63.4167039,11.6324761 63.291908,11.6324761 C63.1491236,11.6324761 63.0212379,11.6796954 62.9082471,11.7741355 C62.7952563,11.8685756 62.7207734,11.9854996 62.6847963,12.1249112 C62.6623105,12.2159784 62.6510678,12.3823703 62.6510678,12.624092 L62.6510678,13.2969742 L62.4149688,13.2969742 L62.4149688,11.4621475 Z" id="The-Next-Level-of-Innovation" fill="#9D9EA2"></path>
            </g>
        </g>
    </g>
</svg>